999
"DXF R12 Output" (www.mydxf.blogspot.com)
 0 
SECTION
 2 
HEADER
 9 
$ACADVER
 1 
AC1009
 9 
$EXTMIN
 10 
 0 
 20 
 0 
 9 
$EXTMAX
 10 
 8.5 
 20 
 11 
 0 
ENDSEC
 0 
SECTION
 2 
ENTITIES
0
LINE
8
0
10
-462.489000
20
1068.450000
11
-460.595507
21
1071.220411
0
LINE
8
0
10
-460.595507
20
1071.220411
11
-458.560303
21
1073.879309
0
LINE
8
0
10
-458.560303
20
1073.879309
11
-456.388514
21
1076.421588
0
LINE
8
0
10
-456.388514
20
1076.421588
11
-454.085266
21
1078.842143
0
LINE
8
0
10
-454.085266
20
1078.842143
11
-451.655685
21
1081.135867
0
LINE
8
0
10
-451.655685
20
1081.135867
11
-449.104896
21
1083.297656
0
LINE
8
0
10
-449.104896
20
1083.297656
11
-446.438026
21
1085.322402
0
LINE
8
0
10
-446.438026
20
1085.322402
11
-443.660200
21
1087.205000
0
LINE
8
0
10
-443.660200
20
1087.205000
11
-441.040345
21
1088.551358
0
LINE
8
0
10
-441.040345
20
1088.551358
11
-438.290363
21
1089.410764
0
LINE
8
0
10
-438.290363
20
1089.410764
11
-435.471692
21
1089.790370
0
LINE
8
0
10
-435.471692
20
1089.790370
11
-432.645769
21
1089.697328
0
LINE
8
0
10
-432.645769
20
1089.697328
11
-429.874032
21
1089.138788
0
LINE
8
0
10
-429.874032
20
1089.138788
11
-427.217916
21
1088.121902
0
LINE
8
0
10
-427.217916
20
1088.121902
11
-424.738860
21
1086.653823
0
LINE
8
0
10
-424.738860
20
1086.653823
11
-422.498300
21
1084.741700
0
LINE
8
0
10
-422.498300
20
1084.741700
11
-404.349600
21
1066.611600
0
LINE
8
0
10
-404.349600
20
1066.611600
11
-402.937350
21
1065.384980
0
LINE
8
0
10
-402.937350
20
1065.384980
11
-401.391483
21
1064.380065
0
LINE
8
0
10
-401.391483
20
1064.380065
11
-399.737365
21
1063.602935
0
LINE
8
0
10
-399.737365
20
1063.602935
11
-398.000361
21
1063.059673
0
LINE
8
0
10
-398.000361
20
1063.059673
11
-396.205837
21
1062.756357
0
LINE
8
0
10
-396.205837
20
1062.756357
11
-394.379159
21
1062.699070
0
LINE
8
0
10
-394.379159
20
1062.699070
11
-392.545691
21
1062.893890
0
LINE
8
0
10
-392.545691
20
1062.893890
11
-390.730800
21
1063.346900
0
LINE
8
0
10
-390.730800
20
1063.346900
11
-389.495640
21
1063.829936
0
LINE
8
0
10
-389.495640
20
1063.829936
11
-388.329166
21
1064.451559
0
LINE
8
0
10
-388.329166
20
1064.451559
11
-387.242957
21
1065.204702
0
LINE
8
0
10
-387.242957
20
1065.204702
11
-386.248590
21
1066.082300
0
LINE
8
0
10
-386.248590
20
1066.082300
11
-380.581510
21
1071.706600
0
LINE
8
0
10
-380.581510
20
1071.706600
11
-378.321955
21
1073.592288
0
LINE
8
0
10
-378.321955
20
1073.592288
11
-375.829130
21
1075.032133
0
LINE
8
0
10
-375.829130
20
1075.032133
11
-373.164393
21
1076.019647
0
LINE
8
0
10
-373.164393
20
1076.019647
11
-370.389099
21
1076.548344
0
LINE
8
0
10
-370.389099
20
1076.548344
11
-367.564606
21
1076.611735
0
LINE
8
0
10
-367.564606
20
1076.611735
11
-364.752273
21
1076.203333
0
LINE
8
0
10
-364.752273
20
1076.203333
11
-362.013455
21
1075.316650
0
LINE
8
0
10
-362.013455
20
1075.316650
11
-359.409510
21
1073.945200
0
LINE
8
0
10
-359.409510
20
1073.945200
11
-354.550790
21
1070.485600
0
LINE
8
0
10
-354.550790
20
1070.485600
11
-348.429511
21
1065.873162
0
LINE
8
0
10
-348.429511
20
1065.873162
11
-342.016634
21
1061.730392
0
LINE
8
0
10
-342.016634
20
1061.730392
11
-335.339552
21
1058.068675
0
LINE
8
0
10
-335.339552
20
1058.068675
11
-328.425657
21
1054.899398
0
LINE
8
0
10
-328.425657
20
1054.899398
11
-321.302340
21
1052.233946
0
LINE
8
0
10
-321.302340
20
1052.233946
11
-313.996996
21
1050.083705
0
LINE
8
0
10
-313.996996
20
1050.083705
11
-306.537015
21
1048.460061
0
LINE
8
0
10
-306.537015
20
1048.460061
11
-298.949790
21
1047.374400
0
LINE
8
0
10
-298.949790
20
1047.374400
11
-294.951960
21
1047.162400
0
LINE
8
0
10
-294.951960
20
1047.162400
11
-222.216260
21
1047.162400
0
LINE
8
0
10
-222.216260
20
1047.162400
11
-208.642016
21
1047.406243
0
LINE
8
0
10
-208.642016
20
1047.406243
11
-195.089651
21
1048.137135
0
LINE
8
0
10
-195.089651
20
1048.137135
11
-181.572266
21
1049.354135
0
LINE
8
0
10
-181.572266
20
1049.354135
11
-168.102960
21
1051.056300
0
LINE
8
0
10
-168.102960
20
1051.056300
11
-132.399360
21
1056.221300
0
LINE
8
0
10
-132.399360
20
1056.221300
11
-129.698964
21
1056.513338
0
LINE
8
0
10
-129.698964
20
1056.513338
11
-126.988060
21
1056.610684
0
LINE
8
0
10
-126.988060
20
1056.610684
11
-124.277156
21
1056.513338
0
LINE
8
0
10
-124.277156
20
1056.513338
11
-121.576760
21
1056.221300
0
LINE
8
0
10
-121.576760
20
1056.221300
11
-86.312160
21
1051.119800
0
LINE
8
0
10
-86.312160
20
1051.119800
11
-85.219939
21
1050.787586
0
LINE
8
0
10
-85.219939
20
1050.787586
11
-84.276740
21
1050.144400
0
LINE
8
0
10
-84.276740
20
1050.144400
11
-82.861517
21
1049.016116
0
LINE
8
0
10
-82.861517
20
1049.016116
11
-81.317931
21
1048.133133
0
LINE
8
0
10
-81.317931
20
1048.133133
11
-79.676308
21
1047.499836
0
LINE
8
0
10
-79.676308
20
1047.499836
11
-77.966969
21
1047.120614
0
LINE
8
0
10
-77.966969
20
1047.120614
11
-76.220239
21
1046.999852
0
LINE
8
0
10
-76.220239
20
1046.999852
11
-74.466442
21
1047.141938
0
LINE
8
0
10
-74.466442
20
1047.141938
11
-72.735901
21
1047.551258
0
LINE
8
0
10
-72.735901
20
1047.551258
11
-71.058940
21
1048.232200
0
LINE
8
0
10
-71.058940
20
1048.232200
11
-69.972134
21
1048.581728
0
LINE
8
0
10
-69.972134
20
1048.581728
11
-68.830540
21
1048.590800
0
LINE
8
0
10
-68.830540
20
1048.590800
11
-58.956670
21
1047.162400
0
LINE
8
0
10
-58.956670
20
1047.162400
11
-52.227020
21
1047.162400
0
LINE
8
0
10
-52.227020
20
1047.162400
11
-49.569538
21
1046.927026
0
LINE
8
0
10
-49.569538
20
1046.927026
11
-47.013874
21
1046.235133
0
LINE
8
0
10
-47.013874
20
1046.235133
11
-44.618083
21
1045.108049
0
LINE
8
0
10
-44.618083
20
1045.108049
11
-42.440220
21
1043.567100
0
LINE
8
0
10
-42.440220
20
1043.567100
11
-39.862436
21
1041.123015
0
LINE
8
0
10
-39.862436
20
1041.123015
11
-37.586161
21
1038.437050
0
LINE
8
0
10
-37.586161
20
1038.437050
11
-35.624401
21
1035.537313
0
LINE
8
0
10
-35.624401
20
1035.537313
11
-33.990160
21
1032.451915
0
LINE
8
0
10
-33.990160
20
1032.451915
11
-32.696444
21
1029.208966
0
LINE
8
0
10
-32.696444
20
1029.208966
11
-31.756260
21
1025.836573
0
LINE
8
0
10
-31.756260
20
1025.836573
11
-31.182612
21
1022.362848
0
LINE
8
0
10
-31.182612
20
1022.362848
11
-30.988505
21
1018.815900
0
LINE
8
0
10
-30.988505
20
1018.815900
11
-31.182612
21
1015.268952
0
LINE
8
0
10
-31.182612
20
1015.268952
11
-31.756260
21
1011.795227
0
LINE
8
0
10
-31.756260
20
1011.795227
11
-32.696444
21
1008.422834
0
LINE
8
0
10
-32.696444
20
1008.422834
11
-33.990160
21
1005.179885
0
LINE
8
0
10
-33.990160
20
1005.179885
11
-35.624401
21
1002.094487
0
LINE
8
0
10
-35.624401
20
1002.094487
11
-37.586161
21
999.194750
0
LINE
8
0
10
-37.586161
20
999.194750
11
-39.862436
21
996.508785
0
LINE
8
0
10
-39.862436
20
996.508785
11
-42.440220
21
994.064700
0
LINE
8
0
10
-42.440220
20
994.064700
11
-44.618085
21
992.523759
0
LINE
8
0
10
-44.618085
20
992.523759
11
-47.013877
21
991.396683
0
LINE
8
0
10
-47.013877
20
991.396683
11
-49.569540
21
990.704797
0
LINE
8
0
10
-49.569540
20
990.704797
11
-52.227020
21
990.469430
0
LINE
8
0
10
-52.227020
20
990.469430
11
-58.995530
21
990.469430
0
LINE
8
0
10
-58.995530
20
990.469430
11
-68.837290
21
989.044640
0
LINE
8
0
10
-68.837290
20
989.044640
11
-69.978118
21
989.053462
0
LINE
8
0
10
-69.978118
20
989.053462
11
-71.064340
21
989.402300
0
LINE
8
0
10
-71.064340
20
989.402300
11
-72.740437
21
990.082000
0
LINE
8
0
10
-72.740437
20
990.082000
11
-74.469951
21
990.490438
0
LINE
8
0
10
-74.469951
20
990.490438
11
-76.222621
21
990.631996
0
LINE
8
0
10
-76.222621
20
990.631996
11
-77.968184
21
990.511054
0
LINE
8
0
10
-77.968184
20
990.511054
11
-79.676379
21
990.131994
0
LINE
8
0
10
-79.676379
20
990.131994
11
-81.316945
21
989.499195
0
LINE
8
0
10
-81.316945
20
989.499195
11
-82.859619
21
988.617041
0
LINE
8
0
10
-82.859619
20
988.617041
11
-84.274140
21
987.489910
0
LINE
8
0
10
-84.274140
20
987.489910
11
-85.216834
21
986.847346
0
LINE
8
0
10
-85.216834
20
986.847346
11
-86.308320
21
986.515350
0
LINE
8
0
10
-86.308320
20
986.515350
11
-121.573020
21
981.410080
0
LINE
8
0
10
-121.573020
20
981.410080
11
-124.274522
21
981.117678
0
LINE
8
0
10
-124.274522
20
981.117678
11
-126.986553
21
981.020130
0
LINE
8
0
10
-126.986553
20
981.020130
11
-129.698592
21
981.117437
0
LINE
8
0
10
-129.698592
20
981.117437
11
-132.400120
21
981.409600
0
LINE
8
0
10
-132.400120
20
981.409600
11
-168.100420
21
986.574740
0
LINE
8
0
10
-168.100420
20
986.574740
11
-181.571108
21
988.277253
0
LINE
8
0
10
-181.571108
20
988.277253
11
-195.089890
21
989.494502
0
LINE
8
0
10
-195.089890
20
989.494502
11
-208.643662
21
990.225541
0
LINE
8
0
10
-208.643662
20
990.225541
11
-222.219320
21
990.469430
0
LINE
8
0
10
-222.219320
20
990.469430
11
-294.952120
21
990.469430
0
LINE
8
0
10
-294.952120
20
990.469430
11
-298.949950
21
990.257400
0
LINE
8
0
10
-298.949950
20
990.257400
11
-306.537175
21
989.171739
0
LINE
8
0
10
-306.537175
20
989.171739
11
-313.997156
21
987.548095
0
LINE
8
0
10
-313.997156
20
987.548095
11
-321.302500
21
985.397854
0
LINE
8
0
10
-321.302500
20
985.397854
11
-328.425817
21
982.732402
0
LINE
8
0
10
-328.425817
20
982.732402
11
-335.339712
21
979.563125
0
LINE
8
0
10
-335.339712
20
979.563125
11
-342.016794
21
975.901408
0
LINE
8
0
10
-342.016794
20
975.901408
11
-348.429671
21
971.758638
0
LINE
8
0
10
-348.429671
20
971.758638
11
-354.550950
21
967.146200
0
LINE
8
0
10
-354.550950
20
967.146200
11
-359.409670
21
963.686550
0
LINE
8
0
10
-359.409670
20
963.686550
11
-362.013614
21
962.315098
0
LINE
8
0
10
-362.013614
20
962.315098
11
-364.752431
21
961.428415
0
LINE
8
0
10
-364.752431
20
961.428415
11
-367.564765
21
961.020012
0
LINE
8
0
10
-367.564765
20
961.020012
11
-370.389257
21
961.083402
0
LINE
8
0
10
-370.389257
20
961.083402
11
-373.164551
21
961.612097
0
LINE
8
0
10
-373.164551
20
961.612097
11
-375.829289
21
962.599610
0
LINE
8
0
10
-375.829289
20
962.599610
11
-378.322115
21
964.039454
0
LINE
8
0
10
-378.322115
20
964.039454
11
-380.581670
21
965.925140
0
LINE
8
0
10
-380.581670
20
965.925140
11
-386.248750
21
971.549450
0
LINE
8
0
10
-386.248750
20
971.549450
11
-387.243120
21
972.427037
0
LINE
8
0
10
-387.243120
20
972.427037
11
-388.329329
21
973.180170
0
LINE
8
0
10
-388.329329
20
973.180170
11
-389.495802
21
973.801783
0
LINE
8
0
10
-389.495802
20
973.801783
11
-390.730960
21
974.284810
0
LINE
8
0
10
-390.730960
20
974.284810
11
-392.545846
21
974.737828
0
LINE
8
0
10
-392.545846
20
974.737828
11
-394.379310
21
974.932657
0
LINE
8
0
10
-394.379310
20
974.932657
11
-396.205986
21
974.875379
0
LINE
8
0
10
-396.205986
20
974.875379
11
-398.000509
21
974.572074
0
LINE
8
0
10
-398.000509
20
974.572074
11
-399.737513
21
974.028822
0
LINE
8
0
10
-399.737513
20
974.028822
11
-401.391634
21
973.251704
0
LINE
8
0
10
-401.391634
20
973.251704
11
-402.937504
21
972.246800
0
LINE
8
0
10
-402.937504
20
972.246800
11
-404.349760
21
971.020190
0
LINE
8
0
10
-404.349760
20
971.020190
11
-422.498460
21
952.890090
0
LINE
8
0
10
-422.498460
20
952.890090
11
-424.739017
21
950.977962
0
LINE
8
0
10
-424.739017
20
950.977962
11
-427.218071
21
949.509877
0
LINE
8
0
10
-427.218071
20
949.509877
11
-429.874185
21
948.492986
0
LINE
8
0
10
-429.874185
20
948.492986
11
-432.645922
21
947.934441
0
LINE
8
0
10
-432.645922
20
947.934441
11
-435.471846
21
947.841394
0
LINE
8
0
10
-435.471846
20
947.841394
11
-438.290518
21
948.220995
0
LINE
8
0
10
-438.290518
20
948.220995
11
-441.040502
21
949.080396
0
LINE
8
0
10
-441.040502
20
949.080396
11
-443.660360
21
950.426750
0
LINE
8
0
10
-443.660360
20
950.426750
11
-446.438186
21
952.309348
0
LINE
8
0
10
-446.438186
20
952.309348
11
-449.105056
21
954.334094
0
LINE
8
0
10
-449.105056
20
954.334094
11
-451.655845
21
956.495883
0
LINE
8
0
10
-451.655845
20
956.495883
11
-454.085426
21
958.789607
0
LINE
8
0
10
-454.085426
20
958.789607
11
-456.388674
21
961.210162
0
LINE
8
0
10
-456.388674
20
961.210162
11
-458.560463
21
963.752441
0
LINE
8
0
10
-458.560463
20
963.752441
11
-460.595667
21
966.411339
0
LINE
8
0
10
-460.595667
20
966.411339
11
-462.489160
21
969.181750
0
LINE
8
0
10
-462.489160
20
969.181750
11
-463.881144
21
971.786642
0
LINE
8
0
10
-463.881144
20
971.786642
11
-464.785665
21
974.529924
0
LINE
8
0
10
-464.785665
20
974.529924
11
-465.209028
21
977.349583
0
LINE
8
0
10
-465.209028
20
977.349583
11
-465.157540
21
980.183609
0
LINE
8
0
10
-465.157540
20
980.183609
11
-464.637507
21
982.969991
0
LINE
8
0
10
-464.637507
20
982.969991
11
-463.655234
21
985.646715
0
LINE
8
0
10
-463.655234
20
985.646715
11
-462.217026
21
988.151772
0
LINE
8
0
10
-462.217026
20
988.151772
11
-460.329190
21
990.423150
0
LINE
8
0
10
-460.329190
20
990.423150
11
-434.791490
21
1015.943350
0
LINE
8
0
10
-434.791490
20
1015.943350
11
-434.283940
21
1016.561973
0
LINE
8
0
10
-434.283940
20
1016.561973
11
-433.910461
21
1017.261151
0
LINE
8
0
10
-433.910461
20
1017.261151
11
-433.679890
21
1018.019553
0
LINE
8
0
10
-433.679890
20
1018.019553
11
-433.601070
21
1018.815850
0
LINE
8
0
10
-433.601070
20
1018.815850
11
-433.679890
21
1019.612147
0
LINE
8
0
10
-433.679890
20
1019.612147
11
-433.910461
21
1020.370549
0
LINE
8
0
10
-433.910461
20
1020.370549
11
-434.283940
21
1021.069727
0
LINE
8
0
10
-434.283940
20
1021.069727
11
-434.791490
21
1021.688350
0
LINE
8
0
10
-434.791490
20
1021.688350
11
-460.329190
21
1047.208550
0
LINE
8
0
10
-460.329190
20
1047.208550
11
-462.217026
21
1049.479928
0
LINE
8
0
10
-462.217026
20
1049.479928
11
-463.655234
21
1051.984985
0
LINE
8
0
10
-463.655234
20
1051.984985
11
-464.637507
21
1054.661709
0
LINE
8
0
10
-464.637507
20
1054.661709
11
-465.157540
21
1057.448091
0
LINE
8
0
10
-465.157540
20
1057.448091
11
-465.209028
21
1060.282117
0
LINE
8
0
10
-465.209028
20
1060.282117
11
-464.785665
21
1063.101776
0
LINE
8
0
10
-464.785665
20
1063.101776
11
-463.881144
21
1065.845058
0
LINE
8
0
10
-463.881144
20
1065.845058
11
-462.489160
21
1068.449950
0
LINE
8
0
10
-462.489160
20
1068.449950
11
-462.489000
21
1068.450000
0
LINE
8
0
10
-375.018000
20
1045.560000
11
-374.436473
21
1045.956257
0
LINE
8
0
10
-374.436473
20
1045.956257
11
-374.040240
21
1046.537800
0
LINE
8
0
10
-374.040240
20
1046.537800
11
-373.580739
21
1047.392314
0
LINE
8
0
10
-373.580739
20
1047.392314
11
-372.999477
21
1048.144723
0
LINE
8
0
10
-372.999477
20
1048.144723
11
-372.312789
21
1048.785857
0
LINE
8
0
10
-372.312789
20
1048.785857
11
-371.537010
21
1049.306547
0
LINE
8
0
10
-371.537010
20
1049.306547
11
-370.688475
21
1049.697623
0
LINE
8
0
10
-370.688475
20
1049.697623
11
-369.783521
21
1049.949916
0
LINE
8
0
10
-369.783521
20
1049.949916
11
-368.838482
21
1050.054256
0
LINE
8
0
10
-368.838482
20
1050.054256
11
-367.869695
21
1050.001474
0
LINE
8
0
10
-367.869695
20
1050.001474
11
-366.922744
21
1049.790238
0
LINE
8
0
10
-366.922744
20
1049.790238
11
-366.041158
21
1049.434162
0
LINE
8
0
10
-366.041158
20
1049.434162
11
-365.238182
21
1048.946491
0
LINE
8
0
10
-365.238182
20
1048.946491
11
-364.527062
21
1048.340471
0
LINE
8
0
10
-364.527062
20
1048.340471
11
-363.921045
21
1047.629349
0
LINE
8
0
10
-363.921045
20
1047.629349
11
-363.433377
21
1046.826371
0
LINE
8
0
10
-363.433377
20
1046.826371
11
-363.077304
21
1045.944783
0
LINE
8
0
10
-363.077304
20
1045.944783
11
-362.866072
21
1044.997832
0
LINE
8
0
10
-362.866072
20
1044.997832
11
-362.813294
21
1044.029044
0
LINE
8
0
10
-362.813294
20
1044.029044
11
-362.917638
21
1043.084006
0
LINE
8
0
10
-362.917638
20
1043.084006
11
-363.169934
21
1042.179053
0
LINE
8
0
10
-363.169934
20
1042.179053
11
-363.561013
21
1041.330520
0
LINE
8
0
10
-363.561013
20
1041.330520
11
-364.081706
21
1040.554743
0
LINE
8
0
10
-364.081706
20
1040.554743
11
-364.722843
21
1039.868057
0
LINE
8
0
10
-364.722843
20
1039.868057
11
-365.475254
21
1039.286797
0
LINE
8
0
10
-365.475254
20
1039.286797
11
-366.329770
21
1038.827300
0
LINE
8
0
10
-366.329770
20
1038.827300
11
-366.911297
21
1038.431043
0
LINE
8
0
10
-366.911297
20
1038.431043
11
-367.307530
21
1037.849500
0
LINE
8
0
10
-367.307530
20
1037.849500
11
-367.767031
21
1036.994986
0
LINE
8
0
10
-367.767031
20
1036.994986
11
-368.348293
21
1036.242577
0
LINE
8
0
10
-368.348293
20
1036.242577
11
-369.034981
21
1035.601443
0
LINE
8
0
10
-369.034981
20
1035.601443
11
-369.810760
21
1035.080753
0
LINE
8
0
10
-369.810760
20
1035.080753
11
-370.659295
21
1034.689677
0
LINE
8
0
10
-370.659295
20
1034.689677
11
-371.564249
21
1034.437384
0
LINE
8
0
10
-371.564249
20
1034.437384
11
-372.509288
21
1034.333044
0
LINE
8
0
10
-372.509288
20
1034.333044
11
-373.478075
21
1034.385826
0
LINE
8
0
10
-373.478075
20
1034.385826
11
-374.425026
21
1034.597062
0
LINE
8
0
10
-374.425026
20
1034.597062
11
-375.306612
21
1034.953138
0
LINE
8
0
10
-375.306612
20
1034.953138
11
-376.109588
21
1035.440809
0
LINE
8
0
10
-376.109588
20
1035.440809
11
-376.820708
21
1036.046829
0
LINE
8
0
10
-376.820708
20
1036.046829
11
-377.426725
21
1036.757951
0
LINE
8
0
10
-377.426725
20
1036.757951
11
-377.914393
21
1037.560929
0
LINE
8
0
10
-377.914393
20
1037.560929
11
-378.270466
21
1038.442517
0
LINE
8
0
10
-378.270466
20
1038.442517
11
-378.481698
21
1039.389468
0
LINE
8
0
10
-378.481698
20
1039.389468
11
-378.534476
21
1040.358256
0
LINE
8
0
10
-378.534476
20
1040.358256
11
-378.430132
21
1041.303294
0
LINE
8
0
10
-378.430132
20
1041.303294
11
-378.177836
21
1042.208247
0
LINE
8
0
10
-378.177836
20
1042.208247
11
-377.786757
21
1043.056780
0
LINE
8
0
10
-377.786757
20
1043.056780
11
-377.266064
21
1043.832557
0
LINE
8
0
10
-377.266064
20
1043.832557
11
-376.624927
21
1044.519243
0
LINE
8
0
10
-376.624927
20
1044.519243
11
-375.872516
21
1045.100503
0
LINE
8
0
10
-375.872516
20
1045.100503
11
-375.018000
21
1045.560000
0
LINE
8
0
10
-375.018000
20
1045.560000
11
-375.018000
21
1045.560000
0
LINE
8
0
10
-413.099000
20
1045.560000
11
-412.244484
21
1045.100503
0
LINE
8
0
10
-412.244484
20
1045.100503
11
-411.492073
21
1044.519243
0
LINE
8
0
10
-411.492073
20
1044.519243
11
-410.850936
21
1043.832557
0
LINE
8
0
10
-410.850936
20
1043.832557
11
-410.330243
21
1043.056780
0
LINE
8
0
10
-410.330243
20
1043.056780
11
-409.939164
21
1042.208247
0
LINE
8
0
10
-409.939164
20
1042.208247
11
-409.686868
21
1041.303294
0
LINE
8
0
10
-409.686868
20
1041.303294
11
-409.582524
21
1040.358256
0
LINE
8
0
10
-409.582524
20
1040.358256
11
-409.635302
21
1039.389468
0
LINE
8
0
10
-409.635302
20
1039.389468
11
-409.846534
21
1038.442517
0
LINE
8
0
10
-409.846534
20
1038.442517
11
-410.202607
21
1037.560929
0
LINE
8
0
10
-410.202607
20
1037.560929
11
-410.690275
21
1036.757951
0
LINE
8
0
10
-410.690275
20
1036.757951
11
-411.296292
21
1036.046829
0
LINE
8
0
10
-411.296292
20
1036.046829
11
-412.007412
21
1035.440809
0
LINE
8
0
10
-412.007412
20
1035.440809
11
-412.810388
21
1034.953138
0
LINE
8
0
10
-412.810388
20
1034.953138
11
-413.691974
21
1034.597062
0
LINE
8
0
10
-413.691974
20
1034.597062
11
-414.638925
21
1034.385826
0
LINE
8
0
10
-414.638925
20
1034.385826
11
-415.607712
21
1034.333044
0
LINE
8
0
10
-415.607712
20
1034.333044
11
-416.552751
21
1034.437384
0
LINE
8
0
10
-416.552751
20
1034.437384
11
-417.457705
21
1034.689677
0
LINE
8
0
10
-417.457705
20
1034.689677
11
-418.306240
21
1035.080753
0
LINE
8
0
10
-418.306240
20
1035.080753
11
-419.082019
21
1035.601443
0
LINE
8
0
10
-419.082019
20
1035.601443
11
-419.768707
21
1036.242577
0
LINE
8
0
10
-419.768707
20
1036.242577
11
-420.349969
21
1036.994986
0
LINE
8
0
10
-420.349969
20
1036.994986
11
-420.809470
21
1037.849500
0
LINE
8
0
10
-420.809470
20
1037.849500
11
-421.205703
21
1038.431043
0
LINE
8
0
10
-421.205703
20
1038.431043
11
-421.787230
21
1038.827300
0
LINE
8
0
10
-421.787230
20
1038.827300
11
-422.641744
21
1039.286799
0
LINE
8
0
10
-422.641744
20
1039.286799
11
-423.394154
21
1039.868059
0
LINE
8
0
10
-423.394154
20
1039.868059
11
-424.035288
21
1040.554746
0
LINE
8
0
10
-424.035288
20
1040.554746
11
-424.555979
21
1041.330523
0
LINE
8
0
10
-424.555979
20
1041.330523
11
-424.947057
21
1042.179056
0
LINE
8
0
10
-424.947057
20
1042.179056
11
-425.199351
21
1043.084009
0
LINE
8
0
10
-425.199351
20
1043.084009
11
-425.303694
21
1044.029047
0
LINE
8
0
10
-425.303694
20
1044.029047
11
-425.250914
21
1044.997834
0
LINE
8
0
10
-425.250914
20
1044.997834
11
-425.039682
21
1045.944784
0
LINE
8
0
10
-425.039682
20
1045.944784
11
-424.683608
21
1046.826370
0
LINE
8
0
10
-424.683608
20
1046.826370
11
-424.195940
21
1047.629347
0
LINE
8
0
10
-424.195940
20
1047.629347
11
-423.589923
21
1048.340468
0
LINE
8
0
10
-423.589923
20
1048.340468
11
-422.878804
21
1048.946487
0
LINE
8
0
10
-422.878804
20
1048.946487
11
-422.075828
21
1049.434157
0
LINE
8
0
10
-422.075828
20
1049.434157
11
-421.194242
21
1049.790233
0
LINE
8
0
10
-421.194242
20
1049.790233
11
-420.247293
21
1050.001468
0
LINE
8
0
10
-420.247293
20
1050.001468
11
-419.278506
21
1050.054250
0
LINE
8
0
10
-419.278506
20
1050.054250
11
-418.333468
21
1049.949910
0
LINE
8
0
10
-418.333468
20
1049.949910
11
-417.428514
21
1049.697618
0
LINE
8
0
10
-417.428514
20
1049.697618
11
-416.579980
21
1049.306543
0
LINE
8
0
10
-416.579980
20
1049.306543
11
-415.804202
21
1048.785854
0
LINE
8
0
10
-415.804202
20
1048.785854
11
-415.117514
21
1048.144721
0
LINE
8
0
10
-415.117514
20
1048.144721
11
-414.536251
21
1047.392313
0
LINE
8
0
10
-414.536251
20
1047.392313
11
-414.076750
21
1046.537800
0
LINE
8
0
10
-414.076750
20
1046.537800
11
-413.680522
21
1045.956258
0
LINE
8
0
10
-413.680522
20
1045.956258
11
-413.099000
21
1045.560000
0
LINE
8
0
10
-413.099000
20
1045.560000
11
-413.099000
21
1045.560000
0
LINE
8
0
10
-421.788000
20
998.796000
11
-421.206479
21
999.192239
0
LINE
8
0
10
-421.206479
20
999.192239
11
-420.810240
21
999.773760
0
LINE
8
0
10
-420.810240
20
999.773760
11
-420.350742
21
1000.628278
0
LINE
8
0
10
-420.350742
20
1000.628278
11
-419.769482
21
1001.380690
0
LINE
8
0
10
-419.769482
20
1001.380690
11
-419.082795
21
1002.021828
0
LINE
8
0
10
-419.082795
20
1002.021828
11
-418.307017
21
1002.542522
0
LINE
8
0
10
-418.307017
20
1002.542522
11
-417.458482
21
1002.933601
0
LINE
8
0
10
-417.458482
20
1002.933601
11
-416.553527
21
1003.185897
0
LINE
8
0
10
-416.553527
20
1003.185897
11
-415.608487
21
1003.290240
0
LINE
8
0
10
-415.608487
20
1003.290240
11
-414.639698
21
1003.237460
0
LINE
8
0
10
-414.639698
20
1003.237460
11
-413.692745
21
1003.026227
0
LINE
8
0
10
-413.692745
20
1003.026227
11
-412.811157
21
1002.670151
0
LINE
8
0
10
-412.811157
20
1002.670151
11
-412.008178
21
1002.182481
0
LINE
8
0
10
-412.008178
20
1002.182481
11
-411.297057
21
1001.576461
0
LINE
8
0
10
-411.297057
20
1001.576461
11
-410.691038
21
1000.865339
0
LINE
8
0
10
-410.691038
20
1000.865339
11
-410.203368
21
1000.062360
0
LINE
8
0
10
-410.203368
20
1000.062360
11
-409.847294
21
999.180771
0
LINE
8
0
10
-409.847294
20
999.180771
11
-409.636062
21
998.233818
0
LINE
8
0
10
-409.636062
20
998.233818
11
-409.583283
21
997.265028
0
LINE
8
0
10
-409.583283
20
997.265028
11
-409.687627
21
996.319988
0
LINE
8
0
10
-409.687627
20
996.319988
11
-409.939925
21
995.415034
0
LINE
8
0
10
-409.939925
20
995.415034
11
-410.331005
21
994.566500
0
LINE
8
0
10
-410.331005
20
994.566500
11
-410.851700
21
993.790722
0
LINE
8
0
10
-410.851700
20
993.790722
11
-411.492838
21
993.104036
0
LINE
8
0
10
-411.492838
20
993.104036
11
-412.245252
21
992.522777
0
LINE
8
0
10
-412.245252
20
992.522777
11
-413.099770
21
992.063280
0
LINE
8
0
10
-413.099770
20
992.063280
11
-413.681284
21
991.667044
0
LINE
8
0
10
-413.681284
20
991.667044
11
-414.077520
21
991.085530
0
LINE
8
0
10
-414.077520
20
991.085530
11
-414.537017
21
990.231012
0
LINE
8
0
10
-414.537017
20
990.231012
11
-415.118276
21
989.478598
0
LINE
8
0
10
-415.118276
20
989.478598
11
-415.804962
21
988.837460
0
LINE
8
0
10
-415.804962
20
988.837460
11
-416.580740
21
988.316765
0
LINE
8
0
10
-416.580740
20
988.316765
11
-417.429274
21
987.925685
0
LINE
8
0
10
-417.429274
20
987.925685
11
-418.334228
21
987.673387
0
LINE
8
0
10
-418.334228
20
987.673387
11
-419.279268
21
987.569043
0
LINE
8
0
10
-419.279268
20
987.569043
11
-420.248058
21
987.621822
0
LINE
8
0
10
-420.248058
20
987.621822
11
-421.195011
21
987.833054
0
LINE
8
0
10
-421.195011
20
987.833054
11
-422.076600
21
988.189128
0
LINE
8
0
10
-422.076600
20
988.189128
11
-422.879579
21
988.676798
0
LINE
8
0
10
-422.879579
20
988.676798
11
-423.590701
21
989.282817
0
LINE
8
0
10
-423.590701
20
989.282817
11
-424.196721
21
989.993938
0
LINE
8
0
10
-424.196721
20
989.993938
11
-424.684391
21
990.796917
0
LINE
8
0
10
-424.684391
20
990.796917
11
-425.040467
21
991.678505
0
LINE
8
0
10
-425.040467
20
991.678505
11
-425.251700
21
992.625458
0
LINE
8
0
10
-425.251700
20
992.625458
11
-425.304480
21
993.594247
0
LINE
8
0
10
-425.304480
20
993.594247
11
-425.200137
21
994.539287
0
LINE
8
0
10
-425.200137
20
994.539287
11
-424.947841
21
995.444242
0
LINE
8
0
10
-424.947841
20
995.444242
11
-424.556762
21
996.292777
0
LINE
8
0
10
-424.556762
20
996.292777
11
-424.036068
21
997.068555
0
LINE
8
0
10
-424.036068
20
997.068555
11
-423.394930
21
997.755242
0
LINE
8
0
10
-423.394930
20
997.755242
11
-422.642518
21
998.336502
0
LINE
8
0
10
-422.642518
20
998.336502
11
-421.788000
21
998.796000
0
LINE
8
0
10
-421.788000
20
998.796000
11
-421.788000
21
998.796000
0
LINE
8
0
10
-380.830000
20
1018.810000
11
-380.946347
21
1017.057785
0
LINE
8
0
10
-380.946347
20
1017.057785
11
-381.287933
21
1015.358503
0
LINE
8
0
10
-381.287933
20
1015.358503
11
-381.843627
21
1013.731432
0
LINE
8
0
10
-381.843627
20
1013.731432
11
-382.602300
21
1012.195850
0
LINE
8
0
10
-382.602300
20
1012.195850
11
-383.552823
21
1010.771034
0
LINE
8
0
10
-383.552823
20
1010.771034
11
-384.684067
21
1009.476261
0
LINE
8
0
10
-384.684067
20
1009.476261
11
-385.984902
21
1008.330809
0
LINE
8
0
10
-385.984902
20
1008.330809
11
-387.444200
21
1007.353956
0
LINE
8
0
10
-387.444200
20
1007.353956
11
-389.019828
21
1006.578594
0
LINE
8
0
10
-389.019828
20
1006.578594
11
-390.662236
21
1006.024764
0
LINE
8
0
10
-390.662236
20
1006.024764
11
-392.349163
21
1005.692466
0
LINE
8
0
10
-392.349163
20
1005.692466
11
-394.058350
21
1005.581700
0
LINE
8
0
10
-394.058350
20
1005.581700
11
-395.767537
21
1005.692466
0
LINE
8
0
10
-395.767537
20
1005.692466
11
-397.454464
21
1006.024764
0
LINE
8
0
10
-397.454464
20
1006.024764
11
-399.096872
21
1006.578594
0
LINE
8
0
10
-399.096872
20
1006.578594
11
-400.672500
21
1007.353956
0
LINE
8
0
10
-400.672500
20
1007.353956
11
-402.131797
21
1008.330809
0
LINE
8
0
10
-402.131797
20
1008.330809
11
-403.432632
21
1009.476261
0
LINE
8
0
10
-403.432632
20
1009.476261
11
-404.563874
21
1010.771034
0
LINE
8
0
10
-404.563874
20
1010.771034
11
-405.514394
21
1012.195850
0
LINE
8
0
10
-405.514394
20
1012.195850
11
-406.273061
21
1013.731432
0
LINE
8
0
10
-406.273061
20
1013.731432
11
-406.828746
21
1015.358503
0
LINE
8
0
10
-406.828746
20
1015.358503
11
-407.170319
21
1017.057785
0
LINE
8
0
10
-407.170319
20
1017.057785
11
-407.286650
21
1018.810000
0
LINE
8
0
10
-407.286650
20
1018.810000
11
-407.170311
21
1020.562215
0
LINE
8
0
10
-407.170311
20
1020.562215
11
-406.828732
21
1022.261497
0
LINE
8
0
10
-406.828732
20
1022.261497
11
-406.273042
21
1023.888568
0
LINE
8
0
10
-406.273042
20
1023.888568
11
-405.514372
21
1025.424150
0
LINE
8
0
10
-405.514372
20
1025.424150
11
-404.563851
21
1026.848966
0
LINE
8
0
10
-404.563851
20
1026.848966
11
-403.432608
21
1028.143739
0
LINE
8
0
10
-403.432608
20
1028.143739
11
-402.131772
21
1029.289191
0
LINE
8
0
10
-402.131772
20
1029.289191
11
-400.672475
21
1030.266044
0
LINE
8
0
10
-400.672475
20
1030.266044
11
-399.096847
21
1031.041406
0
LINE
8
0
10
-399.096847
20
1031.041406
11
-397.454439
21
1031.595236
0
LINE
8
0
10
-397.454439
20
1031.595236
11
-395.767512
21
1031.927534
0
LINE
8
0
10
-395.767512
20
1031.927534
11
-394.058325
21
1032.038300
0
LINE
8
0
10
-394.058325
20
1032.038300
11
-392.349138
21
1031.927534
0
LINE
8
0
10
-392.349138
20
1031.927534
11
-390.662211
21
1031.595236
0
LINE
8
0
10
-390.662211
20
1031.595236
11
-389.019803
21
1031.041406
0
LINE
8
0
10
-389.019803
20
1031.041406
11
-387.444175
21
1030.266044
0
LINE
8
0
10
-387.444175
20
1030.266044
11
-385.984878
21
1029.289191
0
LINE
8
0
10
-385.984878
20
1029.289191
11
-384.684043
21
1028.143739
0
LINE
8
0
10
-384.684043
20
1028.143739
11
-383.552801
21
1026.848966
0
LINE
8
0
10
-383.552801
20
1026.848966
11
-382.602281
21
1025.424150
0
LINE
8
0
10
-382.602281
20
1025.424150
11
-381.843614
21
1023.888568
0
LINE
8
0
10
-381.843614
20
1023.888568
11
-381.287929
21
1022.261497
0
LINE
8
0
10
-381.287929
20
1022.261497
11
-380.946356
21
1020.562215
0
LINE
8
0
10
-380.946356
20
1020.562215
11
-380.830025
21
1018.810000
0
LINE
8
0
10
-380.830025
20
1018.810000
11
-380.830000
21
1018.810000
0
LINE
8
0
10
-367.308000
20
999.773000
11
-366.911761
21
999.191479
0
LINE
8
0
10
-366.911761
20
999.191479
11
-366.330240
21
998.795240
0
LINE
8
0
10
-366.330240
20
998.795240
11
-365.475720
21
998.335744
0
LINE
8
0
10
-365.475720
20
998.335744
11
-364.723306
21
997.754485
0
LINE
8
0
10
-364.723306
20
997.754485
11
-364.082166
21
997.067798
0
LINE
8
0
10
-364.082166
20
997.067798
11
-363.561471
21
996.292020
0
LINE
8
0
10
-363.561471
20
996.292020
11
-363.170390
21
995.443486
0
LINE
8
0
10
-363.170390
20
995.443486
11
-362.918092
21
994.538530
0
LINE
8
0
10
-362.918092
20
994.538530
11
-362.813748
21
993.593490
0
LINE
8
0
10
-362.813748
20
993.593490
11
-362.866526
21
992.624699
0
LINE
8
0
10
-362.866526
20
992.624699
11
-363.077759
21
991.677746
0
LINE
8
0
10
-363.077759
20
991.677746
11
-363.433834
21
990.796156
0
LINE
8
0
10
-363.433834
20
990.796156
11
-363.921504
21
989.993177
0
LINE
8
0
10
-363.921504
20
989.993177
11
-364.527524
21
989.282054
0
LINE
8
0
10
-364.527524
20
989.282054
11
-365.238647
21
988.676034
0
LINE
8
0
10
-365.238647
20
988.676034
11
-366.041626
21
988.188364
0
LINE
8
0
10
-366.041626
20
988.188364
11
-366.923216
21
987.832289
0
LINE
8
0
10
-366.923216
20
987.832289
11
-367.870169
21
987.621056
0
LINE
8
0
10
-367.870169
20
987.621056
11
-368.838960
21
987.568278
0
LINE
8
0
10
-368.838960
20
987.568278
11
-369.784000
21
987.672622
0
LINE
8
0
10
-369.784000
20
987.672622
11
-370.688956
21
987.924920
0
LINE
8
0
10
-370.688956
20
987.924920
11
-371.537490
21
988.316001
0
LINE
8
0
10
-371.537490
20
988.316001
11
-372.313268
21
988.836696
0
LINE
8
0
10
-372.313268
20
988.836696
11
-372.999955
21
989.477836
0
LINE
8
0
10
-372.999955
20
989.477836
11
-373.581214
21
990.230250
0
LINE
8
0
10
-373.581214
20
990.230250
11
-374.040710
21
991.084770
0
LINE
8
0
10
-374.040710
20
991.084770
11
-374.436950
21
991.666286
0
LINE
8
0
10
-374.436950
20
991.666286
11
-375.018470
21
992.062520
0
LINE
8
0
10
-375.018470
20
992.062520
11
-375.872988
21
992.522017
0
LINE
8
0
10
-375.872988
20
992.522017
11
-376.625402
21
993.103276
0
LINE
8
0
10
-376.625402
20
993.103276
11
-377.266540
21
993.789962
0
LINE
8
0
10
-377.266540
20
993.789962
11
-377.787235
21
994.565740
0
LINE
8
0
10
-377.787235
20
994.565740
11
-378.178315
21
995.414274
0
LINE
8
0
10
-378.178315
20
995.414274
11
-378.430613
21
996.319228
0
LINE
8
0
10
-378.430613
20
996.319228
11
-378.534957
21
997.264268
0
LINE
8
0
10
-378.534957
20
997.264268
11
-378.482178
21
998.233058
0
LINE
8
0
10
-378.482178
20
998.233058
11
-378.270946
21
999.180011
0
LINE
8
0
10
-378.270946
20
999.180011
11
-377.914872
21
1000.061600
0
LINE
8
0
10
-377.914872
20
1000.061600
11
-377.427202
21
1000.864579
0
LINE
8
0
10
-377.427202
20
1000.864579
11
-376.821183
21
1001.575701
0
LINE
8
0
10
-376.821183
20
1001.575701
11
-376.110062
21
1002.181721
0
LINE
8
0
10
-376.110062
20
1002.181721
11
-375.307083
21
1002.669391
0
LINE
8
0
10
-375.307083
20
1002.669391
11
-374.425495
21
1003.025467
0
LINE
8
0
10
-374.425495
20
1003.025467
11
-373.478542
21
1003.236700
0
LINE
8
0
10
-373.478542
20
1003.236700
11
-372.509753
21
1003.289480
0
LINE
8
0
10
-372.509753
20
1003.289480
11
-371.564713
21
1003.185137
0
LINE
8
0
10
-371.564713
20
1003.185137
11
-370.659758
21
1002.932841
0
LINE
8
0
10
-370.659758
20
1002.932841
11
-369.811223
21
1002.541762
0
LINE
8
0
10
-369.811223
20
1002.541762
11
-369.035445
21
1002.021068
0
LINE
8
0
10
-369.035445
20
1002.021068
11
-368.348758
21
1001.379930
0
LINE
8
0
10
-368.348758
20
1001.379930
11
-367.767498
21
1000.627518
0
LINE
8
0
10
-367.767498
20
1000.627518
11
-367.308000
21
999.773000
0
LINE
8
0
10
-367.308000
20
999.773000
11
-367.308000
21
999.773000
0
LINE
8
0
10
-42.043200
20
1018.810000
11
-42.236174
21
1017.355436
0
LINE
8
0
10
-42.236174
20
1017.355436
11
-42.790082
21
1016.022600
0
LINE
8
0
10
-42.790082
20
1016.022600
11
-43.667398
21
1014.876484
0
LINE
8
0
10
-43.667398
20
1014.876484
11
-44.830600
21
1013.982082
0
LINE
8
0
10
-44.830600
20
1013.982082
11
-46.186776
21
1013.421920
0
LINE
8
0
10
-46.186776
20
1013.421920
11
-47.618000
21
1013.235200
0
LINE
8
0
10
-47.618000
20
1013.235200
11
-49.049224
21
1013.421920
0
LINE
8
0
10
-49.049224
20
1013.421920
11
-50.405400
21
1013.982082
0
LINE
8
0
10
-50.405400
20
1013.982082
11
-51.568602
21
1014.876484
0
LINE
8
0
10
-51.568602
20
1014.876484
11
-52.445918
21
1016.022600
0
LINE
8
0
10
-52.445918
20
1016.022600
11
-52.999826
21
1017.355436
0
LINE
8
0
10
-52.999826
20
1017.355436
11
-53.192800
21
1018.810000
0
LINE
8
0
10
-53.192800
20
1018.810000
11
-52.999826
21
1020.264564
0
LINE
8
0
10
-52.999826
20
1020.264564
11
-52.445918
21
1021.597400
0
LINE
8
0
10
-52.445918
20
1021.597400
11
-51.568602
21
1022.743516
0
LINE
8
0
10
-51.568602
20
1022.743516
11
-50.405400
21
1023.637919
0
LINE
8
0
10
-50.405400
20
1023.637919
11
-49.049224
21
1024.198080
0
LINE
8
0
10
-49.049224
20
1024.198080
11
-47.618000
21
1024.384800
0
LINE
8
0
10
-47.618000
20
1024.384800
11
-46.186776
21
1024.198080
0
LINE
8
0
10
-46.186776
20
1024.198080
11
-44.830600
21
1023.637919
0
LINE
8
0
10
-44.830600
20
1023.637919
11
-43.667398
21
1022.743516
0
LINE
8
0
10
-43.667398
20
1022.743516
11
-42.790082
21
1021.597400
0
LINE
8
0
10
-42.790082
20
1021.597400
11
-42.236174
21
1020.264564
0
LINE
8
0
10
-42.236174
20
1020.264564
11
-42.043200
21
1018.810000
0
LINE
8
0
10
-42.043200
20
1018.810000
11
-42.043200
21
1018.810000
0
LINE
8
0
10
-100.909000
20
1024.290000
11
-102.011177
21
1024.176080
0
LINE
8
0
10
-102.011177
20
1024.176080
11
-103.037431
21
1023.855076
0
LINE
8
0
10
-103.037431
20
1023.855076
11
-103.965869
21
1023.348943
0
LINE
8
0
10
-103.965869
20
1023.348943
11
-104.774597
21
1022.679633
0
LINE
8
0
10
-104.774597
20
1022.679633
11
-105.441719
21
1021.869101
0
LINE
8
0
10
-105.441719
20
1021.869101
11
-105.945342
21
1020.939298
0
LINE
8
0
10
-105.945342
20
1020.939298
11
-106.263572
21
1019.912180
0
LINE
8
0
10
-106.263572
20
1019.912180
11
-106.374514
21
1018.809700
0
LINE
8
0
10
-106.374514
20
1018.809700
11
-106.263572
21
1017.707220
0
LINE
8
0
10
-106.263572
20
1017.707220
11
-105.945342
21
1016.680102
0
LINE
8
0
10
-105.945342
20
1016.680102
11
-105.441719
21
1015.750299
0
LINE
8
0
10
-105.441719
20
1015.750299
11
-104.774597
21
1014.939767
0
LINE
8
0
10
-104.774597
20
1014.939767
11
-103.965869
21
1014.270457
0
LINE
8
0
10
-103.965869
20
1014.270457
11
-103.037431
21
1013.764324
0
LINE
8
0
10
-103.037431
20
1013.764324
11
-102.011177
21
1013.443320
0
LINE
8
0
10
-102.011177
20
1013.443320
11
-100.909000
21
1013.329400
0
LINE
8
0
10
-100.909000
20
1013.329400
11
-73.696400
21
1013.329400
0
LINE
8
0
10
-73.696400
20
1013.329400
11
-72.594223
21
1013.443320
0
LINE
8
0
10
-72.594223
20
1013.443320
11
-71.567969
21
1013.764324
0
LINE
8
0
10
-71.567969
20
1013.764324
11
-70.639531
21
1014.270457
0
LINE
8
0
10
-70.639531
20
1014.270457
11
-69.830803
21
1014.939767
0
LINE
8
0
10
-69.830803
20
1014.939767
11
-69.163681
21
1015.750299
0
LINE
8
0
10
-69.163681
20
1015.750299
11
-68.660058
21
1016.680102
0
LINE
8
0
10
-68.660058
20
1016.680102
11
-68.341828
21
1017.707220
0
LINE
8
0
10
-68.341828
20
1017.707220
11
-68.230886
21
1018.809700
0
LINE
8
0
10
-68.230886
20
1018.809700
11
-68.341828
21
1019.912180
0
LINE
8
0
10
-68.341828
20
1019.912180
11
-68.660058
21
1020.939298
0
LINE
8
0
10
-68.660058
20
1020.939298
11
-69.163681
21
1021.869101
0
LINE
8
0
10
-69.163681
20
1021.869101
11
-69.830803
21
1022.679633
0
LINE
8
0
10
-69.830803
20
1022.679633
11
-70.639531
21
1023.348943
0
LINE
8
0
10
-70.639531
20
1023.348943
11
-71.567969
21
1023.855076
0
LINE
8
0
10
-71.567969
20
1023.855076
11
-72.594223
21
1024.176080
0
LINE
8
0
10
-72.594223
20
1024.176080
11
-73.696400
21
1024.290000
0
LINE
8
0
10
-73.696400
20
1024.290000
11
-100.909000
21
1024.290000
0
LINE
8
0
10
-121.413000
20
1018.810000
11
-121.605974
21
1017.355436
0
LINE
8
0
10
-121.605974
20
1017.355436
11
-122.159882
21
1016.022600
0
LINE
8
0
10
-122.159882
20
1016.022600
11
-123.037198
21
1014.876484
0
LINE
8
0
10
-123.037198
20
1014.876484
11
-124.200400
21
1013.982082
0
LINE
8
0
10
-124.200400
20
1013.982082
11
-125.556576
21
1013.421920
0
LINE
8
0
10
-125.556576
20
1013.421920
11
-126.987800
21
1013.235200
0
LINE
8
0
10
-126.987800
20
1013.235200
11
-128.419024
21
1013.421920
0
LINE
8
0
10
-128.419024
20
1013.421920
11
-129.775200
21
1013.982082
0
LINE
8
0
10
-129.775200
20
1013.982082
11
-130.938402
21
1014.876484
0
LINE
8
0
10
-130.938402
20
1014.876484
11
-131.815718
21
1016.022600
0
LINE
8
0
10
-131.815718
20
1016.022600
11
-132.369626
21
1017.355436
0
LINE
8
0
10
-132.369626
20
1017.355436
11
-132.562600
21
1018.810000
0
LINE
8
0
10
-132.562600
20
1018.810000
11
-132.369626
21
1020.264564
0
LINE
8
0
10
-132.369626
20
1020.264564
11
-131.815719
21
1021.597400
0
LINE
8
0
10
-131.815719
20
1021.597400
11
-130.938402
21
1022.743516
0
LINE
8
0
10
-130.938402
20
1022.743516
11
-129.775200
21
1023.637919
0
LINE
8
0
10
-129.775200
20
1023.637919
11
-128.419024
21
1024.198080
0
LINE
8
0
10
-128.419024
20
1024.198080
11
-126.987800
21
1024.384800
0
LINE
8
0
10
-126.987800
20
1024.384800
11
-125.556576
21
1024.198080
0
LINE
8
0
10
-125.556576
20
1024.198080
11
-124.200400
21
1023.637919
0
LINE
8
0
10
-124.200400
20
1023.637919
11
-123.037198
21
1022.743516
0
LINE
8
0
10
-123.037198
20
1022.743516
11
-122.159881
21
1021.597400
0
LINE
8
0
10
-122.159881
20
1021.597400
11
-121.605974
21
1020.264564
0
LINE
8
0
10
-121.605974
20
1020.264564
11
-121.413000
21
1018.810000
0
LINE
8
0
10
-121.413000
20
1018.810000
11
-121.413000
21
1018.810000
 0 
ENDSEC
 0 
EOF