<?xml version="1.0" encoding="UTF-8" standalone="no"?>
<svg
   xmlns:dc="http://purl.org/dc/elements/1.1/"
   xmlns:cc="http://creativecommons.org/ns#"
   xmlns:rdf="http://www.w3.org/1999/02/22-rdf-syntax-ns#"
   xmlns:svg="http://www.w3.org/2000/svg"
   xmlns="http://www.w3.org/2000/svg"
   xmlns:sodipodi="http://sodipodi.sourceforge.net/DTD/sodipodi-0.dtd"
   xmlns:inkscape="http://www.inkscape.org/namespaces/inkscape"
   sodipodi:docname="top.svg"
   inkscape:version="1.0 (4035a4fb49, 2020-05-01)"
   width="200mm"
   height="300mm"
   viewBox="0 0 200 300"
   version="1.1"
   id="svg8">
  <defs
     id="defs2">
    <marker
       id="DistanceX"
       orient="auto"
       refX="0"
       refY="0"
       style="overflow:visible">
      <path
         d="M 3,-3 -3,3 M 0,-5 V 5"
         style="stroke:#000000;stroke-width:0.5"
         id="path28" />
    </marker>
    <pattern
       id="Hatch"
       patternUnits="userSpaceOnUse"
       width="8"
       height="8"
       x="0"
       y="0">
      <path
         d="M8 4 l-4,4"
         stroke="#000000"
         stroke-width="0.25"
         linecap="square"
         id="path31" />
      <path
         d="M6 2 l-4,4"
         stroke="#000000"
         stroke-width="0.25"
         linecap="square"
         id="path33" />
      <path
         d="M4 0 l-4,4"
         stroke="#000000"
         stroke-width="0.25"
         linecap="square"
         id="path35" />
    </pattern>
    <symbol
       id="*MODEL_SPACE" />
    <symbol
       id="*PAPER_SPACE" />
    <marker
       id="DistanceX-3"
       orient="auto"
       refX="0.0"
       refY="0.0"
       style="overflow:visible">
      <path
         d="M 3,-3 L -3,3 M 0,-5 L  0,5"
         style="stroke:#000000; stroke-width:0.5"
         id="path301" />
    </marker>
    <pattern
       id="Hatch-6"
       patternUnits="userSpaceOnUse"
       width="8"
       height="8"
       x="0"
       y="0">
      <path
         d="M8 4 l-4,4"
         stroke="#000000"
         stroke-width="0.25"
         linecap="square"
         id="path304" />
      <path
         d="M6 2 l-4,4"
         stroke="#000000"
         stroke-width="0.25"
         linecap="square"
         id="path306" />
      <path
         d="M4 0 l-4,4"
         stroke="#000000"
         stroke-width="0.25"
         linecap="square"
         id="path308" />
    </pattern>
    <symbol
       id="*MODEL_SPACE-7" />
    <symbol
       id="*PAPER_SPACE-5" />
    <marker
       id="CheckToolsAndOPMarker"
       orient="auto"
       refX="-4"
       refY="-1.687441"
       style="overflow:visible">
      <path
         d="m 4.588864,-1.687441 0.0,0.0 L 9.177728,0.0 c -0.73311,-0.996261 -0.728882,-2.359329 0.0,-3.374882"
         style="fill:#000044;fill-rule:evenodd;stroke:none"
         id="path398" />
    </marker>
    <marker
       id="DrawCurveMarker"
       orient="auto"
       refX="-4"
       refY="-1.687441"
       style="overflow:visible">
      <path
         d="m 4.588864,-1.687441 0.0,0.0 L 9.177728,0.0 c -0.73311,-0.996261 -0.728882,-2.359329 0.0,-3.374882"
         style="fill:#000044;fill-rule:evenodd;stroke:none"
         id="path401" />
    </marker>
    <marker
       id="DrawCurveMarker_r"
       orient="auto"
       refX="4"
       refY="-1.687441"
       style="overflow:visible">
      <path
         d="m -4.588864,-1.687441 0.0,0.0 L -9.177728,0.0 c 0.73311,-0.996261 0.728882,-2.359329 0.0,-3.374882"
         style="fill:#000044;fill-rule:evenodd;stroke:none"
         id="path404" />
    </marker>
    <marker
       id="InOutPathMarker"
       orient="auto"
       refX="-4"
       refY="-1.687441"
       style="overflow:visible">
      <path
         d="m 4.588864,-1.687441 0.0,0.0 L 9.177728,0.0 c -0.73311,-0.996261 -0.728882,-2.359329 0.0,-3.374882"
         style="fill:#0072a7;fill-rule:evenodd;stroke:none"
         id="path407" />
    </marker>
  </defs>
  <sodipodi:namedview
     inkscape:window-maximized="1"
     inkscape:window-y="27"
     inkscape:window-x="0"
     inkscape:window-height="1016"
     inkscape:window-width="1920"
     showgrid="false"
     inkscape:document-rotation="0"
     inkscape:current-layer="layer1"
     inkscape:document-units="mm"
     inkscape:cy="679.28403"
     inkscape:cx="400"
     inkscape:zoom="0.33533409"
     inkscape:pageshadow="2"
     inkscape:pageopacity="0.0"
     borderopacity="1.0"
     bordercolor="#666666"
     pagecolor="#ffffff"
     id="base" />
  <metadata
     id="metadata5">
    <rdf:RDF>
      <cc:Work
         rdf:about="">
        <dc:format>image/svg+xml</dc:format>
        <dc:type
           rdf:resource="http://purl.org/dc/dcmitype/StillImage" />
        <dc:title></dc:title>
      </cc:Work>
    </rdf:RDF>
  </metadata>
  <g
     id="layer1"
     inkscape:groupmode="layer"
     inkscape:label="Layer 1">
    <g
       transform="matrix(0.264583 0 0 0.264583 109.421 -198.97)"
       inkscape:label="0"
       id="g190">
      <path
         d="m -47.852525,1095.0852 -3.811988,13.7822"
         style="fill:none;stroke:#000000"
         id="path42" />
      <path
         d="m -29.721697,1137.3269 a 3.779528,3.779528 0 0 1 -5.645413,-2.1986 l -3.206742,-11.6017 a 3.779528,3.779528 0 0 1 0,-2.0138 l 3.206742,-11.6018 a 3.779528,3.779528 0 0 1 5.645413,-2.1985 l 18.571355,11.6017 a 3.779528,3.779528 0 0 1 0,6.4109 z"
         style="fill:none;stroke:#000000"
         id="path44" />
      <path
         d="m -51.664513,1136.172 3.811988,13.7821"
         style="fill:none;stroke:#000000"
         id="path46" />
      <path
         d="m -47.852525,1095.0852 a 3.401575,3.401575 0 0 0 -3.329765,-4.308"
         style="fill:none;stroke:#000000"
         id="path48" />
      <path
         d="m -51.18229,1090.7772 a 332.21793,32.125984 -180 0 0 -26.024046,0.4961"
         style="fill:none;stroke:#000000"
         id="path50" />
      <path
         d="m -72.639562,1119.3142 a 3.779528,3.779528 0 0 1 0,6.4109 l -24.377913,15.2292 a 3.779528,3.779528 0 0 1 -5.636245,-2.1659 l -4.35667,-15.2292 a 3.779528,3.779528 0 0 1 0,-2.079 l 4.35667,-15.2292 a 3.779528,3.779528 0 0 1 5.636245,-2.1659 z"
         style="fill:none;stroke:#000000"
         id="path52" />
      <path
         d="m -79.370079,1067.7165 a 3.779528,3.779528 0 0 1 0,-7.559 H 60.850394 a 3.779528,3.779528 0 0 1 0,7.559 z"
         style="fill:none;stroke:#000000"
         id="path54" />
      <path
         d="m -78.929993,1147.4805 21.620243,-13.5064"
         style="fill:none;stroke:#000000"
         id="path56" />
      <path
         d="m -51.18229,1154.2621 a 3.401575,3.401575 0 0 0 3.329765,-4.308"
         style="fill:none;stroke:#000000"
         id="path58" />
      <path
         d="m -57.30975,1111.0653 a 3.779528,3.779528 0 0 0 5.645237,-2.1979"
         style="fill:none;stroke:#000000"
         id="path60" />
      <path
         d="m -79.370079,1184.8819 a 3.77955,3.77955 0 0 1 0,-7.5591 H 60.850394 a 3.77955,3.77955 0 0 1 0,7.5591 z"
         style="fill:none;stroke:#000000"
         id="path62" />
      <path
         d="m -77.206336,1153.7661 a 332.21793,32.125984 -180 0 0 26.024046,0.496"
         style="fill:none;stroke:#000000"
         id="path64" />
      <path
         d="m -77.206336,1091.2733 a 3.401575,3.401575 0 0 0 -1.723657,6.2855"
         style="fill:none;stroke:#000000"
         id="path66" />
      <path
         d="m -51.664513,1136.172 a 3.779528,3.779528 0 0 0 -5.645237,-2.1979"
         style="fill:none;stroke:#000000"
         id="path68" />
      <path
         d="m -78.929993,1147.4805 a 3.401575,3.401575 0 0 0 1.723657,6.2856"
         style="fill:none;stroke:#000000"
         id="path70" />
      <path
         d="m 103.20066,1184.8819 a 3.77955,3.77955 0 0 1 0,-7.5591 h 106.20472 a 3.77955,3.77955 0 0 1 0,7.5591 z"
         style="fill:none;stroke:#000000"
         id="path72" />
      <path
         d="m -57.30975,1111.0653 -21.620243,-13.5065"
         style="fill:none;stroke:#000000"
         id="path74" />
      <path
         d="m 97.017475,1140.9543 -24.377913,-15.2292 a 3.779528,3.779528 0 0 1 0,-6.4109 l 24.377913,-15.2291 a 3.779528,3.779528 0 0 1 5.636245,2.1659 l 4.35667,15.2292 a 3.779528,3.779528 0 0 1 0,2.079 l -4.35667,15.2292 a 3.779528,3.779528 0 0 1 -5.636245,2.1659 z"
         style="fill:none;stroke:#000000"
         id="path76" />
      <path
         d="m 78.929993,1147.4805 a 3.401575,3.401575 0 0 1 -1.723657,6.2856 l -26.024082,0.496 a 3.401575,3.401575 0 0 1 -3.329729,-4.308 l 3.811988,-13.7821 a 3.779528,3.779528 0 0 1 5.645237,-2.1979 z"
         style="fill:none;stroke:#000000"
         id="path78" />
      <path
         d="m -18.780026,1096.7222 16.777545,10.4811 a 3.779528,3.779528 0 0 0 4.004962,0 l 16.777545,-10.4811 a 3.401575,3.401575 0 0 0 -1.785349,-6.2864 h -33.989319 a 3.401575,3.401575 0 0 0 -1.785384,6.2864 z"
         style="fill:none;stroke:#000000"
         id="path80" />
      <path
         d="m 38.573852,1123.5266 -3.206742,11.6017 a 3.779528,3.779528 0 0 1 -5.645413,2.1986 l -18.571355,-11.6018 a 3.779528,3.779528 0 0 1 0,-6.4109 l 18.571355,-11.6017 a 3.779528,3.779528 0 0 1 5.645413,2.1985 l 3.206742,11.6018 a 3.779528,3.779528 0 0 1 0,2.0138 z"
         style="fill:none;stroke:#000000"
         id="path82" />
      <path
         d="m -16.994642,1154.6036 a 3.401575,3.401575 0 0 1 -1.785384,-6.2864 l 16.777545,-10.4812 a 3.779528,3.779528 0 0 1 4.004962,0 l 16.777545,10.4812 a 3.401575,3.401575 0 0 1 -1.785384,6.2864 z"
         style="fill:none;stroke:#000000"
         id="path84" />
      <path
         d="m 47.852525,1095.0852 3.811988,13.7822 a 3.779528,3.779528 0 0 0 5.645237,2.1979 l 21.620243,-13.5065 a 3.401575,3.401575 0 0 0 -1.723623,-6.2855 l -26.02408,-0.4961 a 3.401575,3.401575 0 0 0 -3.329765,4.308 z"
         style="fill:none;stroke:#000000"
         id="path86" />
      <path
         d="m -182.07874,1061.1024 v 7.559 a 1.889765,1.889765 0 0 0 3.77953,0 h 15.11811 a 1.889765,1.889765 0 0 0 3.77953,0 v -7.559 a 1.889765,1.889765 0 0 0 -3.77953,0 h -15.11811 a 1.889765,1.889765 0 0 0 -3.77953,0 z"
         style="fill:none;stroke:#000000"
         id="path88" />
      <path
         d="m -182.07874,1183.937 a 1.889765,1.889765 0 0 0 3.77953,0 h 15.11811 a 1.889765,1.889765 0 0 0 3.77953,0 v -7.559 a 1.889765,1.889765 0 0 0 -3.77953,0 h -15.11811 a 1.889765,1.889765 0 0 0 -3.77953,0 z"
         style="fill:none;stroke:#000000"
         id="path90" />
      <path
         d="m -145.07234,1104.8304 a 3.779528,3.779528 0 0 1 1.41537,-6.9391 l 24.66114,-3.878 a 3.779528,3.779528 0 0 1 4.22088,4.7732 l -4.68025,16.3603 a 3.779528,3.779528 0 0 1 -5.63624,2.1659 z"
         style="fill:none;stroke:#000000"
         id="path92" />
      <path
         d="m -125.48032,1064.8819 a 5.858268,5.858268 0 1 0 -11.71653,0 5.858268,5.858268 0 1 0 11.71653,0 z"
         style="fill:none;stroke:#000000"
         id="path94" />
      <path
         d="m -159.34041,1109.2863 16.05218,10.0279 a 3.779528,3.779528 0 0 1 0,6.4109 l -16.05218,10.028 a 3.779528,3.779528 0 0 1 -5.63625,-2.1659 l -2.86874,-10.028 a 3.779528,3.779528 0 0 1 0,-2.079 l 2.86874,-10.028 a 3.779528,3.779528 0 0 1 5.63625,-2.1659 z"
         style="fill:none;stroke:#000000"
         id="path96" />
      <path
         d="m -238.20472,1061.1024 a 1.889765,1.889765 0 0 0 -3.77953,0 h -15.11811 a 1.889765,1.889765 0 0 0 -3.77953,0 v 7.559 a 1.889765,1.889765 0 0 0 3.77953,0 h 15.11811 a 1.889765,1.889765 0 0 0 3.77953,0 z"
         style="fill:none;stroke:#000000"
         id="path98" />
      <path
         d="M -288.94488,1195.2756 H 242.11653"
         style="fill:none;stroke:#000000"
         id="path100" />
      <path
         d="M 242.11653,1049.7638 H -288.94488"
         style="fill:none;stroke:#000000"
         id="path102" />
      <path
         d="m -257.10236,1176.378 a 1.889765,1.889765 0 0 0 -3.77953,0 v 7.559 a 1.889765,1.889765 0 0 0 3.77953,0 h 15.11811 a 1.889765,1.889765 0 0 0 3.77953,0 v -7.559 a 1.889765,1.889765 0 0 0 -3.77953,0 z"
         style="fill:none;stroke:#000000"
         id="path104" />
      <path
         d="m -229.69948,1159.7983 -60.56303,5.2986"
         style="fill:none;stroke:#000000"
         id="path106" />
      <path
         d="m -288.94488,1049.7638 a 15.11811,15.11811 0 0 0 -1.31763,30.1787"
         style="fill:none;stroke:#000000"
         id="path108" />
      <path
         d="m -283.08661,1064.8819 a 5.85827,5.85827 0 1 0 -11.71654,0 5.85827,5.85827 0 1 0 11.71654,0 z"
         style="fill:none;stroke:#000000"
         id="path110" />
      <path
         d="m -290.26251,1079.9425 60.56303,5.2986"
         style="fill:none;stroke:#000000"
         id="path112" />
      <path
         d="m -216.29048,1148.1559 a 113.38583,113.38583 0 0 0 0,-51.2724"
         style="fill:none;stroke:#000000"
         id="path114" />
      <path
         d="m -290.26251,1165.0969 a 15.11811,15.11811 0 0 0 1.31763,30.1787"
         style="fill:none;stroke:#000000"
         id="path116" />
      <path
         d="m -283.08661,1180.1575 a 5.85827,5.85827 0 1 0 -11.71654,0 5.85827,5.85827 0 1 0 11.71654,0 z"
         style="fill:none;stroke:#000000"
         id="path118" />
      <path
         d="m -216.29048,1096.8835 a 15.11811,15.11811 0 0 0 -13.409,-11.6424"
         style="fill:none;stroke:#000000"
         id="path120" />
      <path
         d="m -229.69948,1159.7983 a 15.11811,15.11811 0 0 0 13.409,-11.6424"
         style="fill:none;stroke:#000000"
         id="path122" />
      <path
         d="m 209.40538,1067.7165 h -94.48819 -11.70965 a 3.779528,3.779528 0 1 1 0,-7.559 h 11.70965 94.48819 a 3.779528,3.779528 0 0 1 0,7.559 z"
         style="fill:none;stroke:#000000"
         id="path124" />
      <path
         d="m 179.71653,1137.2598 h 37.79528 a 4.1575,4.1575 0 0 1 0,8.315 h -37.79528 a 4.1575,4.1575 0 0 1 0,-8.315 z"
         style="fill:none;stroke:#000000"
         id="path126" />
      <path
         d="m -118.99583,1151.026 -24.66114,-3.878 a 3.779528,3.779528 0 0 1 -1.41537,-6.939 l 19.9809,-12.4823 a 3.779528,3.779528 0 0 1 5.63624,2.1659 l 4.68025,16.3603 a 3.779528,3.779528 0 0 1 -4.22088,4.7731 z"
         style="fill:none;stroke:#000000"
         id="path128" />
      <path
         d="m -125.48032,1180.1575 a 5.858268,5.858268 0 1 0 -11.71653,0 5.858268,5.858268 0 1 0 11.71653,0 z"
         style="fill:none;stroke:#000000"
         id="path130" />
      <path
         d="m 217.51181,1099.4646 a 4.1574805,4.1574805 0 0 1 0,8.3149 h -37.79528 a 4.1574805,4.1574805 0 0 1 0,-8.3149 z"
         style="fill:none;stroke:#000000"
         id="path132" />
      <path
         d="m 257.23465,1075.2481 v -10.3662"
         style="fill:none;stroke:#000000"
         id="path134" />
      <path
         d="m 246.17767,1097.3195 a 1.889764,1.889764 0 0 0 2.42214,1.1295 l 1.7758,-0.6464 a 1.889764,1.889764 0 0 0 1.12946,-2.4221 l -3.23169,-8.879 a 1.889764,1.889764 0 0 0 -2.42214,-1.1295 l -1.77579,0.6464 a 1.889764,1.889764 0 0 0 -1.12946,2.4221 z"
         style="fill:none;stroke:#000000"
         id="path136" />
      <path
         d="m 88.062992,1064.8819 a 5.858268,5.858268 0 1 0 -11.716535,0 5.858268,5.858268 0 1 0 11.716535,0 z"
         style="fill:none;stroke:#000000"
         id="path138" />
      <path
         d="m 88.062992,1180.1575 a 5.858268,5.858268 0 1 0 -11.716535,0 5.858268,5.858268 0 1 0 11.716535,0 z"
         style="fill:none;stroke:#000000"
         id="path140" />
      <path
         d="m 145.07234,1140.209 a 3.779528,3.779528 0 0 1 -1.41537,6.939 l -24.66114,3.878 a 3.779528,3.779528 0 0 1 -4.22088,-4.7731 l 4.68025,-16.3603 a 3.779528,3.779528 0 0 1 5.63624,-2.1659 z"
         style="fill:none;stroke:#000000"
         id="path142" />
      <path
         d="m 164.97666,1133.5872 a 3.779528,3.779528 0 0 1 -5.63625,2.1659 l -16.05218,-10.028 a 3.779528,3.779528 0 0 1 0,-6.4109 l 16.05218,-10.0279 a 3.779528,3.779528 0 0 1 5.63625,2.1659 l 2.86874,10.028 a 3.779528,3.779528 0 0 1 0,2.079 z"
         style="fill:none;stroke:#000000"
         id="path144" />
      <path
         d="m 145.07234,1104.8304 -19.9809,12.4823 a 3.779528,3.779528 0 0 1 -5.63624,-2.1659 l -4.68025,-16.3603 a 3.779528,3.779528 0 0 1 4.22088,-4.7732 l 24.66114,3.878 a 3.779528,3.779528 0 0 1 1.41537,6.9391 z"
         style="fill:none;stroke:#000000"
         id="path146" />
      <path
         d="m 257.23465,1146.2011 v -0.059"
         style="fill:none;stroke:#000000"
         id="path148" />
      <path
         d="m 250.37561,1147.2368 -1.7758,-0.6464 a 1.889764,1.889764 0 0 0 -2.42214,1.1295 l -3.23168,8.879 a 1.889764,1.889764 0 0 0 1.12946,2.4221 l 1.77579,0.6463 a 1.889764,1.889764 0 0 0 2.42214,-1.1294 l 3.23169,-8.879 a 1.889764,1.889764 0 0 0 -1.12946,-2.4221 z"
         style="fill:none;stroke:#000000"
         id="path150" />
      <path
         d="m 247.9748,1180.1575 a 5.858268,5.858268 0 1 0 -11.71653,0 5.858268,5.858268 0 1 0 11.71653,0 z"
         style="fill:none;stroke:#000000"
         id="path152" />
      <path
         d="m 253.73569,1159.3465 a 5.669291,5.669291 0 0 0 1.57853,6.1919"
         style="fill:none;stroke:#000000"
         id="path154" />
      <path
         d="m 257.23465,1146.1417 a 11.338583,11.338583 0 0 0 -9.48743,-11.1864"
         style="fill:none;stroke:#000000"
         id="path156" />
      <path
         d="m 256.0266,1153.0523 a 20.031496,20.031496 0 0 0 1.20805,-6.8512"
         style="fill:none;stroke:#000000"
         id="path158" />
      <path
         d="m 242.11653,1195.2756 a 15.11811,15.11811 0 0 0 15.11812,-15.1181"
         style="fill:none;stroke:#000000"
         id="path160" />
      <path
         d="m 255.31422,1079.501 a 5.669291,5.669291 0 0 0 1.92043,-4.2529"
         style="fill:none;stroke:#000000"
         id="path162" />
      <path
         d="m 257.23465,1180.1575 v -10.3662"
         style="fill:none;stroke:#000000"
         id="path164" />
      <path
         d="m 253.73569,1159.3465 2.29091,-6.2942"
         style="fill:none;stroke:#000000"
         id="path166" />
      <path
         d="m 257.23465,1098.8976 v -0.059"
         style="fill:none;stroke:#000000"
         id="path168" />
      <path
         d="m 247.86929,1110.0632 a 37.795276,37.795276 0 0 0 -8.02598,2.3585"
         style="fill:none;stroke:#000000"
         id="path170" />
      <path
         d="m 239.84331,1132.6177 a 37.80729,37.80729 0 0 0 7.90391,2.3376"
         style="fill:none;stroke:#000000"
         id="path172" />
      <path
         d="m 257.23465,1098.8382 a 20.031496,20.031496 0 0 0 -1.20805,-6.8511"
         style="fill:none;stroke:#000000"
         id="path174" />
      <path
         d="m 256.0266,1091.9871 -2.29091,-6.2943"
         style="fill:none;stroke:#000000"
         id="path176" />
      <path
         d="m 247.86929,1110.0632 a 11.338583,11.338583 0 0 0 9.36536,-11.1656"
         style="fill:none;stroke:#000000"
         id="path178" />
      <path
         d="m 255.31422,1079.501 a 5.669291,5.669291 0 0 0 -1.57853,6.1918"
         style="fill:none;stroke:#000000"
         id="path180" />
      <path
         d="m 257.23465,1064.8819 a 15.11811,15.11811 0 0 0 -15.11812,-15.1181"
         style="fill:none;stroke:#000000"
         id="path182" />
      <path
         d="m 247.9748,1064.8819 a 5.858268,5.858268 0 1 0 -11.71653,0 5.858268,5.858268 0 1 0 11.71653,0 z"
         style="fill:none;stroke:#000000"
         id="path184" />
      <path
         d="m 257.23465,1169.7913 a 5.669291,5.669291 0 0 0 -1.92043,-4.2529"
         style="fill:none;stroke:#000000"
         id="path186" />
      <path
         d="m 239.84331,1112.4217 a 12.283465,12.283465 0 0 0 0,20.196"
         style="fill:none;stroke:#000000"
         id="path188" />
    </g>
    <g
       transform="matrix(0.264583 0 0 0.264583 101.664 -251.209)"
       inkscape:label="0"
       id="g347">
      <path
         d="m 227.19045,1076.425 a 18.138226,18.138226 0 0 1 -20.15973,18.0252 31.849282,31.849282 0 0 0 -18.78443,6.0335 7.559055,7.559055 0 0 1 -4.89158,1.4178 10.254697,10.254697 0 0 1 -9.21757,-7.375 37.795276,37.795276 0 0 0 -0.94079,-2.8199 72.050509,72.050509 0 0 1 -1.49249,-4.367 18.897638,18.897638 0 0 1 -0.82896,-5.5357 v -21.6464 a 1.889764,1.889764 0 0 0 -1.88976,-1.8898 h -18.70866 a 1.889764,1.889764 0 0 0 -1.88918,1.8426 v 5.7165 a 1.8900585,1.8900585 0 0 1 -3.78011,0 h -14.92855 v 15.1181 a 62.156682,62.156682 0 0 1 0,83.1496 v 15.1181 h 11.33858 a 11.208785,11.208785 0 0 1 22.41757,0 h 11.43307 a 1.889765,1.889765 0 0 1 3.77953,0 v 9.4488 a 1.889764,1.889764 0 0 0 1.88976,1.8898 h 37.6063 a 1.889764,1.889764 0 0 0 1.88976,-1.8898 v -9.4488 a 1.889765,1.889765 0 0 1 3.77953,0 h 11.43307 a 10.901455,10.901455 0 0 1 21.80291,0 h 11.33858 v -15.1181 a 62.156682,62.156682 0 0 1 0,-83.1496 v -15.1181 h -14.92972 a 1.889765,1.889765 0 0 1 -3.77953,0 v -5.6693 a 1.889764,1.889764 0 0 0 -1.88976,-1.8898 h -18.70866 a 1.889764,1.889764 0 0 0 -1.88918,1.8426 z"
         style="fill:none;stroke:#000000"
         id="path315" />
      <path
         d="m 213.48631,1108.2017 a 3.874016,3.874016 0 1 1 2.27916,-6.2619 3.874016,3.874016 0 0 1 4.09528,1.9096 3.874016,3.874016 0 0 1 3.70145,2.5918 3.874016,3.874016 0 0 1 3.19516,3.1952 3.874016,3.874016 0 1 1 -5.10479,4.2834 3.874016,3.874016 0 0 1 -2.3738,-2.3738 3.874016,3.874016 0 0 1 -2.74994,-1.9255 3.874016,3.874016 0 0 1 -3.04252,-1.4188 z"
         style="fill:none;stroke:#000000"
         id="path317" />
      <path
         d="m 211.05683,1126.2992 a 4.1574805,4.1574805 0 1 0 -8.31496,0 4.1574805,4.1574805 0 1 0 8.31496,0 z"
         style="fill:none;stroke:#000000"
         id="path319" />
      <path
         d="m 229.08032,1106.3112 a 29.858268,29.858268 0 0 1 -1.05521,41.0882 4.1574803,4.1574803 0 0 0 5.88312,5.876 38.173228,38.173228 0 0 0 1.34906,-52.5305 4.1574828,4.1574828 0 1 0 -6.17697,5.5663 z"
         style="fill:none;stroke:#000000"
         id="path321" />
      <path
         d="m -188.05121,1159.9594 a 1.889764,1.889764 0 0 0 -1.68711,0.014 37.795276,37.795276 0 0 1 -27.53605,2.6687 1.889764,1.889764 0 0 0 -2.26354,1.0913 40.296884,40.296884 0 0 0 -1.53367,4.3829 1.889764,1.889764 0 0 0 1.81671,2.4101 h 38.22955 a 1.889764,1.889764 0 0 0 1.58891,-2.9128 21.425061,21.425061 0 0 0 -8.6148,-7.6547 z"
         style="fill:none;stroke:#000000"
         id="path323" />
      <path
         d="m -172.30347,1143.7538 a 3.874016,3.874016 0 0 0 -3.15461,1.1481 3.874016,3.874016 0 1 0 1.72473,6.4368 3.874016,3.874016 0 0 0 4.24613,-1.5455 3.874016,3.874016 0 0 0 3.91326,-2.2593 3.874016,3.874016 0 0 0 3.46148,-2.9045 3.874016,3.874016 0 1 0 -4.71204,-4.712 3.874016,3.874016 0 0 0 -2.57166,2.1578 3.874016,3.874016 0 0 0 -2.90729,1.6786 z"
         style="fill:none;stroke:#000000"
         id="path325" />
      <path
         d="m -178.64739,1179.2126 v 9.4488 a 1.889764,1.889764 0 0 1 -1.88976,1.8898 h -37.6063 a 1.889764,1.889764 0 0 1 -1.88976,-1.8898 v -9.4488 a 1.889765,1.889765 0 0 0 -3.77953,0 h -11.43307 a 10.901455,10.901455 0 0 0 -21.80291,0 h -11.33858 v -15.1181 a 62.156682,62.156682 0 0 0 0,-83.1496 v -15.1181 h 14.92972 a 1.889765,1.889765 0 0 0 3.77953,0 v -5.6693 a 1.889764,1.889764 0 0 1 1.88976,-1.8898 h 18.70866 a 1.889764,1.889764 0 0 1 1.88918,1.8426 v 16.3147 a 18.138226,18.138226 0 0 0 20.15973,18.0252 31.849282,31.849282 0 0 1 18.78443,6.0335 7.559055,7.559055 0 0 0 4.89158,1.4178 10.254697,10.254697 0 0 0 9.21757,-7.375 37.795276,37.795276 0 0 1 0.94079,-2.8199 72.050509,72.050509 0 0 0 1.49249,-4.367 18.897638,18.897638 0 0 0 0.82896,-5.5357 v -21.6464 a 1.889764,1.889764 0 0 1 1.88976,-1.8898 h 18.70866 a 1.889764,1.889764 0 0 1 1.88918,1.8426 v 5.7165 a 1.8900585,1.8900585 0 0 0 3.78011,0 h 14.92855 v 15.1181 a 62.156682,62.156682 0 0 0 0,83.1496 v 15.1181 h -11.33858 a 11.208785,11.208785 0 0 0 -22.41757,0 h -11.43307 a 1.889765,1.889765 0 0 0 -3.77953,0 z"
         style="fill:none;stroke:#000000"
         id="path327" />
      <path
         d="m -192.03065,1147.5339 a 3.874016,3.874016 0 0 0 3.46147,-2.9045 3.874016,3.874016 0 1 0 -4.71204,-4.712 3.874016,3.874016 0 0 0 -2.57165,2.1578 3.874016,3.874016 0 0 0 -2.9073,1.6786 3.874016,3.874016 0 0 0 -3.1546,1.1481 3.874016,3.874016 0 0 0 -3.30606,0.583 3.874016,3.874016 0 1 0 0.5808,6.6385 3.874016,3.874016 0 0 0 4.44999,-0.7847 3.874016,3.874016 0 0 0 4.24613,-1.5455 3.874016,3.874016 0 0 0 3.91326,-2.2593 z"
         style="fill:none;stroke:#000000"
         id="path329" />
      <path
         d="m -219.27877,1111.546 a 3.874016,3.874016 0 0 0 2.74994,-1.9255 3.874016,3.874016 0 0 0 3.04252,-1.4188 3.874016,3.874016 0 1 0 -2.27916,-6.2619 3.874016,3.874016 0 0 0 -4.09528,1.9096 3.874016,3.874016 0 0 0 -3.70145,2.5918 3.874016,3.874016 0 0 0 -3.19516,3.1952 3.874016,3.874016 0 1 0 5.10479,4.2834 3.874016,3.874016 0 0 0 2.3738,-2.3738 z"
         style="fill:none;stroke:#000000"
         id="path331" />
      <path
         d="m -228.02511,1147.3994 a 4.1574803,4.1574803 0 0 1 -5.88312,5.876 38.173228,38.173228 0 0 1 -1.34906,-52.5305 4.1574828,4.1574828 0 1 1 6.17697,5.5663 29.858268,29.858268 0 0 0 1.05521,41.0882 z"
         style="fill:none;stroke:#000000"
         id="path333" />
      <path
         d="m -202.74187,1126.2992 a 4.1574805,4.1574805 0 1 0 -8.31496,0 4.1574805,4.1574805 0 1 0 8.31496,0 z"
         style="fill:none;stroke:#000000"
         id="path335" />
      <path
         d="m -176.28518,1126.2992 a 4.15748,4.15748 0 1 0 -8.31496,0 4.15748,4.15748 0 1 0 8.31496,0 z"
         style="fill:none;stroke:#000000"
         id="path337" />
      <path
         d="m 200.19004,1151.3387 a 3.874016,3.874016 0 0 1 -4.24613,-1.5455 3.874016,3.874016 0 0 1 -3.91326,-2.2593 3.874016,3.874016 0 0 1 -3.46147,-2.9045 3.874016,3.874016 0 1 1 4.71204,-4.712 3.874016,3.874016 0 0 1 2.57165,2.1578 3.874016,3.874016 0 0 1 2.9073,1.6786 3.874016,3.874016 0 0 1 3.1546,1.1481 3.874016,3.874016 0 0 1 3.30606,0.583 3.874016,3.874016 0 1 1 -0.5808,6.6385 3.874016,3.874016 0 0 1 -4.44999,-0.7847 z"
         style="fill:none;stroke:#000000"
         id="path339" />
      <path
         d="m 221.07158,1168.1168 a 1.889764,1.889764 0 0 1 -1.81671,2.4101 h -38.22955 a 1.889764,1.889764 0 0 1 -1.58891,-2.9128 21.425061,21.425061 0 0 1 8.6148,-7.6547 1.889764,1.889764 0 0 1 1.68711,0.014 37.795276,37.795276 0 0 0 27.53605,2.6687 1.889764,1.889764 0 0 1 2.26354,1.0913 40.296884,40.296884 0 0 1 1.53367,4.3829 z"
         style="fill:none;stroke:#000000"
         id="path341" />
      <path
         d="m 165.57396,1147.5339 a 3.874016,3.874016 0 0 1 -3.46148,-2.9045 3.874016,3.874016 0 1 1 4.71204,-4.712 3.874016,3.874016 0 0 1 2.57166,2.1578 3.874016,3.874016 0 0 1 2.90729,1.6786 3.874016,3.874016 0 0 1 3.15461,1.1481 3.874016,3.874016 0 1 1 -1.72473,6.4368 3.874016,3.874016 0 0 1 -4.24613,-1.5455 3.874016,3.874016 0 0 1 -3.91326,-2.2593 z"
         style="fill:none;stroke:#000000"
         id="path343" />
      <path
         d="m 184.60014,1126.2992 a 4.15748,4.15748 0 1 0 -8.31496,0 4.15748,4.15748 0 1 0 8.31496,0 z"
         style="fill:none;stroke:#000000"
         id="path345" />
    </g>
    <g
       gcodetools="Preview group"
       id="g2923" />
    <g
       gcodetools="Preview group"
       id="g2925" />
    <g
       gcodetools="Preview group"
       id="g2927" />
    <g
       gcodetools="Preview group"
       id="g2929" />
    <g
       gcodetools="Preview group"
       id="g2931" />
    <g
       gcodetools="Preview group"
       id="g2933" />
    <g
       gcodetools="Preview group"
       id="g2935" />
    <g
       gcodetools="Preview group"
       id="g2937" />
    <g
       gcodetools="Preview group"
       id="g2939" />
    <g
       gcodetools="Preview group"
       id="g2941" />
    <g
       gcodetools="Preview group"
       id="g2943" />
    <g
       gcodetools="Preview group"
       id="g2945" />
    <g
       gcodetools="Preview group"
       id="g2947" />
    <g
       gcodetools="Preview group"
       id="g2949" />
    <g
       gcodetools="Preview group"
       id="g2951" />
    <g
       gcodetools="Preview group"
       id="g2953" />
    <g
       gcodetools="Preview group"
       id="g2955" />
    <g
       gcodetools="Preview group"
       id="g2957" />
    <g
       gcodetools="Preview group"
       id="g2959" />
    <g
       gcodetools="Preview group"
       id="g2961" />
    <g
       gcodetools="Preview group"
       id="g2963" />
    <g
       gcodetools="Preview group"
       id="g2965" />
    <g
       gcodetools="Preview group"
       id="g2967" />
    <g
       gcodetools="Preview group"
       id="g2969" />
    <g
       gcodetools="Preview group"
       id="g2971" />
    <g
       gcodetools="Preview group"
       id="g2973" />
    <g
       gcodetools="Preview group"
       id="g2975" />
    <g
       gcodetools="Preview group"
       id="g2977" />
    <g
       gcodetools="Preview group"
       id="g2979" />
    <g
       gcodetools="Preview group"
       id="g2981" />
    <g
       gcodetools="Preview group"
       id="g2983" />
    <g
       gcodetools="Preview group"
       id="g2985" />
    <g
       gcodetools="Preview group"
       id="g2987" />
    <g
       gcodetools="Preview group"
       id="g2989" />
    <g
       gcodetools="Preview group"
       id="g2991" />
    <g
       gcodetools="Preview group"
       id="g2993" />
    <g
       gcodetools="Preview group"
       id="g2995" />
    <g
       gcodetools="Preview group"
       id="g2997" />
    <g
       gcodetools="Preview group"
       id="g2999" />
    <g
       gcodetools="Preview group"
       id="g3001" />
    <g
       gcodetools="Preview group"
       id="g3003" />
    <g
       gcodetools="Preview group"
       id="g3005" />
    <g
       gcodetools="Preview group"
       id="g3007" />
    <g
       gcodetools="Preview group"
       id="g3009" />
    <g
       gcodetools="Preview group"
       id="g3011" />
    <g
       gcodetools="Preview group"
       id="g3013" />
    <g
       gcodetools="Preview group"
       id="g3015" />
    <g
       gcodetools="Preview group"
       id="g3017" />
    <g
       gcodetools="Preview group"
       id="g3019" />
    <g
       gcodetools="Preview group"
       id="g3021" />
    <g
       gcodetools="Preview group"
       id="g3023" />
    <g
       gcodetools="Preview group"
       id="g3025" />
    <g
       gcodetools="Preview group"
       id="g3027" />
    <g
       gcodetools="Preview group"
       id="g3029" />
    <g
       gcodetools="Preview group"
       id="g3031" />
    <g
       gcodetools="Preview group"
       id="g3033" />
    <g
       gcodetools="Preview group"
       id="g3035" />
    <g
       gcodetools="Preview group"
       id="g3037" />
    <g
       gcodetools="Preview group"
       id="g3039" />
    <g
       gcodetools="Preview group"
       id="g3041" />
    <g
       gcodetools="Preview group"
       id="g3043" />
    <g
       gcodetools="Preview group"
       id="g3045" />
    <g
       gcodetools="Preview group"
       id="g3047" />
    <g
       gcodetools="Preview group"
       id="g3049" />
    <g
       gcodetools="Preview group"
       id="g3051" />
    <g
       gcodetools="Preview group"
       id="g3053" />
    <g
       gcodetools="Preview group"
       id="g3055" />
    <g
       gcodetools="Preview group"
       id="g3057" />
    <g
       gcodetools="Preview group"
       id="g3059" />
    <g
       gcodetools="Preview group"
       id="g3061" />
    <g
       gcodetools="Preview group"
       id="g3063" />
    <g
       gcodetools="Preview group"
       id="g3065" />
    <g
       gcodetools="Preview group"
       id="g3067" />
    <g
       gcodetools="Preview group"
       id="g3069" />
    <g
       gcodetools="Preview group"
       id="g3071" />
    <g
       gcodetools="Preview group"
       id="g3073" />
    <g
       gcodetools="Preview group"
       id="g3075" />
    <g
       gcodetools="Preview group"
       id="g3077" />
    <g
       gcodetools="Preview group"
       id="g3079" />
    <g
       gcodetools="Preview group"
       id="g3081" />
    <g
       gcodetools="Preview group"
       id="g3083" />
    <g
       gcodetools="Preview group"
       id="g3085" />
    <g
       gcodetools="Preview group"
       id="g3087" />
    <g
       gcodetools="Preview group"
       id="g3089" />
    <g
       gcodetools="Preview group"
       id="g3091" />
    <g
       gcodetools="Preview group"
       id="g3093" />
    <g
       gcodetools="Preview group"
       id="g3095" />
    <g
       gcodetools="Preview group"
       id="g3097" />
    <g
       gcodetools="Preview group"
       id="g3099" />
  </g>
  <g
     id="g3102" />
</svg>
