<?xml version="1.0" standalone="no"?>
<!DOCTYPE svg PUBLIC "-//W3C//DTD SVG 1.1//EN" "http://www.w3.org/Graphics/SVG/1.1/DTD/svg11.dtd">
<svg width="173mm" height="168mm" viewBox="-65 -103 173 168" xmlns="http://www.w3.org/2000/svg" version="1.1">
<title>OpenSCAD Model</title>
<path d="
M 65,-85 L 70,-85 L 60,-102.32 L 57.5,-97.9904 L 54.9019,-99.4904 L 49.9019,-90.8301
 L 52.5,-89.3301 L 50,-85 L 55,-85 L 55,-82 L 65,-82 z
M 35,-85 L 40,-85 L 30,-102.32 L 27.5,-97.9904 L 24.9019,-99.4904 L 19.9019,-90.8301
 L 22.5,-89.3301 L 20,-85 L 25,-85 L 25,-82 L 35,-82 z
M 10,-85 L 6.89999,-85 L 6.89999,-95 L 10,-95 L 10,-100 L -20,-100
 L -20,-95 L -16.9,-95 L -16.9,-85 L -20,-85 L -20,-80 L 10,-80
 z
M -2,-97 L -2,-98 L 3,-98 L 3,-97 z
M 4.93092,-88.9022 L 4.79387,-88.9195 L 4.66008,-88.9538 L 4.53163,-89.0047 L 4.41058,-89.0712 L 4.29883,-89.1524
 L 4.19812,-89.247 L 4.11008,-89.3534 L 4.03606,-89.4701 L 3.97723,-89.5951 L 3.93456,-89.7264 L 3.90866,-89.8621
 L 3.89999,-90 L 3.90866,-90.1379 L 3.93456,-90.2736 L 3.97723,-90.4049 L 4.03606,-90.5299 L 4.11008,-90.6466
 L 4.19812,-90.753 L 4.29883,-90.8476 L 4.41058,-90.9288 L 4.53163,-90.9953 L 4.66008,-91.0462 L 4.79387,-91.0805
 L 4.93092,-91.0978 L 5.06906,-91.0978 L 5.20612,-91.0805 L 5.3399,-91.0462 L 5.46835,-90.9953 L 5.5894,-90.9288
 L 5.70116,-90.8476 L 5.80186,-90.753 L 5.88991,-90.6466 L 5.96393,-90.5299 L 6.02275,-90.4049 L 6.06543,-90.2736
 L 6.09132,-90.1379 L 6.09999,-90 L 6.09132,-89.8621 L 6.06543,-89.7264 L 6.02275,-89.5951 L 5.96393,-89.4701
 L 5.88991,-89.3534 L 5.80186,-89.247 L 5.70116,-89.1524 L 5.5894,-89.0712 L 5.46835,-89.0047 L 5.3399,-88.9538
 L 5.20612,-88.9195 L 5.06906,-88.9022 z
M -15.0691,-88.9022 L -15.2061,-88.9195 L -15.3399,-88.9538 L -15.4684,-89.0047 L -15.5894,-89.0712 L -15.7012,-89.1524
 L -15.8019,-89.247 L -15.8899,-89.3534 L -15.9639,-89.4701 L -16.0228,-89.5951 L -16.0654,-89.7264 L -16.0913,-89.8621
 L -16.1,-90 L -16.0913,-90.1379 L -16.0654,-90.2736 L -16.0228,-90.4049 L -15.9639,-90.5299 L -15.8899,-90.6466
 L -15.8019,-90.753 L -15.7012,-90.8476 L -15.5894,-90.9288 L -15.4684,-90.9953 L -15.3399,-91.0462 L -15.2061,-91.0805
 L -15.0691,-91.0978 L -14.9309,-91.0978 L -14.7939,-91.0805 L -14.6601,-91.0462 L -14.5316,-90.9953 L -14.4106,-90.9288
 L -14.2988,-90.8476 L -14.1981,-90.753 L -14.1101,-90.6466 L -14.0361,-90.5299 L -13.9772,-90.4049 L -13.9346,-90.2736
 L -13.9087,-90.1379 L -13.9,-90 L -13.9087,-89.8621 L -13.9346,-89.7264 L -13.9772,-89.5951 L -14.0361,-89.4701
 L -14.1101,-89.3534 L -14.1981,-89.247 L -14.2988,-89.1524 L -14.4106,-89.0712 L -14.5316,-89.0047 L -14.6601,-88.9538
 L -14.7939,-88.9195 L -14.9309,-88.9022 z
M -49,-91.5 L -48.9685,-92.0013 L -48.8743,-92.4948 L -48.7191,-92.9725 L -48.5052,-93.427 L -48.2361,-93.8511
 L -47.9159,-94.2382 L -47.5497,-94.582 L -47.1433,-94.8773 L -46.7031,-95.1193 L -46.2361,-95.3042 L -45.7495,-95.4292
 L -45.2512,-95.4921 L -44.7488,-95.4921 L -44.2505,-95.4292 L -43.7639,-95.3042 L -43.2969,-95.1193 L -42.8567,-94.8773
 L -42.4503,-94.582 L -42.0841,-94.2382 L -41.7639,-93.8511 L -41.4948,-93.427 L -41.2809,-92.9725 L -41.1257,-92.4948
 L -41.0315,-92.0013 L -41,-91.5 L -41,-80 L -30,-80 L -30,-100 L -60,-100
 L -60,-80 L -49,-80 z
M -35.0628,-89.002 L -35.1874,-89.0177 L -35.309,-89.0489 L -35.4258,-89.0952 L -35.5358,-89.1557 L -35.6374,-89.2295
 L -35.729,-89.3154 L -35.809,-89.4122 L -35.8763,-89.5182 L -35.9298,-89.6319 L -35.9686,-89.7513 L -35.9921,-89.8747
 L -36,-90 L -35.9921,-90.1253 L -35.9686,-90.2487 L -35.9298,-90.3681 L -35.8763,-90.4818 L -35.809,-90.5878
 L -35.729,-90.6845 L -35.6374,-90.7705 L -35.5358,-90.8443 L -35.4258,-90.9048 L -35.309,-90.951 L -35.1874,-90.9823
 L -35.0628,-90.998 L -34.9372,-90.998 L -34.8126,-90.9823 L -34.691,-90.951 L -34.5742,-90.9048 L -34.4642,-90.8443
 L -34.3626,-90.7705 L -34.271,-90.6845 L -34.191,-90.5878 L -34.1237,-90.4818 L -34.0702,-90.3681 L -34.0314,-90.2487
 L -34.0079,-90.1253 L -34,-90 L -34.0079,-89.8747 L -34.0314,-89.7513 L -34.0702,-89.6319 L -34.1237,-89.5182
 L -34.191,-89.4122 L -34.271,-89.3154 L -34.3626,-89.2295 L -34.4642,-89.1557 L -34.5742,-89.0952 L -34.691,-89.0489
 L -34.8126,-89.0177 L -34.9372,-89.002 z
M -55.0628,-89.002 L -55.1874,-89.0177 L -55.309,-89.0489 L -55.4258,-89.0952 L -55.5358,-89.1557 L -55.6374,-89.2295
 L -55.729,-89.3154 L -55.809,-89.4122 L -55.8763,-89.5182 L -55.9298,-89.6319 L -55.9686,-89.7513 L -55.9921,-89.8747
 L -56,-90 L -55.9921,-90.1253 L -55.9686,-90.2487 L -55.9298,-90.3681 L -55.8763,-90.4818 L -55.809,-90.5878
 L -55.729,-90.6845 L -55.6374,-90.7705 L -55.5358,-90.8443 L -55.4258,-90.9048 L -55.309,-90.951 L -55.1874,-90.9823
 L -55.0628,-90.998 L -54.9372,-90.998 L -54.8126,-90.9823 L -54.691,-90.951 L -54.5742,-90.9048 L -54.4642,-90.8443
 L -54.3626,-90.7705 L -54.271,-90.6845 L -54.191,-90.5878 L -54.1237,-90.4818 L -54.0702,-90.3681 L -54.0314,-90.2487
 L -54.0079,-90.1253 L -54,-90 L -54.0079,-89.8747 L -54.0314,-89.7513 L -54.0702,-89.6319 L -54.1237,-89.5182
 L -54.191,-89.4122 L -54.271,-89.3154 L -54.3626,-89.2295 L -54.4642,-89.1557 L -54.5742,-89.0952 L -54.691,-89.0489
 L -54.8126,-89.0177 L -54.9372,-89.002 z
M -55.8703,64.6428 L -54.958,64.4086 L -54.0823,64.0618 L -53.2569,63.6081 L -52.495,63.0545 L -51.8084,62.4097
 L -9.39862,20 L 9.39862,20 L 51.8084,62.4097 L 52.495,63.0545 L 53.2569,63.6081 L 54.0823,64.0618
 L 54.958,64.4086 L 55.8703,64.6428 L 56.8047,64.7608 L 57.7466,64.7608 L 58.681,64.6428 L 59.5933,64.4086
 L 60.469,64.0618 L 61.2943,63.6081 L 62.0563,63.0545 L 62.7429,62.4097 L 63.3433,61.684 L 63.8479,60.8888
 L 64.249,60.0366 L 64.54,59.1408 L 64.7165,58.2156 L 64.7757,57.2757 L 64.7165,56.3356 L 64.54,55.4105
 L 64.249,54.5147 L 63.8479,53.6625 L 63.3433,52.8672 L 62.7429,52.1415 L 15,4.39862 L 15,-4.39862
 L 62.7429,-52.1415 L 63.3433,-52.8672 L 63.8479,-53.6625 L 64.249,-54.5147 L 64.54,-55.4105 L 64.7165,-56.3356
 L 64.7757,-57.2757 L 64.7165,-58.2156 L 64.54,-59.1408 L 64.249,-60.0366 L 63.8479,-60.8888 L 63.3433,-61.684
 L 62.7429,-62.4097 L 62.0563,-63.0545 L 61.2943,-63.6081 L 60.469,-64.0618 L 59.5933,-64.4086 L 58.681,-64.6428
 L 57.7466,-64.7608 L 56.8047,-64.7608 L 55.8703,-64.6428 L 54.958,-64.4086 L 54.0823,-64.0618 L 53.2569,-63.6081
 L 52.495,-63.0545 L 51.8084,-62.4097 L 9.39862,-20 L -9.39862,-20 L -51.8084,-62.4097 L -52.495,-63.0545
 L -53.2569,-63.6081 L -54.0823,-64.0618 L -54.958,-64.4086 L -55.8703,-64.6428 L -56.8047,-64.7608 L -57.7466,-64.7608
 L -58.681,-64.6428 L -59.5933,-64.4086 L -60.469,-64.0618 L -61.2943,-63.6081 L -62.0563,-63.0545 L -62.7429,-62.4097
 L -63.3433,-61.684 L -63.8479,-60.8888 L -64.249,-60.0366 L -64.54,-59.1408 L -64.7165,-58.2156 L -64.7757,-57.2757
 L -64.7165,-56.3356 L -64.54,-55.4105 L -64.249,-54.5147 L -63.8479,-53.6625 L -63.3433,-52.8672 L -62.7429,-52.1415
 L -15,-4.39862 L -15,4.39862 L -62.7429,52.1415 L -63.3433,52.8672 L -63.8479,53.6625 L -64.249,54.5147
 L -64.54,55.4105 L -64.7165,56.3356 L -64.7757,57.2757 L -64.7165,58.2156 L -64.54,59.1408 L -64.249,60.0366
 L -63.8479,60.8888 L -63.3433,61.684 L -62.7429,62.4097 L -62.0563,63.0545 L -61.2943,63.6081 L -60.469,64.0618
 L -59.5933,64.4086 L -58.681,64.6428 L -57.7466,64.7608 L -56.8047,64.7608 z
M 57.2066,-60.6778 L 57.0695,-60.6951 L 56.9357,-60.7295 L 56.8073,-60.7803 L 56.6862,-60.8469 L 56.5745,-60.9281
 L 56.4738,-61.0226 L 56.3857,-61.1291 L 56.3117,-61.2457 L 56.2529,-61.3707 L 56.2102,-61.5021 L 56.1843,-61.6378
 L 56.1756,-61.7757 L 56.1843,-61.9135 L 56.2102,-62.0492 L 56.2529,-62.1806 L 56.3117,-62.3056 L 56.3857,-62.4222
 L 56.4738,-62.5286 L 56.5745,-62.6232 L 56.6862,-62.7044 L 56.8073,-62.771 L 56.9357,-62.8218 L 57.0695,-62.8562
 L 57.2066,-62.8735 L 57.3447,-62.8735 L 57.4818,-62.8562 L 57.6156,-62.8218 L 57.744,-62.771 L 57.8651,-62.7044
 L 57.9768,-62.6232 L 58.0775,-62.5286 L 58.1656,-62.4222 L 58.2396,-62.3056 L 58.2984,-62.1806 L 58.3411,-62.0492
 L 58.367,-61.9135 L 58.3756,-61.7757 L 58.367,-61.6378 L 58.3411,-61.5021 L 58.2984,-61.3707 L 58.2396,-61.2457
 L 58.1656,-61.1291 L 58.0775,-61.0226 L 57.9768,-60.9281 L 57.8651,-60.8469 L 57.744,-60.7803 L 57.6156,-60.7295
 L 57.4818,-60.6951 L 57.3447,-60.6778 z
M -57.3447,-60.6778 L -57.4818,-60.6951 L -57.6156,-60.7295 L -57.744,-60.7803 L -57.8651,-60.8469 L -57.9768,-60.9281
 L -58.0775,-61.0226 L -58.1656,-61.1291 L -58.2396,-61.2457 L -58.2984,-61.3707 L -58.3411,-61.5021 L -58.367,-61.6378
 L -58.3756,-61.7757 L -58.367,-61.9135 L -58.3411,-62.0492 L -58.2984,-62.1806 L -58.2396,-62.3056 L -58.1656,-62.4222
 L -58.0775,-62.5286 L -57.9768,-62.6232 L -57.8651,-62.7044 L -57.744,-62.771 L -57.6156,-62.8218 L -57.4818,-62.8562
 L -57.3447,-62.8735 L -57.2066,-62.8735 L -57.0695,-62.8562 L -56.9357,-62.8218 L -56.8073,-62.771 L -56.6862,-62.7044
 L -56.5745,-62.6232 L -56.4738,-62.5286 L -56.3857,-62.4222 L -56.3117,-62.3056 L -56.2529,-62.1806 L -56.2102,-62.0492
 L -56.1843,-61.9135 L -56.1756,-61.7757 L -56.1843,-61.6378 L -56.2102,-61.5021 L -56.2529,-61.3707 L -56.3117,-61.2457
 L -56.3857,-61.1291 L -56.4738,-61.0226 L -56.5745,-60.9281 L -56.6862,-60.8469 L -56.8073,-60.7803 L -56.9357,-60.7295
 L -57.0695,-60.6951 L -57.2066,-60.6778 z
M 57.1501,-55.2796 L 56.9009,-55.3111 L 56.6576,-55.3735 L 56.4241,-55.466 L 56.204,-55.587 L 56.0008,-55.7346
 L 55.8177,-55.9066 L 55.6576,-56.1001 L 55.523,-56.3121 L 55.4161,-56.5394 L 55.3385,-56.7783 L 55.2914,-57.025
 L 55.2757,-57.2757 L 55.2914,-57.5263 L 55.3385,-57.773 L 55.4161,-58.0119 L 55.523,-58.2392 L 55.6576,-58.4512
 L 55.8177,-58.6447 L 56.0008,-58.8167 L 56.204,-58.9643 L 56.4241,-59.0853 L 56.6576,-59.1777 L 56.9009,-59.2402
 L 57.1501,-59.2717 L 57.4012,-59.2717 L 57.6504,-59.2402 L 57.8937,-59.1777 L 58.1272,-59.0853 L 58.3473,-58.9643
 L 58.5505,-58.8167 L 58.7336,-58.6447 L 58.8937,-58.4512 L 59.0283,-58.2392 L 59.1352,-58.0119 L 59.2128,-57.773
 L 59.2599,-57.5263 L 59.2757,-57.2757 L 59.2599,-57.025 L 59.2128,-56.7783 L 59.1352,-56.5394 L 59.0283,-56.3121
 L 58.8937,-56.1001 L 58.7336,-55.9066 L 58.5505,-55.7346 L 58.3473,-55.587 L 58.1272,-55.466 L 57.8937,-55.3735
 L 57.6504,-55.3111 L 57.4012,-55.2796 z
M -57.4012,-55.2796 L -57.6504,-55.3111 L -57.8937,-55.3735 L -58.1272,-55.466 L -58.3473,-55.587 L -58.5505,-55.7346
 L -58.7336,-55.9066 L -58.8937,-56.1001 L -59.0283,-56.3121 L -59.1352,-56.5394 L -59.2128,-56.7783 L -59.2599,-57.025
 L -59.2757,-57.2757 L -59.2599,-57.5263 L -59.2128,-57.773 L -59.1352,-58.0119 L -59.0283,-58.2392 L -58.8937,-58.4512
 L -58.7336,-58.6447 L -58.5505,-58.8167 L -58.3473,-58.9643 L -58.1272,-59.0853 L -57.8937,-59.1777 L -57.6504,-59.2402
 L -57.4012,-59.2717 L -57.1501,-59.2717 L -56.9009,-59.2402 L -56.6576,-59.1777 L -56.4241,-59.0853 L -56.204,-58.9643
 L -56.0008,-58.8167 L -55.8177,-58.6447 L -55.6576,-58.4512 L -55.523,-58.2392 L -55.4161,-58.0119 L -55.3385,-57.773
 L -55.2914,-57.5263 L -55.2757,-57.2757 L -55.2914,-57.025 L -55.3385,-56.7783 L -55.4161,-56.5394 L -55.523,-56.3121
 L -55.6576,-56.1001 L -55.8177,-55.9066 L -56.0008,-55.7346 L -56.204,-55.587 L -56.4241,-55.466 L -56.6576,-55.3735
 L -56.9009,-55.3111 L -57.1501,-55.2796 z
M 61.7066,-56.1778 L 61.5695,-56.1951 L 61.4357,-56.2295 L 61.3073,-56.2803 L 61.1862,-56.3469 L 61.0745,-56.4281
 L 60.9738,-56.5226 L 60.8857,-56.6291 L 60.8117,-56.7457 L 60.7529,-56.8707 L 60.7102,-57.0021 L 60.6843,-57.1378
 L 60.6756,-57.2757 L 60.6843,-57.4135 L 60.7102,-57.5492 L 60.7529,-57.6806 L 60.8117,-57.8056 L 60.8857,-57.9222
 L 60.9738,-58.0286 L 61.0745,-58.1232 L 61.1862,-58.2044 L 61.3073,-58.271 L 61.4357,-58.3218 L 61.5695,-58.3562
 L 61.7066,-58.3735 L 61.8447,-58.3735 L 61.9818,-58.3562 L 62.1156,-58.3218 L 62.244,-58.271 L 62.3651,-58.2044
 L 62.4768,-58.1232 L 62.5775,-58.0286 L 62.6656,-57.9222 L 62.7396,-57.8056 L 62.7984,-57.6806 L 62.8411,-57.5492
 L 62.867,-57.4135 L 62.8756,-57.2757 L 62.867,-57.1378 L 62.8411,-57.0021 L 62.7984,-56.8707 L 62.7396,-56.7457
 L 62.6656,-56.6291 L 62.5775,-56.5226 L 62.4768,-56.4281 L 62.3651,-56.3469 L 62.244,-56.2803 L 62.1156,-56.2295
 L 61.9818,-56.1951 L 61.8447,-56.1778 z
M -52.8447,-56.1778 L -52.9818,-56.1951 L -53.1156,-56.2295 L -53.244,-56.2803 L -53.3651,-56.3469 L -53.4768,-56.4281
 L -53.5775,-56.5226 L -53.6656,-56.6291 L -53.7396,-56.7457 L -53.7984,-56.8707 L -53.8411,-57.0021 L -53.867,-57.1378
 L -53.8756,-57.2757 L -53.867,-57.4135 L -53.8411,-57.5492 L -53.7984,-57.6806 L -53.7396,-57.8056 L -53.6656,-57.9222
 L -53.5775,-58.0286 L -53.4768,-58.1232 L -53.3651,-58.2044 L -53.244,-58.271 L -53.1156,-58.3218 L -52.9818,-58.3562
 L -52.8447,-58.3735 L -52.7066,-58.3735 L -52.5695,-58.3562 L -52.4357,-58.3218 L -52.3073,-58.271 L -52.1862,-58.2044
 L -52.0745,-58.1232 L -51.9738,-58.0286 L -51.8857,-57.9222 L -51.8117,-57.8056 L -51.7529,-57.6806 L -51.7102,-57.5492
 L -51.6843,-57.4135 L -51.6756,-57.2757 L -51.6843,-57.1378 L -51.7102,-57.0021 L -51.7529,-56.8707 L -51.8117,-56.7457
 L -51.8857,-56.6291 L -51.9738,-56.5226 L -52.0745,-56.4281 L -52.1862,-56.3469 L -52.3073,-56.2803 L -52.4357,-56.2295
 L -52.5695,-56.1951 L -52.7066,-56.1778 z
M 52.7066,-56.1778 L 52.5695,-56.1951 L 52.4357,-56.2295 L 52.3073,-56.2803 L 52.1862,-56.3469 L 52.0745,-56.4281
 L 51.9738,-56.5226 L 51.8857,-56.6291 L 51.8117,-56.7457 L 51.7529,-56.8707 L 51.7102,-57.0021 L 51.6843,-57.1378
 L 51.6756,-57.2757 L 51.6843,-57.4135 L 51.7102,-57.5492 L 51.7529,-57.6806 L 51.8117,-57.8056 L 51.8857,-57.9222
 L 51.9738,-58.0286 L 52.0745,-58.1232 L 52.1862,-58.2044 L 52.3073,-58.271 L 52.4357,-58.3218 L 52.5695,-58.3562
 L 52.7066,-58.3735 L 52.8447,-58.3735 L 52.9818,-58.3562 L 53.1156,-58.3218 L 53.244,-58.271 L 53.3651,-58.2044
 L 53.4768,-58.1232 L 53.5775,-58.0286 L 53.6656,-57.9222 L 53.7396,-57.8056 L 53.7984,-57.6806 L 53.8411,-57.5492
 L 53.867,-57.4135 L 53.8756,-57.2757 L 53.867,-57.1378 L 53.8411,-57.0021 L 53.7984,-56.8707 L 53.7396,-56.7457
 L 53.6656,-56.6291 L 53.5775,-56.5226 L 53.4768,-56.4281 L 53.3651,-56.3469 L 53.244,-56.2803 L 53.1156,-56.2295
 L 52.9818,-56.1951 L 52.8447,-56.1778 z
M -61.8447,-56.1778 L -61.9818,-56.1951 L -62.1156,-56.2295 L -62.244,-56.2803 L -62.3651,-56.3469 L -62.4768,-56.4281
 L -62.5775,-56.5226 L -62.6656,-56.6291 L -62.7396,-56.7457 L -62.7984,-56.8707 L -62.8411,-57.0021 L -62.867,-57.1378
 L -62.8756,-57.2757 L -62.867,-57.4135 L -62.8411,-57.5492 L -62.7984,-57.6806 L -62.7396,-57.8056 L -62.6656,-57.9222
 L -62.5775,-58.0286 L -62.4768,-58.1232 L -62.3651,-58.2044 L -62.244,-58.271 L -62.1156,-58.3218 L -61.9818,-58.3562
 L -61.8447,-58.3735 L -61.7066,-58.3735 L -61.5695,-58.3562 L -61.4357,-58.3218 L -61.3073,-58.271 L -61.1862,-58.2044
 L -61.0745,-58.1232 L -60.9738,-58.0286 L -60.8857,-57.9222 L -60.8117,-57.8056 L -60.7529,-57.6806 L -60.7102,-57.5492
 L -60.6843,-57.4135 L -60.6756,-57.2757 L -60.6843,-57.1378 L -60.7102,-57.0021 L -60.7529,-56.8707 L -60.8117,-56.7457
 L -60.8857,-56.6291 L -60.9738,-56.5226 L -61.0745,-56.4281 L -61.1862,-56.3469 L -61.3073,-56.2803 L -61.4357,-56.2295
 L -61.5695,-56.1951 L -61.7066,-56.1778 z
M -57.3447,-51.6778 L -57.4818,-51.6951 L -57.6156,-51.7295 L -57.744,-51.7803 L -57.8651,-51.8469 L -57.9768,-51.9281
 L -58.0775,-52.0226 L -58.1656,-52.1291 L -58.2396,-52.2457 L -58.2984,-52.3707 L -58.3411,-52.5021 L -58.367,-52.6378
 L -58.3756,-52.7757 L -58.367,-52.9135 L -58.3411,-53.0492 L -58.2984,-53.1806 L -58.2396,-53.3056 L -58.1656,-53.4222
 L -58.0775,-53.5286 L -57.9768,-53.6232 L -57.8651,-53.7044 L -57.744,-53.771 L -57.6156,-53.8218 L -57.4818,-53.8562
 L -57.3447,-53.8735 L -57.2066,-53.8735 L -57.0695,-53.8562 L -56.9357,-53.8218 L -56.8073,-53.771 L -56.6862,-53.7044
 L -56.5745,-53.6232 L -56.4738,-53.5286 L -56.3857,-53.4222 L -56.3117,-53.3056 L -56.2529,-53.1806 L -56.2102,-53.0492
 L -56.1843,-52.9135 L -56.1756,-52.7757 L -56.1843,-52.6378 L -56.2102,-52.5021 L -56.2529,-52.3707 L -56.3117,-52.2457
 L -56.3857,-52.1291 L -56.4738,-52.0226 L -56.5745,-51.9281 L -56.6862,-51.8469 L -56.8073,-51.7803 L -56.9357,-51.7295
 L -57.0695,-51.6951 L -57.2066,-51.6778 z
M 57.2066,-51.6778 L 57.0695,-51.6951 L 56.9357,-51.7295 L 56.8073,-51.7803 L 56.6862,-51.8469 L 56.5745,-51.9281
 L 56.4738,-52.0226 L 56.3857,-52.1291 L 56.3117,-52.2457 L 56.2529,-52.3707 L 56.2102,-52.5021 L 56.1843,-52.6378
 L 56.1756,-52.7757 L 56.1843,-52.9135 L 56.2102,-53.0492 L 56.2529,-53.1806 L 56.3117,-53.3056 L 56.3857,-53.4222
 L 56.4738,-53.5286 L 56.5745,-53.6232 L 56.6862,-53.7044 L 56.8073,-53.771 L 56.9357,-53.8218 L 57.0695,-53.8562
 L 57.2066,-53.8735 L 57.3447,-53.8735 L 57.4818,-53.8562 L 57.6156,-53.8218 L 57.744,-53.771 L 57.8651,-53.7044
 L 57.9768,-53.6232 L 58.0775,-53.5286 L 58.1656,-53.4222 L 58.2396,-53.3056 L 58.2984,-53.1806 L 58.3411,-53.0492
 L 58.367,-52.9135 L 58.3756,-52.7757 L 58.367,-52.6378 L 58.3411,-52.5021 L 58.2984,-52.3707 L 58.2396,-52.2457
 L 58.1656,-52.1291 L 58.0775,-52.0226 L 57.9768,-51.9281 L 57.8651,-51.8469 L 57.744,-51.7803 L 57.6156,-51.7295
 L 57.4818,-51.6951 L 57.3447,-51.6778 z
M -20.1005,-18.4032 L -20.2998,-18.4283 L -20.4944,-18.4783 L -20.6812,-18.5523 L -20.8573,-18.6491 L -21.0199,-18.7672
 L -21.1663,-18.9047 L -21.2944,-19.0595 L -21.4021,-19.2292 L -21.4876,-19.411 L -21.5497,-19.6021 L -21.5874,-19.7995
 L -21.6,-20 L -21.5874,-20.2005 L -21.5497,-20.3979 L -21.4876,-20.589 L -21.4021,-20.7708 L -21.2944,-20.9404
 L -21.1663,-21.0953 L -21.0199,-21.2328 L -20.8573,-21.3509 L -20.6812,-21.4477 L -20.4944,-21.5217 L -20.2998,-21.5717
 L -20.1005,-21.5968 L -19.8995,-21.5968 L -19.7002,-21.5717 L -19.5056,-21.5217 L -19.3187,-21.4477 L -19.1427,-21.3509
 L -18.9801,-21.2328 L -18.8336,-21.0953 L -18.7056,-20.9404 L -18.5979,-20.7708 L -18.5123,-20.589 L -18.4503,-20.3979
 L -18.4126,-20.2005 L -18.4,-20 L -18.4126,-19.7995 L -18.4503,-19.6021 L -18.5123,-19.411 L -18.5979,-19.2292
 L -18.7056,-19.0595 L -18.8336,-18.9047 L -18.9801,-18.7672 L -19.1427,-18.6491 L -19.3187,-18.5523 L -19.5056,-18.4783
 L -19.7002,-18.4283 L -19.8995,-18.4032 z
M 19.8995,-18.4032 L 19.7002,-18.4283 L 19.5056,-18.4783 L 19.3187,-18.5523 L 19.1427,-18.6491 L 18.9801,-18.7672
 L 18.8336,-18.9047 L 18.7056,-19.0595 L 18.5979,-19.2292 L 18.5123,-19.411 L 18.4503,-19.6021 L 18.4126,-19.7995
 L 18.4,-20 L 18.4126,-20.2005 L 18.4503,-20.3979 L 18.5123,-20.589 L 18.5979,-20.7708 L 18.7056,-20.9404
 L 18.8336,-21.0953 L 18.9801,-21.2328 L 19.1427,-21.3509 L 19.3187,-21.4477 L 19.5056,-21.5217 L 19.7002,-21.5717
 L 19.8995,-21.5968 L 20.1005,-21.5968 L 20.2998,-21.5717 L 20.4944,-21.5217 L 20.6812,-21.4477 L 20.8573,-21.3509
 L 21.0199,-21.2328 L 21.1663,-21.0953 L 21.2944,-20.9404 L 21.4021,-20.7708 L 21.4876,-20.589 L 21.5497,-20.3979
 L 21.5874,-20.2005 L 21.6,-20 L 21.5874,-19.7995 L 21.5497,-19.6021 L 21.4876,-19.411 L 21.4021,-19.2292
 L 21.2944,-19.0595 L 21.1663,-18.9047 L 21.0199,-18.7672 L 20.8573,-18.6491 L 20.6812,-18.5523 L 20.4944,-18.4783
 L 20.2998,-18.4283 L 20.1005,-18.4032 z
M -4.06279,-10.002 L -4.18738,-10.0177 L -4.30901,-10.0489 L -4.42577,-10.0952 L -4.53581,-10.1557 L -4.63742,-10.2295
 L -4.72896,-10.3154 L -4.80901,-10.4122 L -4.8763,-10.5182 L -4.92976,-10.6319 L -4.96858,-10.7513 L -4.99211,-10.8747
 L -5,-11 L -5,-14 L -4.99211,-14.1253 L -4.96858,-14.2487 L -4.92976,-14.3681 L -4.8763,-14.4818
 L -4.80901,-14.5878 L -4.72896,-14.6845 L -4.63742,-14.7705 L -4.53581,-14.8443 L -4.42577,-14.9048 L -4.30901,-14.951
 L -4.18738,-14.9823 L -4.06279,-14.998 L 4.06279,-14.998 L 4.18738,-14.9823 L 4.30901,-14.951 L 4.42577,-14.9048
 L 4.53581,-14.8443 L 4.63742,-14.7705 L 4.72896,-14.6845 L 4.80901,-14.5878 L 4.8763,-14.4818 L 4.92976,-14.3681
 L 4.96858,-14.2487 L 4.99211,-14.1253 L 5,-14 L 5,-11 L 4.99211,-10.8747 L 4.96858,-10.7513
 L 4.92976,-10.6319 L 4.8763,-10.5182 L 4.80901,-10.4122 L 4.72896,-10.3154 L 4.63742,-10.2295 L 4.53581,-10.1557
 L 4.42577,-10.0952 L 4.30901,-10.0489 L 4.18738,-10.0177 L 4.06279,-10.002 z
M -10.0691,-8.90216 L -10.2061,-8.91948 L -10.3399,-8.95383 L -10.4684,-9.00468 L -10.5894,-9.07123 L -10.7012,-9.15244
 L -10.8019,-9.24699 L -10.8899,-9.35342 L -10.9639,-9.47006 L -11.0228,-9.59506 L -11.0654,-9.72644 L -11.0913,-9.86212
 L -11.1,-10 L -11.0913,-10.1379 L -11.0654,-10.2735 L -11.0228,-10.4049 L -10.9639,-10.5299 L -10.8899,-10.6466
 L -10.8019,-10.753 L -10.7012,-10.8475 L -10.5894,-10.9288 L -10.4684,-10.9953 L -10.3399,-11.0462 L -10.2061,-11.0805
 L -10.0691,-11.0978 L -9.93092,-11.0978 L -9.79387,-11.0805 L -9.66008,-11.0462 L -9.53163,-10.9953 L -9.41058,-10.9288
 L -9.29883,-10.8475 L -9.19812,-10.753 L -9.11008,-10.6466 L -9.03606,-10.5299 L -8.97723,-10.4049 L -8.93456,-10.2735
 L -8.90866,-10.1379 L -8.89999,-10 L -8.90866,-9.86212 L -8.93456,-9.72644 L -8.97723,-9.59506 L -9.03606,-9.47006
 L -9.11008,-9.35342 L -9.19812,-9.24699 L -9.29883,-9.15244 L -9.41058,-9.07123 L -9.53163,-9.00468 L -9.66008,-8.95383
 L -9.79387,-8.91948 L -9.93092,-8.90216 z
M 9.93092,-8.90216 L 9.79387,-8.91948 L 9.66008,-8.95383 L 9.53163,-9.00468 L 9.41058,-9.07123 L 9.29883,-9.15244
 L 9.19812,-9.24699 L 9.11008,-9.35342 L 9.03606,-9.47006 L 8.97723,-9.59506 L 8.93456,-9.72644 L 8.90866,-9.86212
 L 8.89999,-10 L 8.90866,-10.1379 L 8.93456,-10.2735 L 8.97723,-10.4049 L 9.03606,-10.5299 L 9.11008,-10.6466
 L 9.19812,-10.753 L 9.29883,-10.8475 L 9.41058,-10.9288 L 9.53163,-10.9953 L 9.66008,-11.0462 L 9.79387,-11.0805
 L 9.93092,-11.0978 L 10.0691,-11.0978 L 10.2061,-11.0805 L 10.3399,-11.0462 L 10.4684,-10.9953 L 10.5894,-10.9288
 L 10.7012,-10.8475 L 10.8019,-10.753 L 10.8899,-10.6466 L 10.9639,-10.5299 L 11.0228,-10.4049 L 11.0654,-10.2735
 L 11.0913,-10.1379 L 11.1,-10 L 11.0913,-9.86212 L 11.0654,-9.72644 L 11.0228,-9.59506 L 10.9639,-9.47006
 L 10.8899,-9.35342 L 10.8019,-9.24699 L 10.7012,-9.15244 L 10.5894,-9.07123 L 10.4684,-9.00468 L 10.3399,-8.95383
 L 10.2061,-8.91948 L 10.0691,-8.90216 z
M -0.31395,4.99013 L -0.936905,4.91142 L -1.54507,4.75528 L -2.12889,4.52412 L -2.67912,4.22163 L -3.18712,3.85255
 L -3.64484,3.42273 L -4.04507,2.93892 L -4.38153,2.40877 L -4.64888,1.84062 L -4.84291,1.24344 L -4.96057,0.626663
 L -5,-0 L -4.96057,-0.626663 L -4.84291,-1.24344 L -4.64888,-1.84062 L -4.38153,-2.40877 L -4.04507,-2.93892
 L -3.64484,-3.42273 L -3.18712,-3.85255 L -2.67912,-4.22163 L -2.12889,-4.52412 L -1.54507,-4.75528 L -0.936905,-4.91142
 L -0.31395,-4.99013 L 0.31395,-4.99013 L 0.936905,-4.91142 L 1.54507,-4.75528 L 2.12889,-4.52412 L 2.67912,-4.22163
 L 3.18712,-3.85255 L 3.64484,-3.42273 L 4.04507,-2.93892 L 4.38153,-2.40877 L 4.64888,-1.84062 L 4.84291,-1.24344
 L 4.96057,-0.626663 L 5,-0 L 4.96057,0.626663 L 4.84291,1.24344 L 4.64888,1.84062 L 4.38153,2.40877
 L 4.04507,2.93892 L 3.64484,3.42273 L 3.18712,3.85255 L 2.67912,4.22163 L 2.12889,4.52412 L 1.54507,4.75528
 L 0.936905,4.91142 L 0.31395,4.99013 z
M 9.93092,11.0978 L 9.79387,11.0805 L 9.66008,11.0462 L 9.53163,10.9953 L 9.41058,10.9288 L 9.29883,10.8475
 L 9.19812,10.753 L 9.11008,10.6466 L 9.03606,10.5299 L 8.97723,10.4049 L 8.93456,10.2735 L 8.90866,10.1379
 L 8.89999,10 L 8.90866,9.86212 L 8.93456,9.72644 L 8.97723,9.59506 L 9.03606,9.47006 L 9.11008,9.35342
 L 9.19812,9.24699 L 9.29883,9.15244 L 9.41058,9.07123 L 9.53163,9.00468 L 9.66008,8.95383 L 9.79387,8.91948
 L 9.93092,8.90216 L 10.0691,8.90216 L 10.2061,8.91948 L 10.3399,8.95383 L 10.4684,9.00468 L 10.5894,9.07123
 L 10.7012,9.15244 L 10.8019,9.24699 L 10.8899,9.35342 L 10.9639,9.47006 L 11.0228,9.59506 L 11.0654,9.72644
 L 11.0913,9.86212 L 11.1,10 L 11.0913,10.1379 L 11.0654,10.2735 L 11.0228,10.4049 L 10.9639,10.5299
 L 10.8899,10.6466 L 10.8019,10.753 L 10.7012,10.8475 L 10.5894,10.9288 L 10.4684,10.9953 L 10.3399,11.0462
 L 10.2061,11.0805 L 10.0691,11.0978 z
M -10.0691,11.0978 L -10.2061,11.0805 L -10.3399,11.0462 L -10.4684,10.9953 L -10.5894,10.9288 L -10.7012,10.8475
 L -10.8019,10.753 L -10.8899,10.6466 L -10.9639,10.5299 L -11.0228,10.4049 L -11.0654,10.2735 L -11.0913,10.1379
 L -11.1,10 L -11.0913,9.86212 L -11.0654,9.72644 L -11.0228,9.59506 L -10.9639,9.47006 L -10.8899,9.35342
 L -10.8019,9.24699 L -10.7012,9.15244 L -10.5894,9.07123 L -10.4684,9.00468 L -10.3399,8.95383 L -10.2061,8.91948
 L -10.0691,8.90216 L -9.93092,8.90216 L -9.79387,8.91948 L -9.66008,8.95383 L -9.53163,9.00468 L -9.41058,9.07123
 L -9.29883,9.15244 L -9.19812,9.24699 L -9.11008,9.35342 L -9.03606,9.47006 L -8.97723,9.59506 L -8.93456,9.72644
 L -8.90866,9.86212 L -8.89999,10 L -8.90866,10.1379 L -8.93456,10.2735 L -8.97723,10.4049 L -9.03606,10.5299
 L -9.11008,10.6466 L -9.19812,10.753 L -9.29883,10.8475 L -9.41058,10.9288 L -9.53163,10.9953 L -9.66008,11.0462
 L -9.79387,11.0805 L -9.93092,11.0978 z
M -4.06279,14.998 L -4.18738,14.9823 L -4.30901,14.951 L -4.42577,14.9048 L -4.53581,14.8443 L -4.63742,14.7705
 L -4.72896,14.6845 L -4.80901,14.5878 L -4.8763,14.4818 L -4.92976,14.3681 L -4.96858,14.2487 L -4.99211,14.1253
 L -5,14 L -5,11 L -4.99211,10.8747 L -4.96858,10.7513 L -4.92976,10.6319 L -4.8763,10.5182
 L -4.80901,10.4122 L -4.72896,10.3154 L -4.63742,10.2295 L -4.53581,10.1557 L -4.42577,10.0952 L -4.30901,10.0489
 L -4.18738,10.0177 L -4.06279,10.002 L 4.06279,10.002 L 4.18738,10.0177 L 4.30901,10.0489 L 4.42577,10.0952
 L 4.53581,10.1557 L 4.63742,10.2295 L 4.72896,10.3154 L 4.80901,10.4122 L 4.8763,10.5182 L 4.92976,10.6319
 L 4.96858,10.7513 L 4.99211,10.8747 L 5,11 L 5,14 L 4.99211,14.1253 L 4.96858,14.2487
 L 4.92976,14.3681 L 4.8763,14.4818 L 4.80901,14.5878 L 4.72896,14.6845 L 4.63742,14.7705 L 4.53581,14.8443
 L 4.42577,14.9048 L 4.30901,14.951 L 4.18738,14.9823 L 4.06279,14.998 z
M 19.8995,21.5968 L 19.7002,21.5717 L 19.5056,21.5217 L 19.3187,21.4477 L 19.1427,21.3509 L 18.9801,21.2328
 L 18.8336,21.0953 L 18.7056,20.9404 L 18.5979,20.7708 L 18.5123,20.589 L 18.4503,20.3979 L 18.4126,20.2005
 L 18.4,20 L 18.4126,19.7995 L 18.4503,19.6021 L 18.5123,19.411 L 18.5979,19.2292 L 18.7056,19.0595
 L 18.8336,18.9047 L 18.9801,18.7672 L 19.1427,18.6491 L 19.3187,18.5523 L 19.5056,18.4783 L 19.7002,18.4283
 L 19.8995,18.4032 L 20.1005,18.4032 L 20.2998,18.4283 L 20.4944,18.4783 L 20.6812,18.5523 L 20.8573,18.6491
 L 21.0199,18.7672 L 21.1663,18.9047 L 21.2944,19.0595 L 21.4021,19.2292 L 21.4876,19.411 L 21.5497,19.6021
 L 21.5874,19.7995 L 21.6,20 L 21.5874,20.2005 L 21.5497,20.3979 L 21.4876,20.589 L 21.4021,20.7708
 L 21.2944,20.9404 L 21.1663,21.0953 L 21.0199,21.2328 L 20.8573,21.3509 L 20.6812,21.4477 L 20.4944,21.5217
 L 20.2998,21.5717 L 20.1005,21.5968 z
M -20.1005,21.5968 L -20.2998,21.5717 L -20.4944,21.5217 L -20.6812,21.4477 L -20.8573,21.3509 L -21.0199,21.2328
 L -21.1663,21.0953 L -21.2944,20.9404 L -21.4021,20.7708 L -21.4876,20.589 L -21.5497,20.3979 L -21.5874,20.2005
 L -21.6,20 L -21.5874,19.7995 L -21.5497,19.6021 L -21.4876,19.411 L -21.4021,19.2292 L -21.2944,19.0595
 L -21.1663,18.9047 L -21.0199,18.7672 L -20.8573,18.6491 L -20.6812,18.5523 L -20.4944,18.4783 L -20.2998,18.4283
 L -20.1005,18.4032 L -19.8995,18.4032 L -19.7002,18.4283 L -19.5056,18.4783 L -19.3187,18.5523 L -19.1427,18.6491
 L -18.9801,18.7672 L -18.8336,18.9047 L -18.7056,19.0595 L -18.5979,19.2292 L -18.5123,19.411 L -18.4503,19.6021
 L -18.4126,19.7995 L -18.4,20 L -18.4126,20.2005 L -18.4503,20.3979 L -18.5123,20.589 L -18.5979,20.7708
 L -18.7056,20.9404 L -18.8336,21.0953 L -18.9801,21.2328 L -19.1427,21.3509 L -19.3187,21.4477 L -19.5056,21.5217
 L -19.7002,21.5717 L -19.8995,21.5968 z
M -57.3447,53.8735 L -57.4818,53.8562 L -57.6156,53.8218 L -57.744,53.771 L -57.8651,53.7044 L -57.9768,53.6232
 L -58.0775,53.5286 L -58.1656,53.4222 L -58.2396,53.3056 L -58.2984,53.1806 L -58.3411,53.0492 L -58.367,52.9135
 L -58.3756,52.7757 L -58.367,52.6378 L -58.3411,52.5021 L -58.2984,52.3707 L -58.2396,52.2457 L -58.1656,52.1291
 L -58.0775,52.0226 L -57.9768,51.9281 L -57.8651,51.8469 L -57.744,51.7803 L -57.6156,51.7295 L -57.4818,51.6951
 L -57.3447,51.6778 L -57.2066,51.6778 L -57.0695,51.6951 L -56.9357,51.7295 L -56.8073,51.7803 L -56.6862,51.8469
 L -56.5745,51.9281 L -56.4738,52.0226 L -56.3857,52.1291 L -56.3117,52.2457 L -56.2529,52.3707 L -56.2102,52.5021
 L -56.1843,52.6378 L -56.1756,52.7757 L -56.1843,52.9135 L -56.2102,53.0492 L -56.2529,53.1806 L -56.3117,53.3056
 L -56.3857,53.4222 L -56.4738,53.5286 L -56.5745,53.6232 L -56.6862,53.7044 L -56.8073,53.771 L -56.9357,53.8218
 L -57.0695,53.8562 L -57.2066,53.8735 z
M 57.2066,53.8735 L 57.0695,53.8562 L 56.9357,53.8218 L 56.8073,53.771 L 56.6862,53.7044 L 56.5745,53.6232
 L 56.4738,53.5286 L 56.3857,53.4222 L 56.3117,53.3056 L 56.2529,53.1806 L 56.2102,53.0492 L 56.1843,52.9135
 L 56.1756,52.7757 L 56.1843,52.6378 L 56.2102,52.5021 L 56.2529,52.3707 L 56.3117,52.2457 L 56.3857,52.1291
 L 56.4738,52.0226 L 56.5745,51.9281 L 56.6862,51.8469 L 56.8073,51.7803 L 56.9357,51.7295 L 57.0695,51.6951
 L 57.2066,51.6778 L 57.3447,51.6778 L 57.4818,51.6951 L 57.6156,51.7295 L 57.744,51.7803 L 57.8651,51.8469
 L 57.9768,51.9281 L 58.0775,52.0226 L 58.1656,52.1291 L 58.2396,52.2457 L 58.2984,52.3707 L 58.3411,52.5021
 L 58.367,52.6378 L 58.3756,52.7757 L 58.367,52.9135 L 58.3411,53.0492 L 58.2984,53.1806 L 58.2396,53.3056
 L 58.1656,53.4222 L 58.0775,53.5286 L 57.9768,53.6232 L 57.8651,53.7044 L 57.744,53.771 L 57.6156,53.8218
 L 57.4818,53.8562 L 57.3447,53.8735 z
M -57.4012,59.2717 L -57.6504,59.2402 L -57.8937,59.1777 L -58.1272,59.0853 L -58.3473,58.9643 L -58.5505,58.8167
 L -58.7336,58.6447 L -58.8937,58.4512 L -59.0283,58.2392 L -59.1352,58.0119 L -59.2128,57.773 L -59.2599,57.5263
 L -59.2757,57.2757 L -59.2599,57.025 L -59.2128,56.7783 L -59.1352,56.5394 L -59.0283,56.3121 L -58.8937,56.1001
 L -58.7336,55.9066 L -58.5505,55.7346 L -58.3473,55.587 L -58.1272,55.466 L -57.8937,55.3735 L -57.6504,55.3111
 L -57.4012,55.2796 L -57.1501,55.2796 L -56.9009,55.3111 L -56.6576,55.3735 L -56.4241,55.466 L -56.204,55.587
 L -56.0008,55.7346 L -55.8177,55.9066 L -55.6576,56.1001 L -55.523,56.3121 L -55.4161,56.5394 L -55.3385,56.7783
 L -55.2914,57.025 L -55.2757,57.2757 L -55.2914,57.5263 L -55.3385,57.773 L -55.4161,58.0119 L -55.523,58.2392
 L -55.6576,58.4512 L -55.8177,58.6447 L -56.0008,58.8167 L -56.204,58.9643 L -56.4241,59.0853 L -56.6576,59.1777
 L -56.9009,59.2402 L -57.1501,59.2717 z
M 57.1501,59.2717 L 56.9009,59.2402 L 56.6576,59.1777 L 56.4241,59.0853 L 56.204,58.9643 L 56.0008,58.8167
 L 55.8177,58.6447 L 55.6576,58.4512 L 55.523,58.2392 L 55.4161,58.0119 L 55.3385,57.773 L 55.2914,57.5263
 L 55.2757,57.2757 L 55.2914,57.025 L 55.3385,56.7783 L 55.4161,56.5394 L 55.523,56.3121 L 55.6576,56.1001
 L 55.8177,55.9066 L 56.0008,55.7346 L 56.204,55.587 L 56.4241,55.466 L 56.6576,55.3735 L 56.9009,55.3111
 L 57.1501,55.2796 L 57.4012,55.2796 L 57.6504,55.3111 L 57.8937,55.3735 L 58.1272,55.466 L 58.3473,55.587
 L 58.5505,55.7346 L 58.7336,55.9066 L 58.8937,56.1001 L 59.0283,56.3121 L 59.1352,56.5394 L 59.2128,56.7783
 L 59.2599,57.025 L 59.2757,57.2757 L 59.2599,57.5263 L 59.2128,57.773 L 59.1352,58.0119 L 59.0283,58.2392
 L 58.8937,58.4512 L 58.7336,58.6447 L 58.5505,58.8167 L 58.3473,58.9643 L 58.1272,59.0853 L 57.8937,59.1777
 L 57.6504,59.2402 L 57.4012,59.2717 z
M 52.7066,58.3735 L 52.5695,58.3562 L 52.4357,58.3218 L 52.3073,58.271 L 52.1862,58.2044 L 52.0745,58.1232
 L 51.9738,58.0286 L 51.8857,57.9222 L 51.8117,57.8056 L 51.7529,57.6806 L 51.7102,57.5492 L 51.6843,57.4135
 L 51.6756,57.2757 L 51.6843,57.1378 L 51.7102,57.0021 L 51.7529,56.8707 L 51.8117,56.7457 L 51.8857,56.6291
 L 51.9738,56.5226 L 52.0745,56.4281 L 52.1862,56.3469 L 52.3073,56.2803 L 52.4357,56.2295 L 52.5695,56.1951
 L 52.7066,56.1778 L 52.8447,56.1778 L 52.9818,56.1951 L 53.1156,56.2295 L 53.244,56.2803 L 53.3651,56.3469
 L 53.4768,56.4281 L 53.5775,56.5226 L 53.6656,56.6291 L 53.7396,56.7457 L 53.7984,56.8707 L 53.8411,57.0021
 L 53.867,57.1378 L 53.8756,57.2757 L 53.867,57.4135 L 53.8411,57.5492 L 53.7984,57.6806 L 53.7396,57.8056
 L 53.6656,57.9222 L 53.5775,58.0286 L 53.4768,58.1232 L 53.3651,58.2044 L 53.244,58.271 L 53.1156,58.3218
 L 52.9818,58.3562 L 52.8447,58.3735 z
M -61.8447,58.3735 L -61.9818,58.3562 L -62.1156,58.3218 L -62.244,58.271 L -62.3651,58.2044 L -62.4768,58.1232
 L -62.5775,58.0286 L -62.6656,57.9222 L -62.7396,57.8056 L -62.7984,57.6806 L -62.8411,57.5492 L -62.867,57.4135
 L -62.8756,57.2757 L -62.867,57.1378 L -62.8411,57.0021 L -62.7984,56.8707 L -62.7396,56.7457 L -62.6656,56.6291
 L -62.5775,56.5226 L -62.4768,56.4281 L -62.3651,56.3469 L -62.244,56.2803 L -62.1156,56.2295 L -61.9818,56.1951
 L -61.8447,56.1778 L -61.7066,56.1778 L -61.5695,56.1951 L -61.4357,56.2295 L -61.3073,56.2803 L -61.1862,56.3469
 L -61.0745,56.4281 L -60.9738,56.5226 L -60.8857,56.6291 L -60.8117,56.7457 L -60.7529,56.8707 L -60.7102,57.0021
 L -60.6843,57.1378 L -60.6756,57.2757 L -60.6843,57.4135 L -60.7102,57.5492 L -60.7529,57.6806 L -60.8117,57.8056
 L -60.8857,57.9222 L -60.9738,58.0286 L -61.0745,58.1232 L -61.1862,58.2044 L -61.3073,58.271 L -61.4357,58.3218
 L -61.5695,58.3562 L -61.7066,58.3735 z
M -52.8447,58.3735 L -52.9818,58.3562 L -53.1156,58.3218 L -53.244,58.271 L -53.3651,58.2044 L -53.4768,58.1232
 L -53.5775,58.0286 L -53.6656,57.9222 L -53.7396,57.8056 L -53.7984,57.6806 L -53.8411,57.5492 L -53.867,57.4135
 L -53.8756,57.2757 L -53.867,57.1378 L -53.8411,57.0021 L -53.7984,56.8707 L -53.7396,56.7457 L -53.6656,56.6291
 L -53.5775,56.5226 L -53.4768,56.4281 L -53.3651,56.3469 L -53.244,56.2803 L -53.1156,56.2295 L -52.9818,56.1951
 L -52.8447,56.1778 L -52.7066,56.1778 L -52.5695,56.1951 L -52.4357,56.2295 L -52.3073,56.2803 L -52.1862,56.3469
 L -52.0745,56.4281 L -51.9738,56.5226 L -51.8857,56.6291 L -51.8117,56.7457 L -51.7529,56.8707 L -51.7102,57.0021
 L -51.6843,57.1378 L -51.6756,57.2757 L -51.6843,57.4135 L -51.7102,57.5492 L -51.7529,57.6806 L -51.8117,57.8056
 L -51.8857,57.9222 L -51.9738,58.0286 L -52.0745,58.1232 L -52.1862,58.2044 L -52.3073,58.271 L -52.4357,58.3218
 L -52.5695,58.3562 L -52.7066,58.3735 z
M 61.7066,58.3735 L 61.5695,58.3562 L 61.4357,58.3218 L 61.3073,58.271 L 61.1862,58.2044 L 61.0745,58.1232
 L 60.9738,58.0286 L 60.8857,57.9222 L 60.8117,57.8056 L 60.7529,57.6806 L 60.7102,57.5492 L 60.6843,57.4135
 L 60.6756,57.2757 L 60.6843,57.1378 L 60.7102,57.0021 L 60.7529,56.8707 L 60.8117,56.7457 L 60.8857,56.6291
 L 60.9738,56.5226 L 61.0745,56.4281 L 61.1862,56.3469 L 61.3073,56.2803 L 61.4357,56.2295 L 61.5695,56.1951
 L 61.7066,56.1778 L 61.8447,56.1778 L 61.9818,56.1951 L 62.1156,56.2295 L 62.244,56.2803 L 62.3651,56.3469
 L 62.4768,56.4281 L 62.5775,56.5226 L 62.6656,56.6291 L 62.7396,56.7457 L 62.7984,56.8707 L 62.8411,57.0021
 L 62.867,57.1378 L 62.8756,57.2757 L 62.867,57.4135 L 62.8411,57.5492 L 62.7984,57.6806 L 62.7396,57.8056
 L 62.6656,57.9222 L 62.5775,58.0286 L 62.4768,58.1232 L 62.3651,58.2044 L 62.244,58.271 L 62.1156,58.3218
 L 61.9818,58.3562 L 61.8447,58.3735 z
M 57.2066,62.8735 L 57.0695,62.8562 L 56.9357,62.8218 L 56.8073,62.771 L 56.6862,62.7044 L 56.5745,62.6232
 L 56.4738,62.5286 L 56.3857,62.4222 L 56.3117,62.3056 L 56.2529,62.1806 L 56.2102,62.0492 L 56.1843,61.9135
 L 56.1756,61.7757 L 56.1843,61.6378 L 56.2102,61.5021 L 56.2529,61.3707 L 56.3117,61.2457 L 56.3857,61.1291
 L 56.4738,61.0226 L 56.5745,60.9281 L 56.6862,60.8469 L 56.8073,60.7803 L 56.9357,60.7295 L 57.0695,60.6951
 L 57.2066,60.6778 L 57.3447,60.6778 L 57.4818,60.6951 L 57.6156,60.7295 L 57.744,60.7803 L 57.8651,60.8469
 L 57.9768,60.9281 L 58.0775,61.0226 L 58.1656,61.1291 L 58.2396,61.2457 L 58.2984,61.3707 L 58.3411,61.5021
 L 58.367,61.6378 L 58.3756,61.7757 L 58.367,61.9135 L 58.3411,62.0492 L 58.2984,62.1806 L 58.2396,62.3056
 L 58.1656,62.4222 L 58.0775,62.5286 L 57.9768,62.6232 L 57.8651,62.7044 L 57.744,62.771 L 57.6156,62.8218
 L 57.4818,62.8562 L 57.3447,62.8735 z
M -57.3447,62.8735 L -57.4818,62.8562 L -57.6156,62.8218 L -57.744,62.771 L -57.8651,62.7044 L -57.9768,62.6232
 L -58.0775,62.5286 L -58.1656,62.4222 L -58.2396,62.3056 L -58.2984,62.1806 L -58.3411,62.0492 L -58.367,61.9135
 L -58.3756,61.7757 L -58.367,61.6378 L -58.3411,61.5021 L -58.2984,61.3707 L -58.2396,61.2457 L -58.1656,61.1291
 L -58.0775,61.0226 L -57.9768,60.9281 L -57.8651,60.8469 L -57.744,60.7803 L -57.6156,60.7295 L -57.4818,60.6951
 L -57.3447,60.6778 L -57.2066,60.6778 L -57.0695,60.6951 L -56.9357,60.7295 L -56.8073,60.7803 L -56.6862,60.8469
 L -56.5745,60.9281 L -56.4738,61.0226 L -56.3857,61.1291 L -56.3117,61.2457 L -56.2529,61.3707 L -56.2102,61.5021
 L -56.1843,61.6378 L -56.1756,61.7757 L -56.1843,61.9135 L -56.2102,62.0492 L -56.2529,62.1806 L -56.3117,62.3056
 L -56.3857,62.4222 L -56.4738,62.5286 L -56.5745,62.6232 L -56.6862,62.7044 L -56.8073,62.771 L -56.9357,62.8218
 L -57.0695,62.8562 L -57.2066,62.8735 z
M 61.4053,27.3671 L 62.3176,27.1329 L 63.1933,26.7862 L 64.0187,26.3325 L 64.7807,25.7788 L 65.4673,25.1341
 L 70.6014,20 L 89.3986,20 L 94.5327,25.1341 L 95.2193,25.7788 L 95.9813,26.3325 L 96.8067,26.7862
 L 97.6824,27.1329 L 98.5946,27.3671 L 99.5291,27.4852 L 100.471,27.4852 L 101.405,27.3671 L 102.318,27.1329
 L 103.193,26.7862 L 104.019,26.3325 L 104.781,25.7788 L 105.467,25.1341 L 106.068,24.4084 L 106.572,23.6131
 L 106.973,22.7609 L 107.264,21.8652 L 107.441,20.94 L 107.5,20 L 107.441,19.06 L 107.264,18.1348
 L 106.973,17.2391 L 106.572,16.3868 L 106.068,15.5916 L 105.467,14.8659 L 95.1,4.49863 L 95.1,5
 L 91.9,5 L 91.9,-4.99998 L 95.1,-4.99998 L 95.1,-4.49863 L 105.467,-14.8659 L 106.068,-15.5916
 L 106.572,-16.3868 L 106.973,-17.2391 L 107.264,-18.1348 L 107.441,-19.06 L 107.5,-20 L 107.441,-20.94
 L 107.264,-21.8652 L 106.973,-22.7609 L 106.572,-23.6131 L 106.068,-24.4084 L 105.467,-25.1341 L 104.781,-25.7788
 L 104.019,-26.3325 L 103.193,-26.7862 L 102.318,-27.1329 L 101.405,-27.3671 L 100.471,-27.4852 L 99.5291,-27.4852
 L 98.5946,-27.3671 L 97.6824,-27.1329 L 96.8067,-26.7862 L 95.9813,-26.3325 L 95.2193,-25.7788 L 94.5327,-25.1341
 L 89.3986,-20 L 70.6014,-20 L 65.4673,-25.1341 L 64.7807,-25.7788 L 64.0187,-26.3325 L 63.1933,-26.7862
 L 62.3176,-27.1329 L 61.4053,-27.3671 L 60.4709,-27.4852 L 59.5291,-27.4852 L 58.5946,-27.3671 L 57.6824,-27.1329
 L 56.8067,-26.7862 L 55.9813,-26.3325 L 55.2193,-25.7788 L 54.5327,-25.1341 L 53.9324,-24.4084 L 53.4277,-23.6131
 L 53.0267,-22.7609 L 52.7356,-21.8652 L 52.5591,-20.94 L 52.5,-20 L 52.5591,-19.06 L 52.7356,-18.1348
 L 53.0267,-17.2391 L 53.4277,-16.3868 L 53.9324,-15.5916 L 54.5327,-14.8659 L 64.9,-4.49863 L 64.9,-4.99998
 L 68.1,-4.99998 L 68.1,5 L 64.9,5 L 64.9,4.49863 L 54.5327,14.8659 L 53.9324,15.5916
 L 53.4277,16.3868 L 53.0267,17.2391 L 52.7356,18.1348 L 52.5591,19.06 L 52.5,20 L 52.5591,20.94
 L 52.7356,21.8652 L 53.0267,22.7609 L 53.4277,23.6131 L 53.9324,24.4084 L 54.5327,25.1341 L 55.2193,25.7788
 L 55.9813,26.3325 L 56.8067,26.7862 L 57.6824,27.1329 L 58.5946,27.3671 L 59.5291,27.4852 L 60.4709,27.4852
 z
M 59.8995,-18.4032 L 59.7002,-18.4283 L 59.5056,-18.4783 L 59.3187,-18.5523 L 59.1427,-18.6491 L 58.9801,-18.7672
 L 58.8336,-18.9047 L 58.7056,-19.0595 L 58.5979,-19.2292 L 58.5124,-19.411 L 58.4503,-19.6021 L 58.4126,-19.7995
 L 58.4,-20 L 58.4126,-20.2005 L 58.4503,-20.3979 L 58.5124,-20.589 L 58.5979,-20.7708 L 58.7056,-20.9404
 L 58.8336,-21.0953 L 58.9801,-21.2328 L 59.1427,-21.3509 L 59.3187,-21.4477 L 59.5056,-21.5217 L 59.7002,-21.5717
 L 59.8995,-21.5968 L 60.1005,-21.5968 L 60.2998,-21.5717 L 60.4944,-21.5217 L 60.6812,-21.4477 L 60.8573,-21.3509
 L 61.0199,-21.2328 L 61.1664,-21.0953 L 61.2944,-20.9404 L 61.4021,-20.7708 L 61.4876,-20.589 L 61.5497,-20.3979
 L 61.5874,-20.2005 L 61.6,-20 L 61.5874,-19.7995 L 61.5497,-19.6021 L 61.4876,-19.411 L 61.4021,-19.2292
 L 61.2944,-19.0595 L 61.1664,-18.9047 L 61.0199,-18.7672 L 60.8573,-18.6491 L 60.6812,-18.5523 L 60.4944,-18.4783
 L 60.2998,-18.4283 L 60.1005,-18.4032 z
M 99.8995,-18.4032 L 99.7002,-18.4283 L 99.5056,-18.4783 L 99.3188,-18.5523 L 99.1427,-18.6491 L 98.9801,-18.7672
 L 98.8336,-18.9047 L 98.7056,-19.0595 L 98.5979,-19.2292 L 98.5124,-19.411 L 98.4503,-19.6021 L 98.4126,-19.7995
 L 98.4,-20 L 98.4126,-20.2005 L 98.4503,-20.3979 L 98.5124,-20.589 L 98.5979,-20.7708 L 98.7056,-20.9404
 L 98.8336,-21.0953 L 98.9801,-21.2328 L 99.1427,-21.3509 L 99.3188,-21.4477 L 99.5056,-21.5217 L 99.7002,-21.5717
 L 99.8995,-21.5968 L 100.1,-21.5968 L 100.3,-21.5717 L 100.494,-21.5217 L 100.681,-21.4477 L 100.857,-21.3509
 L 101.02,-21.2328 L 101.166,-21.0953 L 101.294,-20.9404 L 101.402,-20.7708 L 101.488,-20.589 L 101.55,-20.3979
 L 101.587,-20.2005 L 101.6,-20 L 101.587,-19.7995 L 101.55,-19.6021 L 101.488,-19.411 L 101.402,-19.2292
 L 101.294,-19.0595 L 101.166,-18.9047 L 101.02,-18.7672 L 100.857,-18.6491 L 100.681,-18.5523 L 100.494,-18.4783
 L 100.3,-18.4283 L 100.1,-18.4032 z
M 75.9372,-10.002 L 75.8126,-10.0177 L 75.691,-10.0489 L 75.5742,-10.0952 L 75.4642,-10.1557 L 75.3626,-10.2295
 L 75.271,-10.3154 L 75.191,-10.4122 L 75.1237,-10.5182 L 75.0702,-10.6319 L 75.0314,-10.7513 L 75.0079,-10.8747
 L 75,-11 L 75,-14 L 75.0079,-14.1253 L 75.0314,-14.2487 L 75.0702,-14.3681 L 75.1237,-14.4818
 L 75.191,-14.5878 L 75.271,-14.6845 L 75.3626,-14.7705 L 75.4642,-14.8443 L 75.5742,-14.9048 L 75.691,-14.951
 L 75.8126,-14.9823 L 75.9372,-14.998 L 84.0628,-14.998 L 84.1874,-14.9823 L 84.309,-14.951 L 84.4258,-14.9048
 L 84.5358,-14.8443 L 84.6374,-14.7705 L 84.729,-14.6845 L 84.809,-14.5878 L 84.8763,-14.4818 L 84.9298,-14.3681
 L 84.9686,-14.2487 L 84.9921,-14.1253 L 85,-14 L 85,-11 L 84.9921,-10.8747 L 84.9686,-10.7513
 L 84.9298,-10.6319 L 84.8763,-10.5182 L 84.809,-10.4122 L 84.729,-10.3154 L 84.6374,-10.2295 L 84.5358,-10.1557
 L 84.4258,-10.0952 L 84.309,-10.0489 L 84.1874,-10.0177 L 84.0628,-10.002 z
M 79.6861,4.99013 L 79.0631,4.91142 L 78.4549,4.75528 L 77.8711,4.52412 L 77.3209,4.22163 L 76.8129,3.85255
 L 76.3551,3.42273 L 75.9549,2.93892 L 75.6185,2.40877 L 75.3511,1.84062 L 75.1571,1.24344 L 75.0394,0.626663
 L 75,-0 L 75.0394,-0.626663 L 75.1571,-1.24344 L 75.3511,-1.84062 L 75.6185,-2.40877 L 75.9549,-2.93892
 L 76.3551,-3.42273 L 76.8129,-3.85255 L 77.3209,-4.22163 L 77.8711,-4.52412 L 78.4549,-4.75528 L 79.0631,-4.91142
 L 79.6861,-4.99013 L 80.3139,-4.99013 L 80.9369,-4.91142 L 81.5451,-4.75528 L 82.1289,-4.52412 L 82.6791,-4.22163
 L 83.1871,-3.85255 L 83.6448,-3.42273 L 84.0451,-2.93892 L 84.3815,-2.40877 L 84.6489,-1.84062 L 84.8429,-1.24344
 L 84.9606,-0.626663 L 85,-0 L 84.9606,0.626663 L 84.8429,1.24344 L 84.6489,1.84062 L 84.3815,2.40877
 L 84.0451,2.93892 L 83.6448,3.42273 L 83.1871,3.85255 L 82.6791,4.22163 L 82.1289,4.52412 L 81.5451,4.75528
 L 80.9369,4.91142 L 80.3139,4.99013 z
M 75.9372,14.998 L 75.8126,14.9823 L 75.691,14.951 L 75.5742,14.9048 L 75.4642,14.8443 L 75.3626,14.7705
 L 75.271,14.6845 L 75.191,14.5878 L 75.1237,14.4818 L 75.0702,14.3681 L 75.0314,14.2487 L 75.0079,14.1253
 L 75,14 L 75,11 L 75.0079,10.8747 L 75.0314,10.7513 L 75.0702,10.6319 L 75.1237,10.5182
 L 75.191,10.4122 L 75.271,10.3154 L 75.3626,10.2295 L 75.4642,10.1557 L 75.5742,10.0952 L 75.691,10.0489
 L 75.8126,10.0177 L 75.9372,10.002 L 84.0628,10.002 L 84.1874,10.0177 L 84.309,10.0489 L 84.4258,10.0952
 L 84.5358,10.1557 L 84.6374,10.2295 L 84.729,10.3154 L 84.809,10.4122 L 84.8763,10.5182 L 84.9298,10.6319
 L 84.9686,10.7513 L 84.9921,10.8747 L 85,11 L 85,14 L 84.9921,14.1253 L 84.9686,14.2487
 L 84.9298,14.3681 L 84.8763,14.4818 L 84.809,14.5878 L 84.729,14.6845 L 84.6374,14.7705 L 84.5358,14.8443
 L 84.4258,14.9048 L 84.309,14.951 L 84.1874,14.9823 L 84.0628,14.998 z
M 59.8995,21.5968 L 59.7002,21.5717 L 59.5056,21.5217 L 59.3187,21.4477 L 59.1427,21.3509 L 58.9801,21.2328
 L 58.8336,21.0953 L 58.7056,20.9404 L 58.5979,20.7708 L 58.5124,20.589 L 58.4503,20.3979 L 58.4126,20.2005
 L 58.4,20 L 58.4126,19.7995 L 58.4503,19.6021 L 58.5124,19.411 L 58.5979,19.2292 L 58.7056,19.0595
 L 58.8336,18.9047 L 58.9801,18.7672 L 59.1427,18.6491 L 59.3187,18.5523 L 59.5056,18.4783 L 59.7002,18.4283
 L 59.8995,18.4032 L 60.1005,18.4032 L 60.2998,18.4283 L 60.4944,18.4783 L 60.6812,18.5523 L 60.8573,18.6491
 L 61.0199,18.7672 L 61.1664,18.9047 L 61.2944,19.0595 L 61.4021,19.2292 L 61.4876,19.411 L 61.5497,19.6021
 L 61.5874,19.7995 L 61.6,20 L 61.5874,20.2005 L 61.5497,20.3979 L 61.4876,20.589 L 61.4021,20.7708
 L 61.2944,20.9404 L 61.1664,21.0953 L 61.0199,21.2328 L 60.8573,21.3509 L 60.6812,21.4477 L 60.4944,21.5217
 L 60.2998,21.5717 L 60.1005,21.5968 z
M 99.8995,21.5968 L 99.7002,21.5717 L 99.5056,21.5217 L 99.3188,21.4477 L 99.1427,21.3509 L 98.9801,21.2328
 L 98.8336,21.0953 L 98.7056,20.9404 L 98.5979,20.7708 L 98.5124,20.589 L 98.4503,20.3979 L 98.4126,20.2005
 L 98.4,20 L 98.4126,19.7995 L 98.4503,19.6021 L 98.5124,19.411 L 98.5979,19.2292 L 98.7056,19.0595
 L 98.8336,18.9047 L 98.9801,18.7672 L 99.1427,18.6491 L 99.3188,18.5523 L 99.5056,18.4783 L 99.7002,18.4283
 L 99.8995,18.4032 L 100.1,18.4032 L 100.3,18.4283 L 100.494,18.4783 L 100.681,18.5523 L 100.857,18.6491
 L 101.02,18.7672 L 101.166,18.9047 L 101.294,19.0595 L 101.402,19.2292 L 101.488,19.411 L 101.55,19.6021
 L 101.587,19.7995 L 101.6,20 L 101.587,20.2005 L 101.55,20.3979 L 101.488,20.589 L 101.402,20.7708
 L 101.294,20.9404 L 101.166,21.0953 L 101.02,21.2328 L 100.857,21.3509 L 100.681,21.4477 L 100.494,21.5217
 L 100.3,21.5717 L 100.1,21.5968 z
" stroke="black" fill="lightgray" stroke-width="0.5"/>
</svg>
