<?xml version="1.0" standalone="no"?>
<!DOCTYPE svg PUBLIC "-//W3C//DTD SVG 1.1//EN" "http://www.w3.org/Graphics/SVG/1.1/DTD/svg11.dtd">
<svg width="169mm" height="164mm" viewBox="-61 -103 169 164" xmlns="http://www.w3.org/2000/svg" version="1.1">
<title>OpenSCAD Model</title>
<path d="
M 65,-85 L 70,-85 L 60,-102.32 L 57.5,-97.9904 L 55.7679,-98.9904 L 50.7679,-90.3301
 L 52.5,-89.3301 L 50,-85 L 55,-85 L 55,-83 L 65,-83 z
M 35,-85 L 40,-85 L 30,-102.32 L 27.5,-97.9904 L 25.7679,-98.9904 L 20.7679,-90.3301
 L 22.5,-89.3301 L 20,-85 L 25,-85 L 25,-83 L 35,-83 z
M 10,-85 L 7.89999,-85 L 7.89999,-95 L 10,-95 L 10,-100 L -20,-100
 L -20,-95 L -17.9,-95 L -17.9,-85 L -20,-85 L -20,-80 L 10,-80
 z
M -2,-97 L -2,-98 L 3,-98 L 3,-97 z
M 4.93719,-89.002 L 4.81261,-89.0177 L 4.69098,-89.0489 L 4.57422,-89.0952 L 4.46417,-89.1557 L 4.36256,-89.2295
 L 4.27103,-89.3154 L 4.19098,-89.4122 L 4.12369,-89.5182 L 4.07022,-89.6319 L 4.0314,-89.7513 L 4.00787,-89.8747
 L 4,-90 L 4.00787,-90.1253 L 4.0314,-90.2487 L 4.07022,-90.3681 L 4.12369,-90.4818 L 4.19098,-90.5878
 L 4.27103,-90.6845 L 4.36256,-90.7705 L 4.46417,-90.8443 L 4.57422,-90.9048 L 4.69098,-90.951 L 4.81261,-90.9823
 L 4.93719,-90.998 L 5.06279,-90.998 L 5.18738,-90.9823 L 5.30901,-90.951 L 5.42577,-90.9048 L 5.53581,-90.8443
 L 5.63742,-90.7705 L 5.72896,-90.6845 L 5.80901,-90.5878 L 5.8763,-90.4818 L 5.92976,-90.3681 L 5.96858,-90.2487
 L 5.99211,-90.1253 L 6,-90 L 5.99211,-89.8747 L 5.96858,-89.7513 L 5.92976,-89.6319 L 5.8763,-89.5182
 L 5.80901,-89.4122 L 5.72896,-89.3154 L 5.63742,-89.2295 L 5.53581,-89.1557 L 5.42577,-89.0952 L 5.30901,-89.0489
 L 5.18738,-89.0177 L 5.06279,-89.002 z
M -15.0628,-89.002 L -15.1874,-89.0177 L -15.309,-89.0489 L -15.4258,-89.0952 L -15.5358,-89.1557 L -15.6374,-89.2295
 L -15.729,-89.3154 L -15.809,-89.4122 L -15.8763,-89.5182 L -15.9298,-89.6319 L -15.9686,-89.7513 L -15.9921,-89.8747
 L -16,-90 L -15.9921,-90.1253 L -15.9686,-90.2487 L -15.9298,-90.3681 L -15.8763,-90.4818 L -15.809,-90.5878
 L -15.729,-90.6845 L -15.6374,-90.7705 L -15.5358,-90.8443 L -15.4258,-90.9048 L -15.309,-90.951 L -15.1874,-90.9823
 L -15.0628,-90.998 L -14.9372,-90.998 L -14.8126,-90.9823 L -14.691,-90.951 L -14.5742,-90.9048 L -14.4642,-90.8443
 L -14.3626,-90.7705 L -14.271,-90.6845 L -14.191,-90.5878 L -14.1237,-90.4818 L -14.0702,-90.3681 L -14.0314,-90.2487
 L -14.0079,-90.1253 L -14,-90 L -14.0079,-89.8747 L -14.0314,-89.7513 L -14.0702,-89.6319 L -14.1237,-89.5182
 L -14.191,-89.4122 L -14.271,-89.3154 L -14.3626,-89.2295 L -14.4642,-89.1557 L -14.5742,-89.0952 L -14.691,-89.0489
 L -14.8126,-89.0177 L -14.9372,-89.002 z
M -49,-91.5 L -48.9685,-92.0013 L -48.8743,-92.4948 L -48.7191,-92.9725 L -48.5052,-93.427 L -48.2361,-93.8511
 L -47.9159,-94.2382 L -47.5497,-94.582 L -47.1433,-94.8773 L -46.7031,-95.1193 L -46.2361,-95.3042 L -45.7495,-95.4292
 L -45.2512,-95.4921 L -44.7488,-95.4921 L -44.2505,-95.4292 L -43.7639,-95.3042 L -43.2969,-95.1193 L -42.8567,-94.8773
 L -42.4503,-94.582 L -42.0841,-94.2382 L -41.7639,-93.8511 L -41.4948,-93.427 L -41.2809,-92.9725 L -41.1257,-92.4948
 L -41.0315,-92.0013 L -41,-91.5 L -41,-80 L -30,-80 L -30,-100 L -60,-100
 L -60,-80 L -49,-80 z
M -35.0628,-89.002 L -35.1874,-89.0177 L -35.309,-89.0489 L -35.4258,-89.0952 L -35.5358,-89.1557 L -35.6374,-89.2295
 L -35.729,-89.3154 L -35.809,-89.4122 L -35.8763,-89.5182 L -35.9298,-89.6319 L -35.9686,-89.7513 L -35.9921,-89.8747
 L -36,-90 L -35.9921,-90.1253 L -35.9686,-90.2487 L -35.9298,-90.3681 L -35.8763,-90.4818 L -35.809,-90.5878
 L -35.729,-90.6845 L -35.6374,-90.7705 L -35.5358,-90.8443 L -35.4258,-90.9048 L -35.309,-90.951 L -35.1874,-90.9823
 L -35.0628,-90.998 L -34.9372,-90.998 L -34.8126,-90.9823 L -34.691,-90.951 L -34.5742,-90.9048 L -34.4642,-90.8443
 L -34.3626,-90.7705 L -34.271,-90.6845 L -34.191,-90.5878 L -34.1237,-90.4818 L -34.0702,-90.3681 L -34.0314,-90.2487
 L -34.0079,-90.1253 L -34,-90 L -34.0079,-89.8747 L -34.0314,-89.7513 L -34.0702,-89.6319 L -34.1237,-89.5182
 L -34.191,-89.4122 L -34.271,-89.3154 L -34.3626,-89.2295 L -34.4642,-89.1557 L -34.5742,-89.0952 L -34.691,-89.0489
 L -34.8126,-89.0177 L -34.9372,-89.002 z
M -55.0628,-89.002 L -55.1874,-89.0177 L -55.309,-89.0489 L -55.4258,-89.0952 L -55.5358,-89.1557 L -55.6374,-89.2295
 L -55.729,-89.3154 L -55.809,-89.4122 L -55.8763,-89.5182 L -55.9298,-89.6319 L -55.9686,-89.7513 L -55.9921,-89.8747
 L -56,-90 L -55.9921,-90.1253 L -55.9686,-90.2487 L -55.9298,-90.3681 L -55.8763,-90.4818 L -55.809,-90.5878
 L -55.729,-90.6845 L -55.6374,-90.7705 L -55.5358,-90.8443 L -55.4258,-90.9048 L -55.309,-90.951 L -55.1874,-90.9823
 L -55.0628,-90.998 L -54.9372,-90.998 L -54.8126,-90.9823 L -54.691,-90.951 L -54.5742,-90.9048 L -54.4642,-90.8443
 L -54.3626,-90.7705 L -54.271,-90.6845 L -54.191,-90.5878 L -54.1237,-90.4818 L -54.0702,-90.3681 L -54.0314,-90.2487
 L -54.0079,-90.1253 L -54,-90 L -54.0079,-89.8747 L -54.0314,-89.7513 L -54.0702,-89.6319 L -54.1237,-89.5182
 L -54.191,-89.4122 L -54.271,-89.3154 L -54.3626,-89.2295 L -54.4642,-89.1557 L -54.5742,-89.0952 L -54.691,-89.0489
 L -54.8126,-89.0177 L -54.9372,-89.002 z
M -51.6276,60.4002 L -50.7154,60.1659 L -49.8397,59.8192 L -49.0143,59.3655 L -48.2523,58.8119 L -47.5657,58.1671
 L -9.39862,20 L 9.39862,20 L 47.5657,58.1671 L 48.2523,58.8119 L 49.0143,59.3655 L 49.8397,59.8192
 L 50.7154,60.1659 L 51.6276,60.4002 L 52.5621,60.5182 L 53.5039,60.5182 L 54.4384,60.4002 L 55.3506,60.1659
 L 56.2263,59.8192 L 57.0517,59.3655 L 57.8137,58.8119 L 58.5003,58.1671 L 59.1006,57.4414 L 59.6053,56.6461
 L 60.0063,55.7939 L 60.2974,54.8982 L 60.4739,53.973 L 60.533,53.033 L 60.4739,52.093 L 60.2974,51.1678
 L 60.0063,50.2721 L 59.6053,49.4198 L 59.1006,48.6246 L 58.5003,47.8989 L 15,4.39862 L 15,-4.39862
 L 58.5003,-47.8989 L 59.1006,-48.6246 L 59.6053,-49.4198 L 60.0063,-50.2721 L 60.2974,-51.1678 L 60.4739,-52.093
 L 60.533,-53.033 L 60.4739,-53.973 L 60.2974,-54.8982 L 60.0063,-55.7939 L 59.6053,-56.6461 L 59.1006,-57.4414
 L 58.5003,-58.1671 L 57.8137,-58.8119 L 57.0517,-59.3655 L 56.2263,-59.8192 L 55.3506,-60.1659 L 54.4384,-60.4002
 L 53.5039,-60.5182 L 52.5621,-60.5182 L 51.6276,-60.4002 L 50.7154,-60.1659 L 49.8397,-59.8192 L 49.0143,-59.3655
 L 48.2523,-58.8119 L 47.5657,-58.1671 L 9.39862,-20 L -9.39862,-20 L -47.5657,-58.1671 L -48.2523,-58.8119
 L -49.0143,-59.3655 L -49.8397,-59.8192 L -50.7154,-60.1659 L -51.6276,-60.4002 L -52.5621,-60.5182 L -53.5039,-60.5182
 L -54.4384,-60.4002 L -55.3506,-60.1659 L -56.2263,-59.8192 L -57.0517,-59.3655 L -57.8137,-58.8119 L -58.5003,-58.1671
 L -59.1006,-57.4414 L -59.6053,-56.6461 L -60.0063,-55.7939 L -60.2974,-54.8982 L -60.4739,-53.973 L -60.533,-53.033
 L -60.4739,-52.093 L -60.2974,-51.1678 L -60.0063,-50.2721 L -59.6053,-49.4198 L -59.1006,-48.6246 L -58.5003,-47.8989
 L -15,-4.39862 L -15,4.39862 L -58.5003,47.8989 L -59.1006,48.6246 L -59.6053,49.4198 L -60.0063,50.2721
 L -60.2974,51.1678 L -60.4739,52.093 L -60.533,53.033 L -60.4739,53.973 L -60.2974,54.8982 L -60.0063,55.7939
 L -59.6053,56.6461 L -59.1006,57.4414 L -58.5003,58.1671 L -57.8137,58.8119 L -57.0517,59.3655 L -56.2263,59.8192
 L -55.3506,60.1659 L -54.4384,60.4002 L -53.5039,60.5182 L -52.5621,60.5182 z
M -53.1021,-56.4352 L -53.2391,-56.4525 L -53.3729,-56.4868 L -53.5014,-56.5377 L -53.6224,-56.6042 L -53.7342,-56.6854
 L -53.8349,-56.78 L -53.9229,-56.8864 L -53.9969,-57.0031 L -54.0558,-57.1281 L -54.0984,-57.2594 L -54.1243,-57.3951
 L -54.133,-57.533 L -54.1243,-57.6709 L -54.0984,-57.8066 L -54.0558,-57.9379 L -53.9969,-58.0629 L -53.9229,-58.1796
 L -53.8349,-58.286 L -53.7342,-58.3806 L -53.6224,-58.4618 L -53.5014,-58.5283 L -53.3729,-58.5792 L -53.2391,-58.6135
 L -53.1021,-58.6308 L -52.9639,-58.6308 L -52.8269,-58.6135 L -52.6931,-58.5792 L -52.5647,-58.5283 L -52.4436,-58.4618
 L -52.3318,-58.3806 L -52.2311,-58.286 L -52.1431,-58.1796 L -52.0691,-58.0629 L -52.0103,-57.9379 L -51.9676,-57.8066
 L -51.9417,-57.6709 L -51.933,-57.533 L -51.9417,-57.3951 L -51.9676,-57.2594 L -52.0103,-57.1281 L -52.0691,-57.0031
 L -52.1431,-56.8864 L -52.2311,-56.78 L -52.3318,-56.6854 L -52.4436,-56.6042 L -52.5647,-56.5377 L -52.6931,-56.4868
 L -52.8269,-56.4525 L -52.9639,-56.4352 z
M 52.9639,-56.4352 L 52.8269,-56.4525 L 52.6931,-56.4868 L 52.5647,-56.5377 L 52.4436,-56.6042 L 52.3318,-56.6854
 L 52.2311,-56.78 L 52.1431,-56.8864 L 52.0691,-57.0031 L 52.0103,-57.1281 L 51.9676,-57.2594 L 51.9417,-57.3951
 L 51.933,-57.533 L 51.9417,-57.6709 L 51.9676,-57.8066 L 52.0103,-57.9379 L 52.0691,-58.0629 L 52.1431,-58.1796
 L 52.2311,-58.286 L 52.3318,-58.3806 L 52.4436,-58.4618 L 52.5647,-58.5283 L 52.6931,-58.5792 L 52.8269,-58.6135
 L 52.9639,-58.6308 L 53.1021,-58.6308 L 53.2391,-58.6135 L 53.3729,-58.5792 L 53.5014,-58.5283 L 53.6224,-58.4618
 L 53.7342,-58.3806 L 53.8349,-58.286 L 53.9229,-58.1796 L 53.9969,-58.0629 L 54.0558,-57.9379 L 54.0984,-57.8066
 L 54.1243,-57.6709 L 54.133,-57.533 L 54.1243,-57.3951 L 54.0984,-57.2594 L 54.0558,-57.1281 L 53.9969,-57.0031
 L 53.9229,-56.8864 L 53.8349,-56.78 L 53.7342,-56.6854 L 53.6224,-56.6042 L 53.5014,-56.5377 L 53.3729,-56.4868
 L 53.2391,-56.4525 L 53.1021,-56.4352 z
M -53.1586,-51.037 L -53.4078,-51.0684 L -53.651,-51.1309 L -53.8846,-51.2233 L -54.1047,-51.3443 L -54.3078,-51.492
 L -54.4909,-51.6639 L -54.651,-51.8574 L -54.7856,-52.0695 L -54.8926,-52.2968 L -54.9702,-52.5356 L -55.0172,-52.7823
 L -55.033,-53.033 L -55.0172,-53.2837 L -54.9702,-53.5304 L -54.8926,-53.7693 L -54.7856,-53.9965 L -54.651,-54.2086
 L -54.4909,-54.4021 L -54.3078,-54.574 L -54.1047,-54.7217 L -53.8846,-54.8427 L -53.651,-54.9351 L -53.4078,-54.9976
 L -53.1586,-55.0291 L -52.9074,-55.0291 L -52.6582,-54.9976 L -52.415,-54.9351 L -52.1814,-54.8427 L -51.9613,-54.7217
 L -51.7582,-54.574 L -51.5751,-54.4021 L -51.415,-54.2086 L -51.2804,-53.9965 L -51.1734,-53.7693 L -51.0958,-53.5304
 L -51.0488,-53.2837 L -51.033,-53.033 L -51.0488,-52.7823 L -51.0958,-52.5356 L -51.1734,-52.2968 L -51.2804,-52.0695
 L -51.415,-51.8574 L -51.5751,-51.6639 L -51.7582,-51.492 L -51.9613,-51.3443 L -52.1814,-51.2233 L -52.415,-51.1309
 L -52.6582,-51.0684 L -52.9074,-51.037 z
M 52.9074,-51.037 L 52.6582,-51.0684 L 52.415,-51.1309 L 52.1814,-51.2233 L 51.9613,-51.3443 L 51.7582,-51.492
 L 51.5751,-51.6639 L 51.415,-51.8574 L 51.2804,-52.0695 L 51.1734,-52.2968 L 51.0958,-52.5356 L 51.0488,-52.7823
 L 51.033,-53.033 L 51.0488,-53.2837 L 51.0958,-53.5304 L 51.1734,-53.7693 L 51.2804,-53.9965 L 51.415,-54.2086
 L 51.5751,-54.4021 L 51.7582,-54.574 L 51.9613,-54.7217 L 52.1814,-54.8427 L 52.415,-54.9351 L 52.6582,-54.9976
 L 52.9074,-55.0291 L 53.1586,-55.0291 L 53.4078,-54.9976 L 53.651,-54.9351 L 53.8846,-54.8427 L 54.1047,-54.7217
 L 54.3078,-54.574 L 54.4909,-54.4021 L 54.651,-54.2086 L 54.7856,-53.9965 L 54.8926,-53.7693 L 54.9702,-53.5304
 L 55.0172,-53.2837 L 55.033,-53.033 L 55.0172,-52.7823 L 54.9702,-52.5356 L 54.8926,-52.2968 L 54.7856,-52.0695
 L 54.651,-51.8574 L 54.4909,-51.6639 L 54.3078,-51.492 L 54.1047,-51.3443 L 53.8846,-51.2233 L 53.651,-51.1309
 L 53.4078,-51.0684 L 53.1586,-51.037 z
M 57.4639,-51.9352 L 57.3269,-51.9525 L 57.1931,-51.9868 L 57.0647,-52.0377 L 56.9436,-52.1042 L 56.8318,-52.1854
 L 56.7311,-52.28 L 56.6431,-52.3864 L 56.5691,-52.5031 L 56.5103,-52.6281 L 56.4676,-52.7594 L 56.4417,-52.8951
 L 56.433,-53.033 L 56.4417,-53.1709 L 56.4676,-53.3066 L 56.5103,-53.4379 L 56.5691,-53.5629 L 56.6431,-53.6796
 L 56.7311,-53.786 L 56.8318,-53.8806 L 56.9436,-53.9618 L 57.0647,-54.0283 L 57.1931,-54.0792 L 57.3269,-54.1135
 L 57.4639,-54.1308 L 57.6021,-54.1308 L 57.7391,-54.1135 L 57.8729,-54.0792 L 58.0014,-54.0283 L 58.1224,-53.9618
 L 58.2342,-53.8806 L 58.3349,-53.786 L 58.4229,-53.6796 L 58.4969,-53.5629 L 58.5558,-53.4379 L 58.5984,-53.3066
 L 58.6243,-53.1709 L 58.633,-53.033 L 58.6243,-52.8951 L 58.5984,-52.7594 L 58.5558,-52.6281 L 58.4969,-52.5031
 L 58.4229,-52.3864 L 58.3349,-52.28 L 58.2342,-52.1854 L 58.1224,-52.1042 L 58.0014,-52.0377 L 57.8729,-51.9868
 L 57.7391,-51.9525 L 57.6021,-51.9352 z
M -48.6021,-51.9352 L -48.7391,-51.9525 L -48.8729,-51.9868 L -49.0014,-52.0377 L -49.1224,-52.1042 L -49.2342,-52.1854
 L -49.3349,-52.28 L -49.4229,-52.3864 L -49.4969,-52.5031 L -49.5558,-52.6281 L -49.5984,-52.7594 L -49.6243,-52.8951
 L -49.633,-53.033 L -49.6243,-53.1709 L -49.5984,-53.3066 L -49.5558,-53.4379 L -49.4969,-53.5629 L -49.4229,-53.6796
 L -49.3349,-53.786 L -49.2342,-53.8806 L -49.1224,-53.9618 L -49.0014,-54.0283 L -48.8729,-54.0792 L -48.7391,-54.1135
 L -48.6021,-54.1308 L -48.4639,-54.1308 L -48.3269,-54.1135 L -48.1931,-54.0792 L -48.0647,-54.0283 L -47.9436,-53.9618
 L -47.8318,-53.8806 L -47.7311,-53.786 L -47.6431,-53.6796 L -47.5691,-53.5629 L -47.5103,-53.4379 L -47.4676,-53.3066
 L -47.4417,-53.1709 L -47.433,-53.033 L -47.4417,-52.8951 L -47.4676,-52.7594 L -47.5103,-52.6281 L -47.5691,-52.5031
 L -47.6431,-52.3864 L -47.7311,-52.28 L -47.8318,-52.1854 L -47.9436,-52.1042 L -48.0647,-52.0377 L -48.1931,-51.9868
 L -48.3269,-51.9525 L -48.4639,-51.9352 z
M -57.6021,-51.9352 L -57.7391,-51.9525 L -57.8729,-51.9868 L -58.0014,-52.0377 L -58.1224,-52.1042 L -58.2342,-52.1854
 L -58.3349,-52.28 L -58.4229,-52.3864 L -58.4969,-52.5031 L -58.5558,-52.6281 L -58.5984,-52.7594 L -58.6243,-52.8951
 L -58.633,-53.033 L -58.6243,-53.1709 L -58.5984,-53.3066 L -58.5558,-53.4379 L -58.4969,-53.5629 L -58.4229,-53.6796
 L -58.3349,-53.786 L -58.2342,-53.8806 L -58.1224,-53.9618 L -58.0014,-54.0283 L -57.8729,-54.0792 L -57.7391,-54.1135
 L -57.6021,-54.1308 L -57.4639,-54.1308 L -57.3269,-54.1135 L -57.1931,-54.0792 L -57.0647,-54.0283 L -56.9436,-53.9618
 L -56.8318,-53.8806 L -56.7311,-53.786 L -56.6431,-53.6796 L -56.5691,-53.5629 L -56.5103,-53.4379 L -56.4676,-53.3066
 L -56.4417,-53.1709 L -56.433,-53.033 L -56.4417,-52.8951 L -56.4676,-52.7594 L -56.5103,-52.6281 L -56.5691,-52.5031
 L -56.6431,-52.3864 L -56.7311,-52.28 L -56.8318,-52.1854 L -56.9436,-52.1042 L -57.0647,-52.0377 L -57.1931,-51.9868
 L -57.3269,-51.9525 L -57.4639,-51.9352 z
M 48.4639,-51.9352 L 48.3269,-51.9525 L 48.1931,-51.9868 L 48.0647,-52.0377 L 47.9436,-52.1042 L 47.8318,-52.1854
 L 47.7311,-52.28 L 47.6431,-52.3864 L 47.5691,-52.5031 L 47.5103,-52.6281 L 47.4676,-52.7594 L 47.4417,-52.8951
 L 47.433,-53.033 L 47.4417,-53.1709 L 47.4676,-53.3066 L 47.5103,-53.4379 L 47.5691,-53.5629 L 47.6431,-53.6796
 L 47.7311,-53.786 L 47.8318,-53.8806 L 47.9436,-53.9618 L 48.0647,-54.0283 L 48.1931,-54.0792 L 48.3269,-54.1135
 L 48.4639,-54.1308 L 48.6021,-54.1308 L 48.7391,-54.1135 L 48.8729,-54.0792 L 49.0014,-54.0283 L 49.1224,-53.9618
 L 49.2342,-53.8806 L 49.3349,-53.786 L 49.4229,-53.6796 L 49.4969,-53.5629 L 49.5558,-53.4379 L 49.5984,-53.3066
 L 49.6243,-53.1709 L 49.633,-53.033 L 49.6243,-52.8951 L 49.5984,-52.7594 L 49.5558,-52.6281 L 49.4969,-52.5031
 L 49.4229,-52.3864 L 49.3349,-52.28 L 49.2342,-52.1854 L 49.1224,-52.1042 L 49.0014,-52.0377 L 48.8729,-51.9868
 L 48.7391,-51.9525 L 48.6021,-51.9352 z
M -53.1021,-47.4352 L -53.2391,-47.4525 L -53.3729,-47.4868 L -53.5014,-47.5377 L -53.6224,-47.6042 L -53.7342,-47.6854
 L -53.8349,-47.78 L -53.9229,-47.8864 L -53.9969,-48.0031 L -54.0558,-48.1281 L -54.0984,-48.2594 L -54.1243,-48.3951
 L -54.133,-48.533 L -54.1243,-48.6709 L -54.0984,-48.8066 L -54.0558,-48.9379 L -53.9969,-49.0629 L -53.9229,-49.1796
 L -53.8349,-49.286 L -53.7342,-49.3806 L -53.6224,-49.4618 L -53.5014,-49.5283 L -53.3729,-49.5792 L -53.2391,-49.6135
 L -53.1021,-49.6308 L -52.9639,-49.6308 L -52.8269,-49.6135 L -52.6931,-49.5792 L -52.5647,-49.5283 L -52.4436,-49.4618
 L -52.3318,-49.3806 L -52.2311,-49.286 L -52.1431,-49.1796 L -52.0691,-49.0629 L -52.0103,-48.9379 L -51.9676,-48.8066
 L -51.9417,-48.6709 L -51.933,-48.533 L -51.9417,-48.3951 L -51.9676,-48.2594 L -52.0103,-48.1281 L -52.0691,-48.0031
 L -52.1431,-47.8864 L -52.2311,-47.78 L -52.3318,-47.6854 L -52.4436,-47.6042 L -52.5647,-47.5377 L -52.6931,-47.4868
 L -52.8269,-47.4525 L -52.9639,-47.4352 z
M 52.9639,-47.4352 L 52.8269,-47.4525 L 52.6931,-47.4868 L 52.5647,-47.5377 L 52.4436,-47.6042 L 52.3318,-47.6854
 L 52.2311,-47.78 L 52.1431,-47.8864 L 52.0691,-48.0031 L 52.0103,-48.1281 L 51.9676,-48.2594 L 51.9417,-48.3951
 L 51.933,-48.533 L 51.9417,-48.6709 L 51.9676,-48.8066 L 52.0103,-48.9379 L 52.0691,-49.0629 L 52.1431,-49.1796
 L 52.2311,-49.286 L 52.3318,-49.3806 L 52.4436,-49.4618 L 52.5647,-49.5283 L 52.6931,-49.5792 L 52.8269,-49.6135
 L 52.9639,-49.6308 L 53.1021,-49.6308 L 53.2391,-49.6135 L 53.3729,-49.5792 L 53.5014,-49.5283 L 53.6224,-49.4618
 L 53.7342,-49.3806 L 53.8349,-49.286 L 53.9229,-49.1796 L 53.9969,-49.0629 L 54.0558,-48.9379 L 54.0984,-48.8066
 L 54.1243,-48.6709 L 54.133,-48.533 L 54.1243,-48.3951 L 54.0984,-48.2594 L 54.0558,-48.1281 L 53.9969,-48.0031
 L 53.9229,-47.8864 L 53.8349,-47.78 L 53.7342,-47.6854 L 53.6224,-47.6042 L 53.5014,-47.5377 L 53.3729,-47.4868
 L 53.2391,-47.4525 L 53.1021,-47.4352 z
M 19.8995,-18.4032 L 19.7002,-18.4283 L 19.5056,-18.4783 L 19.3187,-18.5523 L 19.1427,-18.6491 L 18.9801,-18.7672
 L 18.8336,-18.9047 L 18.7056,-19.0595 L 18.5979,-19.2292 L 18.5123,-19.411 L 18.4503,-19.6021 L 18.4126,-19.7995
 L 18.4,-20 L 18.4126,-20.2005 L 18.4503,-20.3979 L 18.5123,-20.589 L 18.5979,-20.7708 L 18.7056,-20.9404
 L 18.8336,-21.0953 L 18.9801,-21.2328 L 19.1427,-21.3509 L 19.3187,-21.4477 L 19.5056,-21.5217 L 19.7002,-21.5717
 L 19.8995,-21.5968 L 20.1005,-21.5968 L 20.2998,-21.5717 L 20.4944,-21.5217 L 20.6812,-21.4477 L 20.8573,-21.3509
 L 21.0199,-21.2328 L 21.1663,-21.0953 L 21.2944,-20.9404 L 21.4021,-20.7708 L 21.4876,-20.589 L 21.5497,-20.3979
 L 21.5874,-20.2005 L 21.6,-20 L 21.5874,-19.7995 L 21.5497,-19.6021 L 21.4876,-19.411 L 21.4021,-19.2292
 L 21.2944,-19.0595 L 21.1663,-18.9047 L 21.0199,-18.7672 L 20.8573,-18.6491 L 20.6812,-18.5523 L 20.4944,-18.4783
 L 20.2998,-18.4283 L 20.1005,-18.4032 z
M -20.1005,-18.4032 L -20.2998,-18.4283 L -20.4944,-18.4783 L -20.6812,-18.5523 L -20.8573,-18.6491 L -21.0199,-18.7672
 L -21.1663,-18.9047 L -21.2944,-19.0595 L -21.4021,-19.2292 L -21.4876,-19.411 L -21.5497,-19.6021 L -21.5874,-19.7995
 L -21.6,-20 L -21.5874,-20.2005 L -21.5497,-20.3979 L -21.4876,-20.589 L -21.4021,-20.7708 L -21.2944,-20.9404
 L -21.1663,-21.0953 L -21.0199,-21.2328 L -20.8573,-21.3509 L -20.6812,-21.4477 L -20.4944,-21.5217 L -20.2998,-21.5717
 L -20.1005,-21.5968 L -19.8995,-21.5968 L -19.7002,-21.5717 L -19.5056,-21.5217 L -19.3187,-21.4477 L -19.1427,-21.3509
 L -18.9801,-21.2328 L -18.8336,-21.0953 L -18.7056,-20.9404 L -18.5979,-20.7708 L -18.5123,-20.589 L -18.4503,-20.3979
 L -18.4126,-20.2005 L -18.4,-20 L -18.4126,-19.7995 L -18.4503,-19.6021 L -18.5123,-19.411 L -18.5979,-19.2292
 L -18.7056,-19.0595 L -18.8336,-18.9047 L -18.9801,-18.7672 L -19.1427,-18.6491 L -19.3187,-18.5523 L -19.5056,-18.4783
 L -19.7002,-18.4283 L -19.8995,-18.4032 z
M -4.06279,-10.002 L -4.18738,-10.0177 L -4.30901,-10.0489 L -4.42577,-10.0952 L -4.53581,-10.1557 L -4.63742,-10.2295
 L -4.72896,-10.3154 L -4.80901,-10.4122 L -4.8763,-10.5182 L -4.92976,-10.6319 L -4.96858,-10.7513 L -4.99211,-10.8747
 L -5,-11 L -5,-14 L -4.99211,-14.1253 L -4.96858,-14.2487 L -4.92976,-14.3681 L -4.8763,-14.4818
 L -4.80901,-14.5878 L -4.72896,-14.6845 L -4.63742,-14.7705 L -4.53581,-14.8443 L -4.42577,-14.9048 L -4.30901,-14.951
 L -4.18738,-14.9823 L -4.06279,-14.998 L 4.06279,-14.998 L 4.18738,-14.9823 L 4.30901,-14.951 L 4.42577,-14.9048
 L 4.53581,-14.8443 L 4.63742,-14.7705 L 4.72896,-14.6845 L 4.80901,-14.5878 L 4.8763,-14.4818 L 4.92976,-14.3681
 L 4.96858,-14.2487 L 4.99211,-14.1253 L 5,-14 L 5,-11 L 4.99211,-10.8747 L 4.96858,-10.7513
 L 4.92976,-10.6319 L 4.8763,-10.5182 L 4.80901,-10.4122 L 4.72896,-10.3154 L 4.63742,-10.2295 L 4.53581,-10.1557
 L 4.42577,-10.0952 L 4.30901,-10.0489 L 4.18738,-10.0177 L 4.06279,-10.002 z
M 9.93092,-8.90216 L 9.79387,-8.91948 L 9.66008,-8.95383 L 9.53163,-9.00468 L 9.41058,-9.07123 L 9.29883,-9.15244
 L 9.19812,-9.24699 L 9.11008,-9.35342 L 9.03606,-9.47006 L 8.97723,-9.59506 L 8.93456,-9.72644 L 8.90866,-9.86212
 L 8.89999,-10 L 8.90866,-10.1379 L 8.93456,-10.2735 L 8.97723,-10.4049 L 9.03606,-10.5299 L 9.11008,-10.6466
 L 9.19812,-10.753 L 9.29883,-10.8475 L 9.41058,-10.9288 L 9.53163,-10.9953 L 9.66008,-11.0462 L 9.79387,-11.0805
 L 9.93092,-11.0978 L 10.0691,-11.0978 L 10.2061,-11.0805 L 10.3399,-11.0462 L 10.4684,-10.9953 L 10.5894,-10.9288
 L 10.7012,-10.8475 L 10.8019,-10.753 L 10.8899,-10.6466 L 10.9639,-10.5299 L 11.0228,-10.4049 L 11.0654,-10.2735
 L 11.0913,-10.1379 L 11.1,-10 L 11.0913,-9.86212 L 11.0654,-9.72644 L 11.0228,-9.59506 L 10.9639,-9.47006
 L 10.8899,-9.35342 L 10.8019,-9.24699 L 10.7012,-9.15244 L 10.5894,-9.07123 L 10.4684,-9.00468 L 10.3399,-8.95383
 L 10.2061,-8.91948 L 10.0691,-8.90216 z
M -10.0691,-8.90216 L -10.2061,-8.91948 L -10.3399,-8.95383 L -10.4684,-9.00468 L -10.5894,-9.07123 L -10.7012,-9.15244
 L -10.8019,-9.24699 L -10.8899,-9.35342 L -10.9639,-9.47006 L -11.0228,-9.59506 L -11.0654,-9.72644 L -11.0913,-9.86212
 L -11.1,-10 L -11.0913,-10.1379 L -11.0654,-10.2735 L -11.0228,-10.4049 L -10.9639,-10.5299 L -10.8899,-10.6466
 L -10.8019,-10.753 L -10.7012,-10.8475 L -10.5894,-10.9288 L -10.4684,-10.9953 L -10.3399,-11.0462 L -10.2061,-11.0805
 L -10.0691,-11.0978 L -9.93092,-11.0978 L -9.79387,-11.0805 L -9.66008,-11.0462 L -9.53163,-10.9953 L -9.41058,-10.9288
 L -9.29883,-10.8475 L -9.19812,-10.753 L -9.11008,-10.6466 L -9.03606,-10.5299 L -8.97723,-10.4049 L -8.93456,-10.2735
 L -8.90866,-10.1379 L -8.89999,-10 L -8.90866,-9.86212 L -8.93456,-9.72644 L -8.97723,-9.59506 L -9.03606,-9.47006
 L -9.11008,-9.35342 L -9.19812,-9.24699 L -9.29883,-9.15244 L -9.41058,-9.07123 L -9.53163,-9.00468 L -9.66008,-8.95383
 L -9.79387,-8.91948 L -9.93092,-8.90216 z
M -0.31395,4.99013 L -0.936905,4.91142 L -1.54507,4.75528 L -2.12889,4.52412 L -2.67912,4.22163 L -3.18712,3.85255
 L -3.64484,3.42273 L -4.04507,2.93892 L -4.38153,2.40877 L -4.64888,1.84062 L -4.84291,1.24344 L -4.96057,0.626663
 L -5,-0 L -4.96057,-0.626663 L -4.84291,-1.24344 L -4.64888,-1.84062 L -4.38153,-2.40877 L -4.04507,-2.93892
 L -3.64484,-3.42273 L -3.18712,-3.85255 L -2.67912,-4.22163 L -2.12889,-4.52412 L -1.54507,-4.75528 L -0.936905,-4.91142
 L -0.31395,-4.99013 L 0.31395,-4.99013 L 0.936905,-4.91142 L 1.54507,-4.75528 L 2.12889,-4.52412 L 2.67912,-4.22163
 L 3.18712,-3.85255 L 3.64484,-3.42273 L 4.04507,-2.93892 L 4.38153,-2.40877 L 4.64888,-1.84062 L 4.84291,-1.24344
 L 4.96057,-0.626663 L 5,-0 L 4.96057,0.626663 L 4.84291,1.24344 L 4.64888,1.84062 L 4.38153,2.40877
 L 4.04507,2.93892 L 3.64484,3.42273 L 3.18712,3.85255 L 2.67912,4.22163 L 2.12889,4.52412 L 1.54507,4.75528
 L 0.936905,4.91142 L 0.31395,4.99013 z
M -10.0691,11.0978 L -10.2061,11.0805 L -10.3399,11.0462 L -10.4684,10.9953 L -10.5894,10.9288 L -10.7012,10.8475
 L -10.8019,10.753 L -10.8899,10.6466 L -10.9639,10.5299 L -11.0228,10.4049 L -11.0654,10.2735 L -11.0913,10.1379
 L -11.1,10 L -11.0913,9.86212 L -11.0654,9.72644 L -11.0228,9.59506 L -10.9639,9.47006 L -10.8899,9.35342
 L -10.8019,9.24699 L -10.7012,9.15244 L -10.5894,9.07123 L -10.4684,9.00468 L -10.3399,8.95383 L -10.2061,8.91948
 L -10.0691,8.90216 L -9.93092,8.90216 L -9.79387,8.91948 L -9.66008,8.95383 L -9.53163,9.00468 L -9.41058,9.07123
 L -9.29883,9.15244 L -9.19812,9.24699 L -9.11008,9.35342 L -9.03606,9.47006 L -8.97723,9.59506 L -8.93456,9.72644
 L -8.90866,9.86212 L -8.89999,10 L -8.90866,10.1379 L -8.93456,10.2735 L -8.97723,10.4049 L -9.03606,10.5299
 L -9.11008,10.6466 L -9.19812,10.753 L -9.29883,10.8475 L -9.41058,10.9288 L -9.53163,10.9953 L -9.66008,11.0462
 L -9.79387,11.0805 L -9.93092,11.0978 z
M 9.93092,11.0978 L 9.79387,11.0805 L 9.66008,11.0462 L 9.53163,10.9953 L 9.41058,10.9288 L 9.29883,10.8475
 L 9.19812,10.753 L 9.11008,10.6466 L 9.03606,10.5299 L 8.97723,10.4049 L 8.93456,10.2735 L 8.90866,10.1379
 L 8.89999,10 L 8.90866,9.86212 L 8.93456,9.72644 L 8.97723,9.59506 L 9.03606,9.47006 L 9.11008,9.35342
 L 9.19812,9.24699 L 9.29883,9.15244 L 9.41058,9.07123 L 9.53163,9.00468 L 9.66008,8.95383 L 9.79387,8.91948
 L 9.93092,8.90216 L 10.0691,8.90216 L 10.2061,8.91948 L 10.3399,8.95383 L 10.4684,9.00468 L 10.5894,9.07123
 L 10.7012,9.15244 L 10.8019,9.24699 L 10.8899,9.35342 L 10.9639,9.47006 L 11.0228,9.59506 L 11.0654,9.72644
 L 11.0913,9.86212 L 11.1,10 L 11.0913,10.1379 L 11.0654,10.2735 L 11.0228,10.4049 L 10.9639,10.5299
 L 10.8899,10.6466 L 10.8019,10.753 L 10.7012,10.8475 L 10.5894,10.9288 L 10.4684,10.9953 L 10.3399,11.0462
 L 10.2061,11.0805 L 10.0691,11.0978 z
M -4.06279,14.998 L -4.18738,14.9823 L -4.30901,14.951 L -4.42577,14.9048 L -4.53581,14.8443 L -4.63742,14.7705
 L -4.72896,14.6845 L -4.80901,14.5878 L -4.8763,14.4818 L -4.92976,14.3681 L -4.96858,14.2487 L -4.99211,14.1253
 L -5,14 L -5,11 L -4.99211,10.8747 L -4.96858,10.7513 L -4.92976,10.6319 L -4.8763,10.5182
 L -4.80901,10.4122 L -4.72896,10.3154 L -4.63742,10.2295 L -4.53581,10.1557 L -4.42577,10.0952 L -4.30901,10.0489
 L -4.18738,10.0177 L -4.06279,10.002 L 4.06279,10.002 L 4.18738,10.0177 L 4.30901,10.0489 L 4.42577,10.0952
 L 4.53581,10.1557 L 4.63742,10.2295 L 4.72896,10.3154 L 4.80901,10.4122 L 4.8763,10.5182 L 4.92976,10.6319
 L 4.96858,10.7513 L 4.99211,10.8747 L 5,11 L 5,14 L 4.99211,14.1253 L 4.96858,14.2487
 L 4.92976,14.3681 L 4.8763,14.4818 L 4.80901,14.5878 L 4.72896,14.6845 L 4.63742,14.7705 L 4.53581,14.8443
 L 4.42577,14.9048 L 4.30901,14.951 L 4.18738,14.9823 L 4.06279,14.998 z
M 19.8995,21.5968 L 19.7002,21.5717 L 19.5056,21.5217 L 19.3187,21.4477 L 19.1427,21.3509 L 18.9801,21.2328
 L 18.8336,21.0953 L 18.7056,20.9404 L 18.5979,20.7708 L 18.5123,20.589 L 18.4503,20.3979 L 18.4126,20.2005
 L 18.4,20 L 18.4126,19.7995 L 18.4503,19.6021 L 18.5123,19.411 L 18.5979,19.2292 L 18.7056,19.0595
 L 18.8336,18.9047 L 18.9801,18.7672 L 19.1427,18.6491 L 19.3187,18.5523 L 19.5056,18.4783 L 19.7002,18.4283
 L 19.8995,18.4032 L 20.1005,18.4032 L 20.2998,18.4283 L 20.4944,18.4783 L 20.6812,18.5523 L 20.8573,18.6491
 L 21.0199,18.7672 L 21.1663,18.9047 L 21.2944,19.0595 L 21.4021,19.2292 L 21.4876,19.411 L 21.5497,19.6021
 L 21.5874,19.7995 L 21.6,20 L 21.5874,20.2005 L 21.5497,20.3979 L 21.4876,20.589 L 21.4021,20.7708
 L 21.2944,20.9404 L 21.1663,21.0953 L 21.0199,21.2328 L 20.8573,21.3509 L 20.6812,21.4477 L 20.4944,21.5217
 L 20.2998,21.5717 L 20.1005,21.5968 z
M -20.1005,21.5968 L -20.2998,21.5717 L -20.4944,21.5217 L -20.6812,21.4477 L -20.8573,21.3509 L -21.0199,21.2328
 L -21.1663,21.0953 L -21.2944,20.9404 L -21.4021,20.7708 L -21.4876,20.589 L -21.5497,20.3979 L -21.5874,20.2005
 L -21.6,20 L -21.5874,19.7995 L -21.5497,19.6021 L -21.4876,19.411 L -21.4021,19.2292 L -21.2944,19.0595
 L -21.1663,18.9047 L -21.0199,18.7672 L -20.8573,18.6491 L -20.6812,18.5523 L -20.4944,18.4783 L -20.2998,18.4283
 L -20.1005,18.4032 L -19.8995,18.4032 L -19.7002,18.4283 L -19.5056,18.4783 L -19.3187,18.5523 L -19.1427,18.6491
 L -18.9801,18.7672 L -18.8336,18.9047 L -18.7056,19.0595 L -18.5979,19.2292 L -18.5123,19.411 L -18.4503,19.6021
 L -18.4126,19.7995 L -18.4,20 L -18.4126,20.2005 L -18.4503,20.3979 L -18.5123,20.589 L -18.5979,20.7708
 L -18.7056,20.9404 L -18.8336,21.0953 L -18.9801,21.2328 L -19.1427,21.3509 L -19.3187,21.4477 L -19.5056,21.5217
 L -19.7002,21.5717 L -19.8995,21.5968 z
M -53.1021,49.6308 L -53.2391,49.6135 L -53.3729,49.5792 L -53.5014,49.5283 L -53.6224,49.4618 L -53.7342,49.3806
 L -53.8349,49.286 L -53.9229,49.1796 L -53.9969,49.0629 L -54.0558,48.9379 L -54.0984,48.8066 L -54.1243,48.6709
 L -54.133,48.533 L -54.1243,48.3951 L -54.0984,48.2594 L -54.0558,48.1281 L -53.9969,48.0031 L -53.9229,47.8864
 L -53.8349,47.78 L -53.7342,47.6854 L -53.6224,47.6042 L -53.5014,47.5377 L -53.3729,47.4868 L -53.2391,47.4525
 L -53.1021,47.4352 L -52.9639,47.4352 L -52.8269,47.4525 L -52.6931,47.4868 L -52.5647,47.5377 L -52.4436,47.6042
 L -52.3318,47.6854 L -52.2311,47.78 L -52.1431,47.8864 L -52.0691,48.0031 L -52.0103,48.1281 L -51.9676,48.2594
 L -51.9417,48.3951 L -51.933,48.533 L -51.9417,48.6709 L -51.9676,48.8066 L -52.0103,48.9379 L -52.0691,49.0629
 L -52.1431,49.1796 L -52.2311,49.286 L -52.3318,49.3806 L -52.4436,49.4618 L -52.5647,49.5283 L -52.6931,49.5792
 L -52.8269,49.6135 L -52.9639,49.6308 z
M 52.9639,49.6308 L 52.8269,49.6135 L 52.6931,49.5792 L 52.5647,49.5283 L 52.4436,49.4618 L 52.3318,49.3806
 L 52.2311,49.286 L 52.1431,49.1796 L 52.0691,49.0629 L 52.0103,48.9379 L 51.9676,48.8066 L 51.9417,48.6709
 L 51.933,48.533 L 51.9417,48.3951 L 51.9676,48.2594 L 52.0103,48.1281 L 52.0691,48.0031 L 52.1431,47.8864
 L 52.2311,47.78 L 52.3318,47.6854 L 52.4436,47.6042 L 52.5647,47.5377 L 52.6931,47.4868 L 52.8269,47.4525
 L 52.9639,47.4352 L 53.1021,47.4352 L 53.2391,47.4525 L 53.3729,47.4868 L 53.5014,47.5377 L 53.6224,47.6042
 L 53.7342,47.6854 L 53.8349,47.78 L 53.9229,47.8864 L 53.9969,48.0031 L 54.0558,48.1281 L 54.0984,48.2594
 L 54.1243,48.3951 L 54.133,48.533 L 54.1243,48.6709 L 54.0984,48.8066 L 54.0558,48.9379 L 53.9969,49.0629
 L 53.9229,49.1796 L 53.8349,49.286 L 53.7342,49.3806 L 53.6224,49.4618 L 53.5014,49.5283 L 53.3729,49.5792
 L 53.2391,49.6135 L 53.1021,49.6308 z
M 52.9074,55.0291 L 52.6582,54.9976 L 52.415,54.9351 L 52.1814,54.8427 L 51.9613,54.7217 L 51.7582,54.574
 L 51.5751,54.4021 L 51.415,54.2086 L 51.2804,53.9965 L 51.1734,53.7693 L 51.0958,53.5304 L 51.0488,53.2837
 L 51.033,53.033 L 51.0488,52.7823 L 51.0958,52.5356 L 51.1734,52.2968 L 51.2804,52.0695 L 51.415,51.8574
 L 51.5751,51.6639 L 51.7582,51.492 L 51.9613,51.3443 L 52.1814,51.2233 L 52.415,51.1309 L 52.6582,51.0684
 L 52.9074,51.037 L 53.1586,51.037 L 53.4078,51.0684 L 53.651,51.1309 L 53.8846,51.2233 L 54.1047,51.3443
 L 54.3078,51.492 L 54.4909,51.6639 L 54.651,51.8574 L 54.7856,52.0695 L 54.8926,52.2968 L 54.9702,52.5356
 L 55.0172,52.7823 L 55.033,53.033 L 55.0172,53.2837 L 54.9702,53.5304 L 54.8926,53.7693 L 54.7856,53.9965
 L 54.651,54.2086 L 54.4909,54.4021 L 54.3078,54.574 L 54.1047,54.7217 L 53.8846,54.8427 L 53.651,54.9351
 L 53.4078,54.9976 L 53.1586,55.0291 z
M -53.1586,55.0291 L -53.4078,54.9976 L -53.651,54.9351 L -53.8846,54.8427 L -54.1047,54.7217 L -54.3078,54.574
 L -54.4909,54.4021 L -54.651,54.2086 L -54.7856,53.9965 L -54.8926,53.7693 L -54.9702,53.5304 L -55.0172,53.2837
 L -55.033,53.033 L -55.0172,52.7823 L -54.9702,52.5356 L -54.8926,52.2968 L -54.7856,52.0695 L -54.651,51.8574
 L -54.4909,51.6639 L -54.3078,51.492 L -54.1047,51.3443 L -53.8846,51.2233 L -53.651,51.1309 L -53.4078,51.0684
 L -53.1586,51.037 L -52.9074,51.037 L -52.6582,51.0684 L -52.415,51.1309 L -52.1814,51.2233 L -51.9613,51.3443
 L -51.7582,51.492 L -51.5751,51.6639 L -51.415,51.8574 L -51.2804,52.0695 L -51.1734,52.2968 L -51.0958,52.5356
 L -51.0488,52.7823 L -51.033,53.033 L -51.0488,53.2837 L -51.0958,53.5304 L -51.1734,53.7693 L -51.2804,53.9965
 L -51.415,54.2086 L -51.5751,54.4021 L -51.7582,54.574 L -51.9613,54.7217 L -52.1814,54.8427 L -52.415,54.9351
 L -52.6582,54.9976 L -52.9074,55.0291 z
M -48.6021,54.1308 L -48.7391,54.1135 L -48.8729,54.0792 L -49.0014,54.0283 L -49.1224,53.9618 L -49.2342,53.8806
 L -49.3349,53.786 L -49.4229,53.6796 L -49.4969,53.5629 L -49.5558,53.4379 L -49.5984,53.3066 L -49.6243,53.1709
 L -49.633,53.033 L -49.6243,52.8951 L -49.5984,52.7594 L -49.5558,52.6281 L -49.4969,52.5031 L -49.4229,52.3864
 L -49.3349,52.28 L -49.2342,52.1854 L -49.1224,52.1042 L -49.0014,52.0377 L -48.8729,51.9868 L -48.7391,51.9525
 L -48.6021,51.9352 L -48.4639,51.9352 L -48.3269,51.9525 L -48.1931,51.9868 L -48.0647,52.0377 L -47.9436,52.1042
 L -47.8318,52.1854 L -47.7311,52.28 L -47.6431,52.3864 L -47.5691,52.5031 L -47.5103,52.6281 L -47.4676,52.7594
 L -47.4417,52.8951 L -47.433,53.033 L -47.4417,53.1709 L -47.4676,53.3066 L -47.5103,53.4379 L -47.5691,53.5629
 L -47.6431,53.6796 L -47.7311,53.786 L -47.8318,53.8806 L -47.9436,53.9618 L -48.0647,54.0283 L -48.1931,54.0792
 L -48.3269,54.1135 L -48.4639,54.1308 z
M 48.4639,54.1308 L 48.3269,54.1135 L 48.1931,54.0792 L 48.0647,54.0283 L 47.9436,53.9618 L 47.8318,53.8806
 L 47.7311,53.786 L 47.6431,53.6796 L 47.5691,53.5629 L 47.5103,53.4379 L 47.4676,53.3066 L 47.4417,53.1709
 L 47.433,53.033 L 47.4417,52.8951 L 47.4676,52.7594 L 47.5103,52.6281 L 47.5691,52.5031 L 47.6431,52.3864
 L 47.7311,52.28 L 47.8318,52.1854 L 47.9436,52.1042 L 48.0647,52.0377 L 48.1931,51.9868 L 48.3269,51.9525
 L 48.4639,51.9352 L 48.6021,51.9352 L 48.7391,51.9525 L 48.8729,51.9868 L 49.0014,52.0377 L 49.1224,52.1042
 L 49.2342,52.1854 L 49.3349,52.28 L 49.4229,52.3864 L 49.4969,52.5031 L 49.5558,52.6281 L 49.5984,52.7594
 L 49.6243,52.8951 L 49.633,53.033 L 49.6243,53.1709 L 49.5984,53.3066 L 49.5558,53.4379 L 49.4969,53.5629
 L 49.4229,53.6796 L 49.3349,53.786 L 49.2342,53.8806 L 49.1224,53.9618 L 49.0014,54.0283 L 48.8729,54.0792
 L 48.7391,54.1135 L 48.6021,54.1308 z
M 57.4639,54.1308 L 57.3269,54.1135 L 57.1931,54.0792 L 57.0647,54.0283 L 56.9436,53.9618 L 56.8318,53.8806
 L 56.7311,53.786 L 56.6431,53.6796 L 56.5691,53.5629 L 56.5103,53.4379 L 56.4676,53.3066 L 56.4417,53.1709
 L 56.433,53.033 L 56.4417,52.8951 L 56.4676,52.7594 L 56.5103,52.6281 L 56.5691,52.5031 L 56.6431,52.3864
 L 56.7311,52.28 L 56.8318,52.1854 L 56.9436,52.1042 L 57.0647,52.0377 L 57.1931,51.9868 L 57.3269,51.9525
 L 57.4639,51.9352 L 57.6021,51.9352 L 57.7391,51.9525 L 57.8729,51.9868 L 58.0014,52.0377 L 58.1224,52.1042
 L 58.2342,52.1854 L 58.3349,52.28 L 58.4229,52.3864 L 58.4969,52.5031 L 58.5558,52.6281 L 58.5984,52.7594
 L 58.6243,52.8951 L 58.633,53.033 L 58.6243,53.1709 L 58.5984,53.3066 L 58.5558,53.4379 L 58.4969,53.5629
 L 58.4229,53.6796 L 58.3349,53.786 L 58.2342,53.8806 L 58.1224,53.9618 L 58.0014,54.0283 L 57.8729,54.0792
 L 57.7391,54.1135 L 57.6021,54.1308 z
M -57.6021,54.1308 L -57.7391,54.1135 L -57.8729,54.0792 L -58.0014,54.0283 L -58.1224,53.9618 L -58.2342,53.8806
 L -58.3349,53.786 L -58.4229,53.6796 L -58.4969,53.5629 L -58.5558,53.4379 L -58.5984,53.3066 L -58.6243,53.1709
 L -58.633,53.033 L -58.6243,52.8951 L -58.5984,52.7594 L -58.5558,52.6281 L -58.4969,52.5031 L -58.4229,52.3864
 L -58.3349,52.28 L -58.2342,52.1854 L -58.1224,52.1042 L -58.0014,52.0377 L -57.8729,51.9868 L -57.7391,51.9525
 L -57.6021,51.9352 L -57.4639,51.9352 L -57.3269,51.9525 L -57.1931,51.9868 L -57.0647,52.0377 L -56.9436,52.1042
 L -56.8318,52.1854 L -56.7311,52.28 L -56.6431,52.3864 L -56.5691,52.5031 L -56.5103,52.6281 L -56.4676,52.7594
 L -56.4417,52.8951 L -56.433,53.033 L -56.4417,53.1709 L -56.4676,53.3066 L -56.5103,53.4379 L -56.5691,53.5629
 L -56.6431,53.6796 L -56.7311,53.786 L -56.8318,53.8806 L -56.9436,53.9618 L -57.0647,54.0283 L -57.1931,54.0792
 L -57.3269,54.1135 L -57.4639,54.1308 z
M 52.9639,58.6308 L 52.8269,58.6135 L 52.6931,58.5792 L 52.5647,58.5283 L 52.4436,58.4618 L 52.3318,58.3806
 L 52.2311,58.286 L 52.1431,58.1796 L 52.0691,58.0629 L 52.0103,57.9379 L 51.9676,57.8066 L 51.9417,57.6709
 L 51.933,57.533 L 51.9417,57.3951 L 51.9676,57.2594 L 52.0103,57.1281 L 52.0691,57.0031 L 52.1431,56.8864
 L 52.2311,56.78 L 52.3318,56.6854 L 52.4436,56.6042 L 52.5647,56.5377 L 52.6931,56.4868 L 52.8269,56.4525
 L 52.9639,56.4352 L 53.1021,56.4352 L 53.2391,56.4525 L 53.3729,56.4868 L 53.5014,56.5377 L 53.6224,56.6042
 L 53.7342,56.6854 L 53.8349,56.78 L 53.9229,56.8864 L 53.9969,57.0031 L 54.0558,57.1281 L 54.0984,57.2594
 L 54.1243,57.3951 L 54.133,57.533 L 54.1243,57.6709 L 54.0984,57.8066 L 54.0558,57.9379 L 53.9969,58.0629
 L 53.9229,58.1796 L 53.8349,58.286 L 53.7342,58.3806 L 53.6224,58.4618 L 53.5014,58.5283 L 53.3729,58.5792
 L 53.2391,58.6135 L 53.1021,58.6308 z
M -53.1021,58.6308 L -53.2391,58.6135 L -53.3729,58.5792 L -53.5014,58.5283 L -53.6224,58.4618 L -53.7342,58.3806
 L -53.8349,58.286 L -53.9229,58.1796 L -53.9969,58.0629 L -54.0558,57.9379 L -54.0984,57.8066 L -54.1243,57.6709
 L -54.133,57.533 L -54.1243,57.3951 L -54.0984,57.2594 L -54.0558,57.1281 L -53.9969,57.0031 L -53.9229,56.8864
 L -53.8349,56.78 L -53.7342,56.6854 L -53.6224,56.6042 L -53.5014,56.5377 L -53.3729,56.4868 L -53.2391,56.4525
 L -53.1021,56.4352 L -52.9639,56.4352 L -52.8269,56.4525 L -52.6931,56.4868 L -52.5647,56.5377 L -52.4436,56.6042
 L -52.3318,56.6854 L -52.2311,56.78 L -52.1431,56.8864 L -52.0691,57.0031 L -52.0103,57.1281 L -51.9676,57.2594
 L -51.9417,57.3951 L -51.933,57.533 L -51.9417,57.6709 L -51.9676,57.8066 L -52.0103,57.9379 L -52.0691,58.0629
 L -52.1431,58.1796 L -52.2311,58.286 L -52.3318,58.3806 L -52.4436,58.4618 L -52.5647,58.5283 L -52.6931,58.5792
 L -52.8269,58.6135 L -52.9639,58.6308 z
M 61.4053,27.3671 L 62.3176,27.1329 L 63.1933,26.7862 L 64.0187,26.3325 L 64.7807,25.7788 L 65.4673,25.1341
 L 70.6014,20 L 89.3986,20 L 94.5327,25.1341 L 95.2193,25.7788 L 95.9813,26.3325 L 96.8067,26.7862
 L 97.6824,27.1329 L 98.5946,27.3671 L 99.5291,27.4852 L 100.471,27.4852 L 101.405,27.3671 L 102.318,27.1329
 L 103.193,26.7862 L 104.019,26.3325 L 104.781,25.7788 L 105.467,25.1341 L 106.068,24.4084 L 106.572,23.6131
 L 106.973,22.7609 L 107.264,21.8652 L 107.441,20.94 L 107.5,20 L 107.441,19.06 L 107.264,18.1348
 L 106.973,17.2391 L 106.572,16.3868 L 106.068,15.5916 L 105.467,14.8659 L 95.1,4.49863 L 95.1,5
 L 92.9,5 L 92.9,-4.99998 L 95.1,-4.99998 L 95.1,-4.49863 L 105.467,-14.8659 L 106.068,-15.5916
 L 106.572,-16.3868 L 106.973,-17.2391 L 107.264,-18.1348 L 107.441,-19.06 L 107.5,-20 L 107.441,-20.94
 L 107.264,-21.8652 L 106.973,-22.7609 L 106.572,-23.6131 L 106.068,-24.4084 L 105.467,-25.1341 L 104.781,-25.7788
 L 104.019,-26.3325 L 103.193,-26.7862 L 102.318,-27.1329 L 101.405,-27.3671 L 100.471,-27.4852 L 99.5291,-27.4852
 L 98.5946,-27.3671 L 97.6824,-27.1329 L 96.8067,-26.7862 L 95.9813,-26.3325 L 95.2193,-25.7788 L 94.5327,-25.1341
 L 89.3986,-20 L 70.6014,-20 L 65.4673,-25.1341 L 64.7807,-25.7788 L 64.0187,-26.3325 L 63.1933,-26.7862
 L 62.3176,-27.1329 L 61.4053,-27.3671 L 60.4709,-27.4852 L 59.5291,-27.4852 L 58.5946,-27.3671 L 57.6824,-27.1329
 L 56.8067,-26.7862 L 55.9813,-26.3325 L 55.2193,-25.7788 L 54.5327,-25.1341 L 53.9324,-24.4084 L 53.4277,-23.6131
 L 53.0267,-22.7609 L 52.7356,-21.8652 L 52.5591,-20.94 L 52.5,-20 L 52.5591,-19.06 L 52.7356,-18.1348
 L 53.0267,-17.2391 L 53.4277,-16.3868 L 53.9324,-15.5916 L 54.5327,-14.8659 L 64.9,-4.49863 L 64.9,-4.99998
 L 67.1,-4.99998 L 67.1,5 L 64.9,5 L 64.9,4.49863 L 54.5327,14.8659 L 53.9324,15.5916
 L 53.4277,16.3868 L 53.0267,17.2391 L 52.7356,18.1348 L 52.5591,19.06 L 52.5,20 L 52.5591,20.94
 L 52.7356,21.8652 L 53.0267,22.7609 L 53.4277,23.6131 L 53.9324,24.4084 L 54.5327,25.1341 L 55.2193,25.7788
 L 55.9813,26.3325 L 56.8067,26.7862 L 57.6824,27.1329 L 58.5946,27.3671 L 59.5291,27.4852 L 60.4709,27.4852
 z
M 99.8995,-18.4032 L 99.7002,-18.4283 L 99.5056,-18.4783 L 99.3188,-18.5523 L 99.1427,-18.6491 L 98.9801,-18.7672
 L 98.8336,-18.9047 L 98.7056,-19.0595 L 98.5979,-19.2292 L 98.5124,-19.411 L 98.4503,-19.6021 L 98.4126,-19.7995
 L 98.4,-20 L 98.4126,-20.2005 L 98.4503,-20.3979 L 98.5124,-20.589 L 98.5979,-20.7708 L 98.7056,-20.9404
 L 98.8336,-21.0953 L 98.9801,-21.2328 L 99.1427,-21.3509 L 99.3188,-21.4477 L 99.5056,-21.5217 L 99.7002,-21.5717
 L 99.8995,-21.5968 L 100.1,-21.5968 L 100.3,-21.5717 L 100.494,-21.5217 L 100.681,-21.4477 L 100.857,-21.3509
 L 101.02,-21.2328 L 101.166,-21.0953 L 101.294,-20.9404 L 101.402,-20.7708 L 101.488,-20.589 L 101.55,-20.3979
 L 101.587,-20.2005 L 101.6,-20 L 101.587,-19.7995 L 101.55,-19.6021 L 101.488,-19.411 L 101.402,-19.2292
 L 101.294,-19.0595 L 101.166,-18.9047 L 101.02,-18.7672 L 100.857,-18.6491 L 100.681,-18.5523 L 100.494,-18.4783
 L 100.3,-18.4283 L 100.1,-18.4032 z
M 59.8995,-18.4032 L 59.7002,-18.4283 L 59.5056,-18.4783 L 59.3187,-18.5523 L 59.1427,-18.6491 L 58.9801,-18.7672
 L 58.8336,-18.9047 L 58.7056,-19.0595 L 58.5979,-19.2292 L 58.5124,-19.411 L 58.4503,-19.6021 L 58.4126,-19.7995
 L 58.4,-20 L 58.4126,-20.2005 L 58.4503,-20.3979 L 58.5124,-20.589 L 58.5979,-20.7708 L 58.7056,-20.9404
 L 58.8336,-21.0953 L 58.9801,-21.2328 L 59.1427,-21.3509 L 59.3187,-21.4477 L 59.5056,-21.5217 L 59.7002,-21.5717
 L 59.8995,-21.5968 L 60.1005,-21.5968 L 60.2998,-21.5717 L 60.4944,-21.5217 L 60.6812,-21.4477 L 60.8573,-21.3509
 L 61.0199,-21.2328 L 61.1664,-21.0953 L 61.2944,-20.9404 L 61.4021,-20.7708 L 61.4876,-20.589 L 61.5497,-20.3979
 L 61.5874,-20.2005 L 61.6,-20 L 61.5874,-19.7995 L 61.5497,-19.6021 L 61.4876,-19.411 L 61.4021,-19.2292
 L 61.2944,-19.0595 L 61.1664,-18.9047 L 61.0199,-18.7672 L 60.8573,-18.6491 L 60.6812,-18.5523 L 60.4944,-18.4783
 L 60.2998,-18.4283 L 60.1005,-18.4032 z
M 75.9372,-10.002 L 75.8126,-10.0177 L 75.691,-10.0489 L 75.5742,-10.0952 L 75.4642,-10.1557 L 75.3626,-10.2295
 L 75.271,-10.3154 L 75.191,-10.4122 L 75.1237,-10.5182 L 75.0702,-10.6319 L 75.0314,-10.7513 L 75.0079,-10.8747
 L 75,-11 L 75,-14 L 75.0079,-14.1253 L 75.0314,-14.2487 L 75.0702,-14.3681 L 75.1237,-14.4818
 L 75.191,-14.5878 L 75.271,-14.6845 L 75.3626,-14.7705 L 75.4642,-14.8443 L 75.5742,-14.9048 L 75.691,-14.951
 L 75.8126,-14.9823 L 75.9372,-14.998 L 84.0628,-14.998 L 84.1874,-14.9823 L 84.309,-14.951 L 84.4258,-14.9048
 L 84.5358,-14.8443 L 84.6374,-14.7705 L 84.729,-14.6845 L 84.809,-14.5878 L 84.8763,-14.4818 L 84.9298,-14.3681
 L 84.9686,-14.2487 L 84.9921,-14.1253 L 85,-14 L 85,-11 L 84.9921,-10.8747 L 84.9686,-10.7513
 L 84.9298,-10.6319 L 84.8763,-10.5182 L 84.809,-10.4122 L 84.729,-10.3154 L 84.6374,-10.2295 L 84.5358,-10.1557
 L 84.4258,-10.0952 L 84.309,-10.0489 L 84.1874,-10.0177 L 84.0628,-10.002 z
M 79.6861,4.99013 L 79.0631,4.91142 L 78.4549,4.75528 L 77.8711,4.52412 L 77.3209,4.22163 L 76.8129,3.85255
 L 76.3551,3.42273 L 75.9549,2.93892 L 75.6185,2.40877 L 75.3511,1.84062 L 75.1571,1.24344 L 75.0394,0.626663
 L 75,-0 L 75.0394,-0.626663 L 75.1571,-1.24344 L 75.3511,-1.84062 L 75.6185,-2.40877 L 75.9549,-2.93892
 L 76.3551,-3.42273 L 76.8129,-3.85255 L 77.3209,-4.22163 L 77.8711,-4.52412 L 78.4549,-4.75528 L 79.0631,-4.91142
 L 79.6861,-4.99013 L 80.3139,-4.99013 L 80.9369,-4.91142 L 81.5451,-4.75528 L 82.1289,-4.52412 L 82.6791,-4.22163
 L 83.1871,-3.85255 L 83.6448,-3.42273 L 84.0451,-2.93892 L 84.3815,-2.40877 L 84.6489,-1.84062 L 84.8429,-1.24344
 L 84.9606,-0.626663 L 85,-0 L 84.9606,0.626663 L 84.8429,1.24344 L 84.6489,1.84062 L 84.3815,2.40877
 L 84.0451,2.93892 L 83.6448,3.42273 L 83.1871,3.85255 L 82.6791,4.22163 L 82.1289,4.52412 L 81.5451,4.75528
 L 80.9369,4.91142 L 80.3139,4.99013 z
M 75.9372,14.998 L 75.8126,14.9823 L 75.691,14.951 L 75.5742,14.9048 L 75.4642,14.8443 L 75.3626,14.7705
 L 75.271,14.6845 L 75.191,14.5878 L 75.1237,14.4818 L 75.0702,14.3681 L 75.0314,14.2487 L 75.0079,14.1253
 L 75,14 L 75,11 L 75.0079,10.8747 L 75.0314,10.7513 L 75.0702,10.6319 L 75.1237,10.5182
 L 75.191,10.4122 L 75.271,10.3154 L 75.3626,10.2295 L 75.4642,10.1557 L 75.5742,10.0952 L 75.691,10.0489
 L 75.8126,10.0177 L 75.9372,10.002 L 84.0628,10.002 L 84.1874,10.0177 L 84.309,10.0489 L 84.4258,10.0952
 L 84.5358,10.1557 L 84.6374,10.2295 L 84.729,10.3154 L 84.809,10.4122 L 84.8763,10.5182 L 84.9298,10.6319
 L 84.9686,10.7513 L 84.9921,10.8747 L 85,11 L 85,14 L 84.9921,14.1253 L 84.9686,14.2487
 L 84.9298,14.3681 L 84.8763,14.4818 L 84.809,14.5878 L 84.729,14.6845 L 84.6374,14.7705 L 84.5358,14.8443
 L 84.4258,14.9048 L 84.309,14.951 L 84.1874,14.9823 L 84.0628,14.998 z
M 59.8995,21.5968 L 59.7002,21.5717 L 59.5056,21.5217 L 59.3187,21.4477 L 59.1427,21.3509 L 58.9801,21.2328
 L 58.8336,21.0953 L 58.7056,20.9404 L 58.5979,20.7708 L 58.5124,20.589 L 58.4503,20.3979 L 58.4126,20.2005
 L 58.4,20 L 58.4126,19.7995 L 58.4503,19.6021 L 58.5124,19.411 L 58.5979,19.2292 L 58.7056,19.0595
 L 58.8336,18.9047 L 58.9801,18.7672 L 59.1427,18.6491 L 59.3187,18.5523 L 59.5056,18.4783 L 59.7002,18.4283
 L 59.8995,18.4032 L 60.1005,18.4032 L 60.2998,18.4283 L 60.4944,18.4783 L 60.6812,18.5523 L 60.8573,18.6491
 L 61.0199,18.7672 L 61.1664,18.9047 L 61.2944,19.0595 L 61.4021,19.2292 L 61.4876,19.411 L 61.5497,19.6021
 L 61.5874,19.7995 L 61.6,20 L 61.5874,20.2005 L 61.5497,20.3979 L 61.4876,20.589 L 61.4021,20.7708
 L 61.2944,20.9404 L 61.1664,21.0953 L 61.0199,21.2328 L 60.8573,21.3509 L 60.6812,21.4477 L 60.4944,21.5217
 L 60.2998,21.5717 L 60.1005,21.5968 z
M 99.8995,21.5968 L 99.7002,21.5717 L 99.5056,21.5217 L 99.3188,21.4477 L 99.1427,21.3509 L 98.9801,21.2328
 L 98.8336,21.0953 L 98.7056,20.9404 L 98.5979,20.7708 L 98.5124,20.589 L 98.4503,20.3979 L 98.4126,20.2005
 L 98.4,20 L 98.4126,19.7995 L 98.4503,19.6021 L 98.5124,19.411 L 98.5979,19.2292 L 98.7056,19.0595
 L 98.8336,18.9047 L 98.9801,18.7672 L 99.1427,18.6491 L 99.3188,18.5523 L 99.5056,18.4783 L 99.7002,18.4283
 L 99.8995,18.4032 L 100.1,18.4032 L 100.3,18.4283 L 100.494,18.4783 L 100.681,18.5523 L 100.857,18.6491
 L 101.02,18.7672 L 101.166,18.9047 L 101.294,19.0595 L 101.402,19.2292 L 101.488,19.411 L 101.55,19.6021
 L 101.587,19.7995 L 101.6,20 L 101.587,20.2005 L 101.55,20.3979 L 101.488,20.589 L 101.402,20.7708
 L 101.294,20.9404 L 101.166,21.0953 L 101.02,21.2328 L 100.857,21.3509 L 100.681,21.4477 L 100.494,21.5217
 L 100.3,21.5717 L 100.1,21.5968 z
" stroke="black" fill="lightgray" stroke-width="0.5"/>
</svg>
