<?xml version="1.0" encoding="UTF-8" standalone="no"?>
<svg
   xmlns:dc="http://purl.org/dc/elements/1.1/"
   xmlns:cc="http://creativecommons.org/ns#"
   xmlns:rdf="http://www.w3.org/1999/02/22-rdf-syntax-ns#"
   xmlns:svg="http://www.w3.org/2000/svg"
   xmlns="http://www.w3.org/2000/svg"
   xmlns:sodipodi="http://sodipodi.sourceforge.net/DTD/sodipodi-0.dtd"
   xmlns:inkscape="http://www.inkscape.org/namespaces/inkscape"
   width="20mm"
   height="15mm"
   viewBox="0 -13 20 15"
   version="1.1"
   id="svg6"
   sodipodi:docname="blueprint.svg"
   inkscape:version="1.0 (4035a4fb49, 2020-05-01)">
  <metadata
     id="metadata12">
    <rdf:RDF>
      <cc:Work
         rdf:about="">
        <dc:format>image/svg+xml</dc:format>
        <dc:type
           rdf:resource="http://purl.org/dc/dcmitype/StillImage" />
        <dc:title>OpenSCAD Model</dc:title>
      </cc:Work>
    </rdf:RDF>
  </metadata>
  <defs
     id="defs10">
    <marker
       style="overflow:visible"
       refY="-1.687441"
       refX="-4"
       orient="auto"
       id="CheckToolsAndOPMarker">
      <path
         id="path849"
         style="fill:#000044;fill-rule:evenodd;stroke:none"
         d="m 4.588864,-1.687441 0.0,0.0 L 9.177728,0.0 c -0.73311,-0.996261 -0.728882,-2.359329 0.0,-3.374882" />
    </marker>
    <marker
       style="overflow:visible"
       refY="-1.687441"
       refX="-4"
       orient="auto"
       id="DrawCurveMarker">
      <path
         id="path852"
         style="fill:#000044;fill-rule:evenodd;stroke:none"
         d="m 4.588864,-1.687441 0.0,0.0 L 9.177728,0.0 c -0.73311,-0.996261 -0.728882,-2.359329 0.0,-3.374882" />
    </marker>
    <marker
       style="overflow:visible"
       refY="-1.687441"
       refX="4"
       orient="auto"
       id="DrawCurveMarker_r">
      <path
         id="path855"
         style="fill:#000044;fill-rule:evenodd;stroke:none"
         d="m -4.588864,-1.687441 0.0,0.0 L -9.177728,0.0 c 0.73311,-0.996261 0.728882,-2.359329 0.0,-3.374882" />
    </marker>
    <marker
       style="overflow:visible"
       refY="-1.687441"
       refX="-4"
       orient="auto"
       id="InOutPathMarker">
      <path
         id="path858"
         style="fill:#0072a7;fill-rule:evenodd;stroke:none"
         d="m 4.588864,-1.687441 0.0,0.0 L 9.177728,0.0 c -0.73311,-0.996261 -0.728882,-2.359329 0.0,-3.374882" />
    </marker>
  </defs>
  <sodipodi:namedview
     inkscape:current-layer="layer1"
     inkscape:window-maximized="1"
     inkscape:window-y="27"
     inkscape:window-x="0"
     inkscape:cy="28.346457"
     inkscape:cx="37.795276"
     inkscape:zoom="14.569722"
     inkscape:document-units="mm"
     showgrid="true"
     id="namedview8"
     inkscape:window-height="1016"
     inkscape:window-width="1920"
     inkscape:pageshadow="2"
     inkscape:pageopacity="0"
     guidetolerance="10"
     gridtolerance="10"
     objecttolerance="10"
     borderopacity="1"
     bordercolor="#666666"
     pagecolor="#ffffff"
     inkscape:document-rotation="0">
    <inkscape:grid
       id="grid14"
       type="xygrid" />
  </sodipodi:namedview>
  <title
     id="title2">OpenSCAD Model</title>
  <g
     inkscape:groupmode="layer"
     id="layer1"
     inkscape:label="Layer 1">
    <path
       d="M 6.0499997,0.05000039 H 14.05 V 2.0500004 h 3 V 0.05000039 h 3 V -12.95 h -20 V 0.05000039 h 3 V 2.0500004 H 6.0499997 Z M 14.9558,-9.4529397 l -0.1869,-0.02363 -0.1824,-0.04684 -0.1752,-0.06934 -0.165,-0.09076 -0.1524,-0.1107099 -0.1374,-0.12896 -0.12,-0.1451204 -0.101,-0.1591 -0.0802,-0.1704 -0.0582,-0.1792 -0.0353,-0.185 -0.0118,-0.188 0.0118,-0.188 0.0353,-0.185 0.0582,-0.1792 0.0802,-0.1704 0.101,-0.1591 0.12,-0.1451 0.1374,-0.129 0.1524,-0.1107 0.165,-0.0907 0.1752,-0.0694 0.1824,-0.0468 0.1869,-0.0236 h 0.1884 l 0.1869,0.0236 0.1824,0.0468 0.1752,0.0694 0.165,0.0907 0.1524,0.1107 0.1373,0.129 0.1201,0.1451 0.101,0.1591 0.0802,0.1704 0.0582,0.1792 0.0353,0.185 0.0118,0.188 -0.0118,0.188 -0.0353,0.185 -0.0582,0.1792 -0.0802,0.1704 -0.101,0.1591 -0.1201,0.1451204 -0.1373,0.12896 -0.1524,0.1107099 -0.165,0.09076 -0.1752,0.06934 -0.1824,0.04684 -0.1869,0.02363 z m -9.9999899,0 -0.18689,-0.02363 -0.18245,-0.04684 -0.1751402,-0.06934 -0.1650698,-0.09076 -0.1524101,-0.11071 -0.13731,-0.12896 -0.12007,-0.1451203 -0.1009399,-0.1591 -0.0802,-0.1704 -0.05821,-0.1792 -0.03529,-0.185 -0.011829,-0.188 0.011829,-0.188 0.03529,-0.185 0.05821,-0.1792 0.0802,-0.1704 0.1009399,-0.1591 0.12007,-0.1451 0.13731,-0.129 0.1524101,-0.1107 0.1650698,-0.0907 0.1751402,-0.0694 0.18245,-0.0468 0.18689,-0.0236 h 0.1883696 l 0.18689,0.0236 0.18245,0.0468 0.17514,0.0694 0.16507,0.0907 0.1524,0.1107 0.13731,0.129 0.12008,0.1451 0.10093,0.1591 0.0802,0.1704 0.05822,0.1792 0.03529,0.185 0.01184,0.188 -0.01184,0.188 -0.03529,0.185 -0.05822,0.1792 -0.0802,0.1704 -0.10093,0.1591 -0.12008,0.1451203 -0.13731,0.12896 -0.1524,0.1107099 -0.16507,0.09076 -0.17514,0.06934 -0.18245,0.04684 -0.18689,0.02363 z m -0.0942,7.4970301 -0.3737599,-0.04722 -0.3649099,-0.09369 L 3.7726602,-2.2355097 3.44252,-2.4170096 3.13772,-2.6384497 2.8630802,-2.8963497 2.62294,-3.1866295 2.42108,-3.5047296 2.26066,-3.8456095 2.14424,-4.2039196 2.07365,-4.5739897 2.05,-4.9499997 l 0.02365,-0.3759898 0.07059,-0.3700701 0.11642,-0.3583101 0.16042,-0.3408799 0.20186,-0.3181001 0.2401401,-0.2902799 0.2746398,-0.25791 0.3048,-0.2214301 0.3301402,-0.18151 0.3502801,-0.13868 0.3649099,-0.09369 0.3737599,-0.04723 h 0.3767597 l 0.37376,0.04723 0.36492,0.09369 0.35028,0.13868 0.330141,0.18151 0.304789,0.2214301 0.27464,0.25791 0.24015,0.2902799 0.20186,0.3181001 0.16041,0.3408799 0.116431,0.3583101 0.07058,0.3700701 0.02367,0.3759898 -0.02367,0.37601 -0.07058,0.3700701 -0.116431,0.3583101 -0.16041,0.3408799 -0.20186,0.3181001 -0.24015,0.2902799 -0.27464,0.2579 -0.304789,0.2214401 -0.330141,0.1814999 -0.35028,0.1386901 -0.36492,0.09369 -0.37376,0.04722 z"
       stroke="#000000"
       fill="lightgray"
       stroke-width="0.5"
       id="path4"
       style="fill:none;stroke-width:0.1;stroke-miterlimit:4;stroke-dasharray:none" />
    <g
       id="g1098" />
    <g
       id="g1426"
       gcodetools="Preview group" />
    <g
       id="g1428"
       gcodetools="Preview group" />
    <g
       id="g1430"
       gcodetools="Preview group" />
  </g>
</svg>
