  0
SECTION
  2
BLOCKS
  0
ENDSEC
  0
SECTION
  2
ENTITIES
  0
LINE
  8
0
 10
200
 20
300
 11
0
 21
300
  0
LINE
  8
0
 10
0
 20
300
 11
0
 21
0
  0
LINE
  8
0
 10
0
 20
0
 11
200
 21
0
  0
LINE
  8
0
 10
200
 20
0
 11
200
 21
300
  0
LINE
  8
0
 10
193.521
 20
292.526
 11
193.089
 21
292.746
  0
LINE
  8
0
 10
193.089
 20
292.746
 11
192.746
 21
293.089
  0
LINE
  8
0
 10
192.746
 20
293.089
 11
192.526
 21
293.521
  0
LINE
  8
0
 10
192.526
 20
293.521
 11
192.45
 21
294
  0
LINE
  8
0
 10
192.45
 20
294
 11
192.526
 21
294.479
  0
LINE
  8
0
 10
192.526
 20
294.479
 11
192.746
 21
294.911
  0
LINE
  8
0
 10
192.746
 20
294.911
 11
193.089
 21
295.254
  0
LINE
  8
0
 10
193.089
 20
295.254
 11
193.521
 21
295.474
  0
LINE
  8
0
 10
193.521
 20
295.474
 11
194
 21
295.55
  0
LINE
  8
0
 10
194
 20
295.55
 11
194.479
 21
295.474
  0
LINE
  8
0
 10
194.479
 20
295.474
 11
194.911
 21
295.254
  0
LINE
  8
0
 10
194.911
 20
295.254
 11
195.254
 21
294.911
  0
LINE
  8
0
 10
195.254
 20
294.911
 11
195.474
 21
294.479
  0
LINE
  8
0
 10
195.474
 20
294.479
 11
195.55
 21
294
  0
LINE
  8
0
 10
195.55
 20
294
 11
195.474
 21
293.521
  0
LINE
  8
0
 10
195.474
 20
293.521
 11
195.254
 21
293.089
  0
LINE
  8
0
 10
195.254
 20
293.089
 11
194.911
 21
292.746
  0
LINE
  8
0
 10
194.911
 20
292.746
 11
194.479
 21
292.526
  0
LINE
  8
0
 10
194.479
 20
292.526
 11
194
 21
292.45
  0
LINE
  8
0
 10
194
 20
292.45
 11
193.521
 21
292.526
  0
LINE
  8
0
 10
5.52101
 20
292.526
 11
5.08893
 21
292.746
  0
LINE
  8
0
 10
5.08893
 20
292.746
 11
4.74602
 21
293.089
  0
LINE
  8
0
 10
4.74602
 20
293.089
 11
4.52585
 21
293.521
  0
LINE
  8
0
 10
4.52585
 20
293.521
 11
4.45
 21
294
  0
LINE
  8
0
 10
4.45
 20
294
 11
4.52585
 21
294.479
  0
LINE
  8
0
 10
4.52585
 20
294.479
 11
4.74602
 21
294.911
  0
LINE
  8
0
 10
4.74602
 20
294.911
 11
5.08893
 21
295.254
  0
LINE
  8
0
 10
5.08893
 20
295.254
 11
5.52101
 21
295.474
  0
LINE
  8
0
 10
5.52101
 20
295.474
 11
6
 21
295.55
  0
LINE
  8
0
 10
6
 20
295.55
 11
6.47897
 21
295.474
  0
LINE
  8
0
 10
6.47897
 20
295.474
 11
6.91106
 21
295.254
  0
LINE
  8
0
 10
6.91106
 20
295.254
 11
7.25397
 21
294.911
  0
LINE
  8
0
 10
7.25397
 20
294.911
 11
7.47414
 21
294.479
  0
LINE
  8
0
 10
7.47414
 20
294.479
 11
7.54999
 21
294
  0
LINE
  8
0
 10
7.54999
 20
294
 11
7.47414
 21
293.521
  0
LINE
  8
0
 10
7.47414
 20
293.521
 11
7.25397
 21
293.089
  0
LINE
  8
0
 10
7.25397
 20
293.089
 11
6.91106
 21
292.746
  0
LINE
  8
0
 10
6.91106
 20
292.746
 11
6.47897
 21
292.526
  0
LINE
  8
0
 10
6.47897
 20
292.526
 11
6
 21
292.45
  0
LINE
  8
0
 10
6
 20
292.45
 11
5.52101
 21
292.526
  0
LINE
  8
0
 10
4.53647
 20
248.573
 11
4.11832
 21
248.786
  0
LINE
  8
0
 10
4.11832
 20
248.786
 11
3.78647
 21
249.118
  0
LINE
  8
0
 10
3.78647
 20
249.118
 11
3.57341
 21
249.536
  0
LINE
  8
0
 10
3.57341
 20
249.536
 11
3.5
 21
250
  0
LINE
  8
0
 10
3.5
 20
250
 11
3.57341
 21
250.464
  0
LINE
  8
0
 10
3.57341
 20
250.464
 11
3.78647
 21
250.882
  0
LINE
  8
0
 10
3.78647
 20
250.882
 11
4.11832
 21
251.214
  0
LINE
  8
0
 10
4.11832
 20
251.214
 11
4.53647
 21
251.427
  0
LINE
  8
0
 10
4.53647
 20
251.427
 11
5
 21
251.5
  0
LINE
  8
0
 10
5
 20
251.5
 11
5.46352
 21
251.427
  0
LINE
  8
0
 10
5.46352
 20
251.427
 11
5.88167
 21
251.214
  0
LINE
  8
0
 10
5.88167
 20
251.214
 11
6.21352
 21
250.882
  0
LINE
  8
0
 10
6.21352
 20
250.882
 11
6.42657
 21
250.464
  0
LINE
  8
0
 10
6.42657
 20
250.464
 11
6.5
 21
250
  0
LINE
  8
0
 10
6.5
 20
250
 11
6.42657
 21
249.536
  0
LINE
  8
0
 10
6.42657
 20
249.536
 11
6.21352
 21
249.118
  0
LINE
  8
0
 10
6.21352
 20
249.118
 11
5.88167
 21
248.786
  0
LINE
  8
0
 10
5.88167
 20
248.786
 11
5.46352
 21
248.573
  0
LINE
  8
0
 10
5.46352
 20
248.573
 11
5
 21
248.5
  0
LINE
  8
0
 10
5
 20
248.5
 11
4.53647
 21
248.573
  0
LINE
  8
0
 10
53.5365
 20
248.573
 11
53.1183
 21
248.786
  0
LINE
  8
0
 10
53.1183
 20
248.786
 11
52.7865
 21
249.118
  0
LINE
  8
0
 10
52.7865
 20
249.118
 11
52.5734
 21
249.536
  0
LINE
  8
0
 10
52.5734
 20
249.536
 11
52.5
 21
250
  0
LINE
  8
0
 10
52.5
 20
250
 11
52.5734
 21
250.464
  0
LINE
  8
0
 10
52.5734
 20
250.464
 11
52.7865
 21
250.882
  0
LINE
  8
0
 10
52.7865
 20
250.882
 11
53.1183
 21
251.214
  0
LINE
  8
0
 10
53.1183
 20
251.214
 11
53.5365
 21
251.427
  0
LINE
  8
0
 10
53.5365
 20
251.427
 11
54
 21
251.5
  0
LINE
  8
0
 10
54
 20
251.5
 11
54.4635
 21
251.427
  0
LINE
  8
0
 10
54.4635
 20
251.427
 11
54.8817
 21
251.214
  0
LINE
  8
0
 10
54.8817
 20
251.214
 11
55.2135
 21
250.882
  0
LINE
  8
0
 10
55.2135
 20
250.882
 11
55.4266
 21
250.464
  0
LINE
  8
0
 10
55.4266
 20
250.464
 11
55.5
 21
250
  0
LINE
  8
0
 10
55.5
 20
250
 11
55.4266
 21
249.536
  0
LINE
  8
0
 10
55.4266
 20
249.536
 11
55.2135
 21
249.118
  0
LINE
  8
0
 10
55.2135
 20
249.118
 11
54.8817
 21
248.786
  0
LINE
  8
0
 10
54.8817
 20
248.786
 11
54.4635
 21
248.573
  0
LINE
  8
0
 10
54.4635
 20
248.573
 11
54
 21
248.5
  0
LINE
  8
0
 10
54
 20
248.5
 11
53.5365
 21
248.573
  0
LINE
  8
0
 10
53.5365
 20
190.573
 11
53.1183
 21
190.786
  0
LINE
  8
0
 10
53.1183
 20
190.786
 11
52.7865
 21
191.118
  0
LINE
  8
0
 10
52.7865
 20
191.118
 11
52.5734
 21
191.536
  0
LINE
  8
0
 10
52.5734
 20
191.536
 11
52.5
 21
192
  0
LINE
  8
0
 10
52.5
 20
192
 11
52.5734
 21
192.464
  0
LINE
  8
0
 10
52.5734
 20
192.464
 11
52.7865
 21
192.882
  0
LINE
  8
0
 10
52.7865
 20
192.882
 11
53.1183
 21
193.214
  0
LINE
  8
0
 10
53.1183
 20
193.214
 11
53.5365
 21
193.427
  0
LINE
  8
0
 10
53.5365
 20
193.427
 11
54
 21
193.5
  0
LINE
  8
0
 10
54
 20
193.5
 11
54.4635
 21
193.427
  0
LINE
  8
0
 10
54.4635
 20
193.427
 11
54.8817
 21
193.214
  0
LINE
  8
0
 10
54.8817
 20
193.214
 11
55.2135
 21
192.882
  0
LINE
  8
0
 10
55.2135
 20
192.882
 11
55.4266
 21
192.464
  0
LINE
  8
0
 10
55.4266
 20
192.464
 11
55.5
 21
192
  0
LINE
  8
0
 10
55.5
 20
192
 11
55.4266
 21
191.536
  0
LINE
  8
0
 10
55.4266
 20
191.536
 11
55.2135
 21
191.118
  0
LINE
  8
0
 10
55.2135
 20
191.118
 11
54.8817
 21
190.786
  0
LINE
  8
0
 10
54.8817
 20
190.786
 11
54.4635
 21
190.573
  0
LINE
  8
0
 10
54.4635
 20
190.573
 11
54
 21
190.5
  0
LINE
  8
0
 10
54
 20
190.5
 11
53.5365
 21
190.573
  0
LINE
  8
0
 10
4.53647
 20
190.573
 11
4.11832
 21
190.786
  0
LINE
  8
0
 10
4.11832
 20
190.786
 11
3.78647
 21
191.118
  0
LINE
  8
0
 10
3.78647
 20
191.118
 11
3.57341
 21
191.536
  0
LINE
  8
0
 10
3.57341
 20
191.536
 11
3.5
 21
192
  0
LINE
  8
0
 10
3.5
 20
192
 11
3.57341
 21
192.464
  0
LINE
  8
0
 10
3.57341
 20
192.464
 11
3.78647
 21
192.882
  0
LINE
  8
0
 10
3.78647
 20
192.882
 11
4.11832
 21
193.214
  0
LINE
  8
0
 10
4.11832
 20
193.214
 11
4.53647
 21
193.427
  0
LINE
  8
0
 10
4.53647
 20
193.427
 11
5
 21
193.5
  0
LINE
  8
0
 10
5
 20
193.5
 11
5.46352
 21
193.427
  0
LINE
  8
0
 10
5.46352
 20
193.427
 11
5.88167
 21
193.214
  0
LINE
  8
0
 10
5.88167
 20
193.214
 11
6.21352
 21
192.882
  0
LINE
  8
0
 10
6.21352
 20
192.882
 11
6.42657
 21
192.464
  0
LINE
  8
0
 10
6.42657
 20
192.464
 11
6.5
 21
192
  0
LINE
  8
0
 10
6.5
 20
192
 11
6.42657
 21
191.536
  0
LINE
  8
0
 10
6.42657
 20
191.536
 11
6.21352
 21
191.118
  0
LINE
  8
0
 10
6.21352
 20
191.118
 11
5.88167
 21
190.786
  0
LINE
  8
0
 10
5.88167
 20
190.786
 11
5.46352
 21
190.573
  0
LINE
  8
0
 10
5.46352
 20
190.573
 11
5
 21
190.5
  0
LINE
  8
0
 10
5
 20
190.5
 11
4.53647
 21
190.573
  0
LINE
  8
0
 10
5.52101
 20
4.52585
 11
5.08893
 21
4.74602
  0
LINE
  8
0
 10
5.08893
 20
4.74602
 11
4.74602
 21
5.08893
  0
LINE
  8
0
 10
4.74602
 20
5.08893
 11
4.52585
 21
5.52101
  0
LINE
  8
0
 10
4.52585
 20
5.52101
 11
4.45
 21
6
  0
LINE
  8
0
 10
4.45
 20
6
 11
4.52585
 21
6.47897
  0
LINE
  8
0
 10
4.52585
 20
6.47897
 11
4.74602
 21
6.91106
  0
LINE
  8
0
 10
4.74602
 20
6.91106
 11
5.08893
 21
7.25397
  0
LINE
  8
0
 10
5.08893
 20
7.25397
 11
5.52101
 21
7.47414
  0
LINE
  8
0
 10
5.52101
 20
7.47414
 11
6
 21
7.54999
  0
LINE
  8
0
 10
6
 20
7.54999
 11
6.47897
 21
7.47414
  0
LINE
  8
0
 10
6.47897
 20
7.47414
 11
6.91106
 21
7.25397
  0
LINE
  8
0
 10
6.91106
 20
7.25397
 11
7.25397
 21
6.91106
  0
LINE
  8
0
 10
7.25397
 20
6.91106
 11
7.47414
 21
6.47897
  0
LINE
  8
0
 10
7.47414
 20
6.47897
 11
7.54999
 21
6
  0
LINE
  8
0
 10
7.54999
 20
6
 11
7.47414
 21
5.52101
  0
LINE
  8
0
 10
7.47414
 20
5.52101
 11
7.25397
 21
5.08893
  0
LINE
  8
0
 10
7.25397
 20
5.08893
 11
6.91106
 21
4.74602
  0
LINE
  8
0
 10
6.91106
 20
4.74602
 11
6.47897
 21
4.52585
  0
LINE
  8
0
 10
6.47897
 20
4.52585
 11
6
 21
4.45
  0
LINE
  8
0
 10
6
 20
4.45
 11
5.52101
 21
4.52585
  0
LINE
  8
0
 10
193.521
 20
4.52585
 11
193.089
 21
4.74602
  0
LINE
  8
0
 10
193.089
 20
4.74602
 11
192.746
 21
5.08893
  0
LINE
  8
0
 10
192.746
 20
5.08893
 11
192.526
 21
5.52101
  0
LINE
  8
0
 10
192.526
 20
5.52101
 11
192.45
 21
6
  0
LINE
  8
0
 10
192.45
 20
6
 11
192.526
 21
6.47897
  0
LINE
  8
0
 10
192.526
 20
6.47897
 11
192.746
 21
6.91106
  0
LINE
  8
0
 10
192.746
 20
6.91106
 11
193.089
 21
7.25397
  0
LINE
  8
0
 10
193.089
 20
7.25397
 11
193.521
 21
7.47414
  0
LINE
  8
0
 10
193.521
 20
7.47414
 11
194
 21
7.54999
  0
LINE
  8
0
 10
194
 20
7.54999
 11
194.479
 21
7.47414
  0
LINE
  8
0
 10
194.479
 20
7.47414
 11
194.911
 21
7.25397
  0
LINE
  8
0
 10
194.911
 20
7.25397
 11
195.254
 21
6.91106
  0
LINE
  8
0
 10
195.254
 20
6.91106
 11
195.474
 21
6.47897
  0
LINE
  8
0
 10
195.474
 20
6.47897
 11
195.55
 21
6
  0
LINE
  8
0
 10
195.55
 20
6
 11
195.474
 21
5.52101
  0
LINE
  8
0
 10
195.474
 20
5.52101
 11
195.254
 21
5.08893
  0
LINE
  8
0
 10
195.254
 20
5.08893
 11
194.911
 21
4.74602
  0
LINE
  8
0
 10
194.911
 20
4.74602
 11
194.479
 21
4.52585
  0
LINE
  8
0
 10
194.479
 20
4.52585
 11
194
 21
4.45
  0
LINE
  8
0
 10
194
 20
4.45
 11
193.521
 21
4.52585
  0
ENDSEC
  0
SECTION
  2
OBJECTS
  0
DICTIONARY
  0
ENDSEC
  0
EOF
