  0
SECTION
  2
BLOCKS
  0
ENDSEC
  0
SECTION
  2
ENTITIES
  0
LINE
  8
0
 10
129
 20
252
 11
109
 21
272
  0
LINE
  8
0
 10
109
 20
272
 11
105
 21
272
  0
LINE
  8
0
 10
105
 20
272
 11
105
 21
248
  0
LINE
  8
0
 10
105
 20
248
 11
129
 21
248
  0
LINE
  8
0
 10
129
 20
248
 11
129
 21
252
  0
LINE
  8
0
 10
114.521
 20
256.526
 11
114.089
 21
256.746
  0
LINE
  8
0
 10
114.089
 20
256.746
 11
113.746
 21
257.089
  0
LINE
  8
0
 10
113.746
 20
257.089
 11
113.526
 21
257.521
  0
LINE
  8
0
 10
113.526
 20
257.521
 11
113.45
 21
258
  0
LINE
  8
0
 10
113.45
 20
258
 11
113.526
 21
258.479
  0
LINE
  8
0
 10
113.526
 20
258.479
 11
113.746
 21
258.911
  0
LINE
  8
0
 10
113.746
 20
258.911
 11
114.089
 21
259.254
  0
LINE
  8
0
 10
114.089
 20
259.254
 11
114.521
 21
259.474
  0
LINE
  8
0
 10
114.521
 20
259.474
 11
115
 21
259.55
  0
LINE
  8
0
 10
115
 20
259.55
 11
115.479
 21
259.474
  0
LINE
  8
0
 10
115.479
 20
259.474
 11
115.911
 21
259.254
  0
LINE
  8
0
 10
115.911
 20
259.254
 11
116.254
 21
258.911
  0
LINE
  8
0
 10
116.254
 20
258.911
 11
116.474
 21
258.479
  0
LINE
  8
0
 10
116.474
 20
258.479
 11
116.55
 21
258
  0
LINE
  8
0
 10
116.55
 20
258
 11
116.474
 21
257.521
  0
LINE
  8
0
 10
116.474
 20
257.521
 11
116.254
 21
257.089
  0
LINE
  8
0
 10
116.254
 20
257.089
 11
115.911
 21
256.746
  0
LINE
  8
0
 10
115.911
 20
256.746
 11
115.479
 21
256.526
  0
LINE
  8
0
 10
115.479
 20
256.526
 11
115
 21
256.45
  0
LINE
  8
0
 10
115
 20
256.45
 11
114.521
 21
256.526
  0
LINE
  8
0
 10
94
 20
252
 11
74
 21
272
  0
LINE
  8
0
 10
74
 20
272
 11
70
 21
272
  0
LINE
  8
0
 10
70
 20
272
 11
70
 21
248
  0
LINE
  8
0
 10
70
 20
248
 11
94
 21
248
  0
LINE
  8
0
 10
94
 20
248
 11
94
 21
252
  0
LINE
  8
0
 10
79.521
 20
256.526
 11
79.0889
 21
256.746
  0
LINE
  8
0
 10
79.0889
 20
256.746
 11
78.746
 21
257.089
  0
LINE
  8
0
 10
78.746
 20
257.089
 11
78.5259
 21
257.521
  0
LINE
  8
0
 10
78.5259
 20
257.521
 11
78.45
 21
258
  0
LINE
  8
0
 10
78.45
 20
258
 11
78.5259
 21
258.479
  0
LINE
  8
0
 10
78.5259
 20
258.479
 11
78.746
 21
258.911
  0
LINE
  8
0
 10
78.746
 20
258.911
 11
79.0889
 21
259.254
  0
LINE
  8
0
 10
79.0889
 20
259.254
 11
79.521
 21
259.474
  0
LINE
  8
0
 10
79.521
 20
259.474
 11
80
 21
259.55
  0
LINE
  8
0
 10
80
 20
259.55
 11
80.479
 21
259.474
  0
LINE
  8
0
 10
80.479
 20
259.474
 11
80.9111
 21
259.254
  0
LINE
  8
0
 10
80.9111
 20
259.254
 11
81.254
 21
258.911
  0
LINE
  8
0
 10
81.254
 20
258.911
 11
81.4741
 21
258.479
  0
LINE
  8
0
 10
81.4741
 20
258.479
 11
81.55
 21
258
  0
LINE
  8
0
 10
81.55
 20
258
 11
81.4741
 21
257.521
  0
LINE
  8
0
 10
81.4741
 20
257.521
 11
81.254
 21
257.089
  0
LINE
  8
0
 10
81.254
 20
257.089
 11
80.9111
 21
256.746
  0
LINE
  8
0
 10
80.9111
 20
256.746
 11
80.479
 21
256.526
  0
LINE
  8
0
 10
80.479
 20
256.526
 11
80
 21
256.45
  0
LINE
  8
0
 10
80
 20
256.45
 11
79.521
 21
256.526
  0
LINE
  8
0
 10
59
 20
252
 11
39
 21
272
  0
LINE
  8
0
 10
39
 20
272
 11
35
 21
272
  0
LINE
  8
0
 10
35
 20
272
 11
35
 21
248
  0
LINE
  8
0
 10
35
 20
248
 11
59
 21
248
  0
LINE
  8
0
 10
59
 20
248
 11
59
 21
252
  0
LINE
  8
0
 10
44.521
 20
256.526
 11
44.0889
 21
256.746
  0
LINE
  8
0
 10
44.0889
 20
256.746
 11
43.746
 21
257.089
  0
LINE
  8
0
 10
43.746
 20
257.089
 11
43.5259
 21
257.521
  0
LINE
  8
0
 10
43.5259
 20
257.521
 11
43.45
 21
258
  0
LINE
  8
0
 10
43.45
 20
258
 11
43.5259
 21
258.479
  0
LINE
  8
0
 10
43.5259
 20
258.479
 11
43.746
 21
258.911
  0
LINE
  8
0
 10
43.746
 20
258.911
 11
44.0889
 21
259.254
  0
LINE
  8
0
 10
44.0889
 20
259.254
 11
44.521
 21
259.474
  0
LINE
  8
0
 10
44.521
 20
259.474
 11
45
 21
259.55
  0
LINE
  8
0
 10
45
 20
259.55
 11
45.479
 21
259.474
  0
LINE
  8
0
 10
45.479
 20
259.474
 11
45.9111
 21
259.254
  0
LINE
  8
0
 10
45.9111
 20
259.254
 11
46.254
 21
258.911
  0
LINE
  8
0
 10
46.254
 20
258.911
 11
46.4741
 21
258.479
  0
LINE
  8
0
 10
46.4741
 20
258.479
 11
46.55
 21
258
  0
LINE
  8
0
 10
46.55
 20
258
 11
46.4741
 21
257.521
  0
LINE
  8
0
 10
46.4741
 20
257.521
 11
46.254
 21
257.089
  0
LINE
  8
0
 10
46.254
 20
257.089
 11
45.9111
 21
256.746
  0
LINE
  8
0
 10
45.9111
 20
256.746
 11
45.479
 21
256.526
  0
LINE
  8
0
 10
45.479
 20
256.526
 11
45
 21
256.45
  0
LINE
  8
0
 10
45
 20
256.45
 11
44.521
 21
256.526
  0
LINE
  8
0
 10
24
 20
252
 11
4
 21
272
  0
LINE
  8
0
 10
4
 20
272
 11
0
 21
272
  0
LINE
  8
0
 10
0
 20
272
 11
0
 21
248
  0
LINE
  8
0
 10
0
 20
248
 11
24
 21
248
  0
LINE
  8
0
 10
24
 20
248
 11
24
 21
252
  0
LINE
  8
0
 10
9.52101
 20
256.526
 11
9.08893
 21
256.746
  0
LINE
  8
0
 10
9.08893
 20
256.746
 11
8.74602
 21
257.089
  0
LINE
  8
0
 10
8.74602
 20
257.089
 11
8.52585
 21
257.521
  0
LINE
  8
0
 10
8.52585
 20
257.521
 11
8.45
 21
258
  0
LINE
  8
0
 10
8.45
 20
258
 11
8.52585
 21
258.479
  0
LINE
  8
0
 10
8.52585
 20
258.479
 11
8.74602
 21
258.911
  0
LINE
  8
0
 10
8.74602
 20
258.911
 11
9.08893
 21
259.254
  0
LINE
  8
0
 10
9.08893
 20
259.254
 11
9.52101
 21
259.474
  0
LINE
  8
0
 10
9.52101
 20
259.474
 11
10
 21
259.55
  0
LINE
  8
0
 10
10
 20
259.55
 11
10.479
 21
259.474
  0
LINE
  8
0
 10
10.479
 20
259.474
 11
10.9111
 21
259.254
  0
LINE
  8
0
 10
10.9111
 20
259.254
 11
11.254
 21
258.911
  0
LINE
  8
0
 10
11.254
 20
258.911
 11
11.4741
 21
258.479
  0
LINE
  8
0
 10
11.4741
 20
258.479
 11
11.55
 21
258
  0
LINE
  8
0
 10
11.55
 20
258
 11
11.4741
 21
257.521
  0
LINE
  8
0
 10
11.4741
 20
257.521
 11
11.254
 21
257.089
  0
LINE
  8
0
 10
11.254
 20
257.089
 11
10.9111
 21
256.746
  0
LINE
  8
0
 10
10.9111
 20
256.746
 11
10.479
 21
256.526
  0
LINE
  8
0
 10
10.479
 20
256.526
 11
10
 21
256.45
  0
LINE
  8
0
 10
10
 20
256.45
 11
9.52101
 21
256.526
  0
LINE
  8
0
 10
129
 20
222
 11
109
 21
242
  0
LINE
  8
0
 10
109
 20
242
 11
105
 21
242
  0
LINE
  8
0
 10
105
 20
242
 11
105
 21
218
  0
LINE
  8
0
 10
105
 20
218
 11
129
 21
218
  0
LINE
  8
0
 10
129
 20
218
 11
129
 21
222
  0
LINE
  8
0
 10
114.521
 20
226.526
 11
114.089
 21
226.746
  0
LINE
  8
0
 10
114.089
 20
226.746
 11
113.746
 21
227.089
  0
LINE
  8
0
 10
113.746
 20
227.089
 11
113.526
 21
227.521
  0
LINE
  8
0
 10
113.526
 20
227.521
 11
113.45
 21
228
  0
LINE
  8
0
 10
113.45
 20
228
 11
113.526
 21
228.479
  0
LINE
  8
0
 10
113.526
 20
228.479
 11
113.746
 21
228.911
  0
LINE
  8
0
 10
113.746
 20
228.911
 11
114.089
 21
229.254
  0
LINE
  8
0
 10
114.089
 20
229.254
 11
114.521
 21
229.474
  0
LINE
  8
0
 10
114.521
 20
229.474
 11
115
 21
229.55
  0
LINE
  8
0
 10
115
 20
229.55
 11
115.479
 21
229.474
  0
LINE
  8
0
 10
115.479
 20
229.474
 11
115.911
 21
229.254
  0
LINE
  8
0
 10
115.911
 20
229.254
 11
116.254
 21
228.911
  0
LINE
  8
0
 10
116.254
 20
228.911
 11
116.474
 21
228.479
  0
LINE
  8
0
 10
116.474
 20
228.479
 11
116.55
 21
228
  0
LINE
  8
0
 10
116.55
 20
228
 11
116.474
 21
227.521
  0
LINE
  8
0
 10
116.474
 20
227.521
 11
116.254
 21
227.089
  0
LINE
  8
0
 10
116.254
 20
227.089
 11
115.911
 21
226.746
  0
LINE
  8
0
 10
115.911
 20
226.746
 11
115.479
 21
226.526
  0
LINE
  8
0
 10
115.479
 20
226.526
 11
115
 21
226.45
  0
LINE
  8
0
 10
115
 20
226.45
 11
114.521
 21
226.526
  0
LINE
  8
0
 10
94
 20
222
 11
74
 21
242
  0
LINE
  8
0
 10
74
 20
242
 11
70
 21
242
  0
LINE
  8
0
 10
70
 20
242
 11
70
 21
218
  0
LINE
  8
0
 10
70
 20
218
 11
94
 21
218
  0
LINE
  8
0
 10
94
 20
218
 11
94
 21
222
  0
LINE
  8
0
 10
79.521
 20
226.526
 11
79.0889
 21
226.746
  0
LINE
  8
0
 10
79.0889
 20
226.746
 11
78.746
 21
227.089
  0
LINE
  8
0
 10
78.746
 20
227.089
 11
78.5259
 21
227.521
  0
LINE
  8
0
 10
78.5259
 20
227.521
 11
78.45
 21
228
  0
LINE
  8
0
 10
78.45
 20
228
 11
78.5259
 21
228.479
  0
LINE
  8
0
 10
78.5259
 20
228.479
 11
78.746
 21
228.911
  0
LINE
  8
0
 10
78.746
 20
228.911
 11
79.0889
 21
229.254
  0
LINE
  8
0
 10
79.0889
 20
229.254
 11
79.521
 21
229.474
  0
LINE
  8
0
 10
79.521
 20
229.474
 11
80
 21
229.55
  0
LINE
  8
0
 10
80
 20
229.55
 11
80.479
 21
229.474
  0
LINE
  8
0
 10
80.479
 20
229.474
 11
80.9111
 21
229.254
  0
LINE
  8
0
 10
80.9111
 20
229.254
 11
81.254
 21
228.911
  0
LINE
  8
0
 10
81.254
 20
228.911
 11
81.4741
 21
228.479
  0
LINE
  8
0
 10
81.4741
 20
228.479
 11
81.55
 21
228
  0
LINE
  8
0
 10
81.55
 20
228
 11
81.4741
 21
227.521
  0
LINE
  8
0
 10
81.4741
 20
227.521
 11
81.254
 21
227.089
  0
LINE
  8
0
 10
81.254
 20
227.089
 11
80.9111
 21
226.746
  0
LINE
  8
0
 10
80.9111
 20
226.746
 11
80.479
 21
226.526
  0
LINE
  8
0
 10
80.479
 20
226.526
 11
80
 21
226.45
  0
LINE
  8
0
 10
80
 20
226.45
 11
79.521
 21
226.526
  0
LINE
  8
0
 10
24
 20
222
 11
4
 21
242
  0
LINE
  8
0
 10
4
 20
242
 11
0
 21
242
  0
LINE
  8
0
 10
0
 20
242
 11
0
 21
218
  0
LINE
  8
0
 10
0
 20
218
 11
24
 21
218
  0
LINE
  8
0
 10
24
 20
218
 11
24
 21
222
  0
LINE
  8
0
 10
9.52101
 20
226.526
 11
9.08893
 21
226.746
  0
LINE
  8
0
 10
9.08893
 20
226.746
 11
8.74602
 21
227.089
  0
LINE
  8
0
 10
8.74602
 20
227.089
 11
8.52585
 21
227.521
  0
LINE
  8
0
 10
8.52585
 20
227.521
 11
8.45
 21
228
  0
LINE
  8
0
 10
8.45
 20
228
 11
8.52585
 21
228.479
  0
LINE
  8
0
 10
8.52585
 20
228.479
 11
8.74602
 21
228.911
  0
LINE
  8
0
 10
8.74602
 20
228.911
 11
9.08893
 21
229.254
  0
LINE
  8
0
 10
9.08893
 20
229.254
 11
9.52101
 21
229.474
  0
LINE
  8
0
 10
9.52101
 20
229.474
 11
10
 21
229.55
  0
LINE
  8
0
 10
10
 20
229.55
 11
10.479
 21
229.474
  0
LINE
  8
0
 10
10.479
 20
229.474
 11
10.9111
 21
229.254
  0
LINE
  8
0
 10
10.9111
 20
229.254
 11
11.254
 21
228.911
  0
LINE
  8
0
 10
11.254
 20
228.911
 11
11.4741
 21
228.479
  0
LINE
  8
0
 10
11.4741
 20
228.479
 11
11.55
 21
228
  0
LINE
  8
0
 10
11.55
 20
228
 11
11.4741
 21
227.521
  0
LINE
  8
0
 10
11.4741
 20
227.521
 11
11.254
 21
227.089
  0
LINE
  8
0
 10
11.254
 20
227.089
 11
10.9111
 21
226.746
  0
LINE
  8
0
 10
10.9111
 20
226.746
 11
10.479
 21
226.526
  0
LINE
  8
0
 10
10.479
 20
226.526
 11
10
 21
226.45
  0
LINE
  8
0
 10
10
 20
226.45
 11
9.52101
 21
226.526
  0
LINE
  8
0
 10
59
 20
222
 11
39
 21
242
  0
LINE
  8
0
 10
39
 20
242
 11
35
 21
242
  0
LINE
  8
0
 10
35
 20
242
 11
35
 21
218
  0
LINE
  8
0
 10
35
 20
218
 11
59
 21
218
  0
LINE
  8
0
 10
59
 20
218
 11
59
 21
222
  0
LINE
  8
0
 10
44.521
 20
226.526
 11
44.0889
 21
226.746
  0
LINE
  8
0
 10
44.0889
 20
226.746
 11
43.746
 21
227.089
  0
LINE
  8
0
 10
43.746
 20
227.089
 11
43.5259
 21
227.521
  0
LINE
  8
0
 10
43.5259
 20
227.521
 11
43.45
 21
228
  0
LINE
  8
0
 10
43.45
 20
228
 11
43.5259
 21
228.479
  0
LINE
  8
0
 10
43.5259
 20
228.479
 11
43.746
 21
228.911
  0
LINE
  8
0
 10
43.746
 20
228.911
 11
44.0889
 21
229.254
  0
LINE
  8
0
 10
44.0889
 20
229.254
 11
44.521
 21
229.474
  0
LINE
  8
0
 10
44.521
 20
229.474
 11
45
 21
229.55
  0
LINE
  8
0
 10
45
 20
229.55
 11
45.479
 21
229.474
  0
LINE
  8
0
 10
45.479
 20
229.474
 11
45.9111
 21
229.254
  0
LINE
  8
0
 10
45.9111
 20
229.254
 11
46.254
 21
228.911
  0
LINE
  8
0
 10
46.254
 20
228.911
 11
46.4741
 21
228.479
  0
LINE
  8
0
 10
46.4741
 20
228.479
 11
46.55
 21
228
  0
LINE
  8
0
 10
46.55
 20
228
 11
46.4741
 21
227.521
  0
LINE
  8
0
 10
46.4741
 20
227.521
 11
46.254
 21
227.089
  0
LINE
  8
0
 10
46.254
 20
227.089
 11
45.9111
 21
226.746
  0
LINE
  8
0
 10
45.9111
 20
226.746
 11
45.479
 21
226.526
  0
LINE
  8
0
 10
45.479
 20
226.526
 11
45
 21
226.45
  0
LINE
  8
0
 10
45
 20
226.45
 11
44.521
 21
226.526
  0
LINE
  8
0
 10
72.1
 20
24
 11
76.1
 21
24
  0
LINE
  8
0
 10
76.1
 20
24
 11
76.1
 21
0
  0
LINE
  8
0
 10
76.1
 20
0
 11
116.9
 21
0
  0
LINE
  8
0
 10
116.9
 20
0
 11
116.9
 21
24
  0
LINE
  8
0
 10
116.9
 20
24
 11
120.9
 21
24
  0
LINE
  8
0
 10
120.9
 20
24
 11
120.9
 21
0
  0
LINE
  8
0
 10
120.9
 20
0
 11
126
 21
0
  0
LINE
  8
0
 10
126
 20
0
 11
126
 21
208
  0
LINE
  8
0
 10
126
 20
208
 11
120.9
 21
208
  0
LINE
  8
0
 10
120.9
 20
208
 11
120.9
 21
184
  0
LINE
  8
0
 10
120.9
 20
184
 11
116.9
 21
184
  0
LINE
  8
0
 10
116.9
 20
184
 11
116.9
 21
208
  0
LINE
  8
0
 10
116.9
 20
208
 11
76.1
 21
208
  0
LINE
  8
0
 10
76.1
 20
208
 11
76.1
 21
184
  0
LINE
  8
0
 10
76.1
 20
184
 11
72.1
 21
184
  0
LINE
  8
0
 10
72.1
 20
184
 11
72.1
 21
208
  0
LINE
  8
0
 10
72.1
 20
208
 11
68
 21
208
  0
LINE
  8
0
 10
68
 20
208
 11
68
 21
0
  0
LINE
  8
0
 10
68
 20
0
 11
72.1
 21
0
  0
LINE
  8
0
 10
72.1
 20
0
 11
72.1
 21
24
  0
LINE
  8
0
 10
4.09999
 20
24
 11
8.09999
 21
24
  0
LINE
  8
0
 10
8.09999
 20
24
 11
8.09999
 21
0
  0
LINE
  8
0
 10
8.09999
 20
0
 11
48.9
 21
0
  0
LINE
  8
0
 10
48.9
 20
0
 11
48.9
 21
24
  0
LINE
  8
0
 10
48.9
 20
24
 11
52.9
 21
24
  0
LINE
  8
0
 10
52.9
 20
24
 11
52.9
 21
0
  0
LINE
  8
0
 10
52.9
 20
0
 11
58
 21
0
  0
LINE
  8
0
 10
58
 20
0
 11
58
 21
208
  0
LINE
  8
0
 10
58
 20
208
 11
52.9
 21
208
  0
LINE
  8
0
 10
52.9
 20
208
 11
52.9
 21
184
  0
LINE
  8
0
 10
52.9
 20
184
 11
48.9
 21
184
  0
LINE
  8
0
 10
48.9
 20
184
 11
48.9
 21
208
  0
LINE
  8
0
 10
48.9
 20
208
 11
8.09999
 21
208
  0
LINE
  8
0
 10
8.09999
 20
208
 11
8.09999
 21
184
  0
LINE
  8
0
 10
8.09999
 20
184
 11
4.09999
 21
184
  0
LINE
  8
0
 10
4.09999
 20
184
 11
4.09999
 21
208
  0
LINE
  8
0
 10
4.09999
 20
208
 11
0
 21
208
  0
LINE
  8
0
 10
0
 20
208
 11
0
 21
0
  0
LINE
  8
0
 10
0
 20
0
 11
4.09999
 21
0
  0
LINE
  8
0
 10
4.09999
 20
0
 11
4.09999
 21
24
  0
LINE
  8
0
 10
25.0788
 20
150.257
 11
22.2853
 21
151.165
  0
LINE
  8
0
 10
22.2853
 20
151.165
 11
19.7416
 21
152.633
  0
LINE
  8
0
 10
19.7416
 20
152.633
 11
17.5588
 21
154.599
  0
LINE
  8
0
 10
17.5588
 20
154.599
 11
15.8323
 21
156.975
  0
LINE
  8
0
 10
15.8323
 20
156.975
 11
14.6376
 21
159.658
  0
LINE
  8
0
 10
14.6376
 20
159.658
 11
14.027
 21
162.531
  0
LINE
  8
0
 10
14.027
 20
162.531
 11
14.027
 21
165.469
  0
LINE
  8
0
 10
14.027
 20
165.469
 11
14.6376
 21
168.342
  0
LINE
  8
0
 10
14.6376
 20
168.342
 11
15.8323
 21
171.025
  0
LINE
  8
0
 10
15.8323
 20
171.025
 11
17.5588
 21
173.401
  0
LINE
  8
0
 10
17.5588
 20
173.401
 11
19.7416
 21
175.367
  0
LINE
  8
0
 10
19.7416
 20
175.367
 11
22.2853
 21
176.835
  0
LINE
  8
0
 10
22.2853
 20
176.835
 11
25.0788
 21
177.743
  0
LINE
  8
0
 10
25.0788
 20
177.743
 11
28
 21
178.05
  0
LINE
  8
0
 10
28
 20
178.05
 11
30.9212
 21
177.743
  0
LINE
  8
0
 10
30.9212
 20
177.743
 11
33.7146
 21
176.835
  0
LINE
  8
0
 10
33.7146
 20
176.835
 11
36.2584
 21
175.367
  0
LINE
  8
0
 10
36.2584
 20
175.367
 11
38.4412
 21
173.401
  0
LINE
  8
0
 10
38.4412
 20
173.401
 11
40.1676
 21
171.025
  0
LINE
  8
0
 10
40.1676
 20
171.025
 11
41.3623
 21
168.342
  0
LINE
  8
0
 10
41.3623
 20
168.342
 11
41.973
 21
165.469
  0
LINE
  8
0
 10
41.973
 20
165.469
 11
41.973
 21
162.531
  0
LINE
  8
0
 10
41.973
 20
162.531
 11
41.3623
 21
159.658
  0
LINE
  8
0
 10
41.3623
 20
159.658
 11
40.1676
 21
156.975
  0
LINE
  8
0
 10
40.1676
 20
156.975
 11
38.4412
 21
154.599
  0
LINE
  8
0
 10
38.4412
 20
154.599
 11
36.2584
 21
152.633
  0
LINE
  8
0
 10
36.2584
 20
152.633
 11
33.7146
 21
151.165
  0
LINE
  8
0
 10
33.7146
 20
151.165
 11
30.9212
 21
150.257
  0
LINE
  8
0
 10
30.9212
 20
150.257
 11
28
 21
149.95
  0
LINE
  8
0
 10
28
 20
149.95
 11
25.0788
 21
150.257
  0
ENDSEC
  0
SECTION
  2
OBJECTS
  0
DICTIONARY
  0
ENDSEC
  0
EOF
