  0
SECTION
  2
BLOCKS
  0
ENDSEC
  0
SECTION
  2
ENTITIES
  0
LINE
  8
0
 10
72.1
 20
20
 11
76.1
 21
20
  0
LINE
  8
0
 10
76.1
 20
20
 11
76.1
 21
0
  0
LINE
  8
0
 10
76.1
 20
0
 11
116.9
 21
0
  0
LINE
  8
0
 10
116.9
 20
0
 11
116.9
 21
20
  0
LINE
  8
0
 10
116.9
 20
20
 11
120.9
 21
20
  0
LINE
  8
0
 10
120.9
 20
20
 11
120.9
 21
0
  0
LINE
  8
0
 10
120.9
 20
0
 11
126
 21
0
  0
LINE
  8
0
 10
126
 20
0
 11
126
 21
300
  0
LINE
  8
0
 10
126
 20
300
 11
120.9
 21
300
  0
LINE
  8
0
 10
120.9
 20
300
 11
120.9
 21
280
  0
LINE
  8
0
 10
120.9
 20
280
 11
116.9
 21
280
  0
LINE
  8
0
 10
116.9
 20
280
 11
116.9
 21
300
  0
LINE
  8
0
 10
116.9
 20
300
 11
76.1
 21
300
  0
LINE
  8
0
 10
76.1
 20
300
 11
76.1
 21
280
  0
LINE
  8
0
 10
76.1
 20
280
 11
72.1
 21
280
  0
LINE
  8
0
 10
72.1
 20
280
 11
72.1
 21
300
  0
LINE
  8
0
 10
72.1
 20
300
 11
68
 21
300
  0
LINE
  8
0
 10
68
 20
300
 11
68
 21
0
  0
LINE
  8
0
 10
68
 20
0
 11
72.1
 21
0
  0
LINE
  8
0
 10
72.1
 20
0
 11
72.1
 21
20
  0
LINE
  8
0
 10
83.8
 20
239
 11
83.8
 21
247
  0
LINE
  8
0
 10
83.8
 20
247
 11
86.8
 21
247
  0
LINE
  8
0
 10
86.8
 20
247
 11
86.8
 21
239
  0
LINE
  8
0
 10
86.8
 20
239
 11
83.8
 21
239
  0
LINE
  8
0
 10
83.8
 20
214.1
 11
83.8
 21
229.2
  0
LINE
  8
0
 10
83.8
 20
229.2
 11
90.4
 21
229.2
  0
LINE
  8
0
 10
90.4
 20
229.2
 11
90.4
 21
214.1
  0
LINE
  8
0
 10
90.4
 20
214.1
 11
83.8
 21
214.1
  0
LINE
  8
0
 10
85.8729
 20
197.147
 11
85.0366
 21
197.573
  0
LINE
  8
0
 10
85.0366
 20
197.573
 11
84.3729
 21
198.237
  0
LINE
  8
0
 10
84.3729
 20
198.237
 11
83.9468
 21
199.073
  0
LINE
  8
0
 10
83.9468
 20
199.073
 11
83.8
 21
200
  0
LINE
  8
0
 10
83.8
 20
200
 11
83.9468
 21
200.927
  0
LINE
  8
0
 10
83.9468
 20
200.927
 11
84.3729
 21
201.763
  0
LINE
  8
0
 10
84.3729
 20
201.763
 11
85.0366
 21
202.427
  0
LINE
  8
0
 10
85.0366
 20
202.427
 11
85.8729
 21
202.853
  0
LINE
  8
0
 10
85.8729
 20
202.853
 11
86.8
 21
203
  0
LINE
  8
0
 10
86.8
 20
203
 11
87.7271
 21
202.853
  0
LINE
  8
0
 10
87.7271
 20
202.853
 11
88.5634
 21
202.427
  0
LINE
  8
0
 10
88.5634
 20
202.427
 11
89.2271
 21
201.763
  0
LINE
  8
0
 10
89.2271
 20
201.763
 11
89.6532
 21
200.927
  0
LINE
  8
0
 10
89.6532
 20
200.927
 11
89.8
 21
200
  0
LINE
  8
0
 10
89.8
 20
200
 11
89.6532
 21
199.073
  0
LINE
  8
0
 10
89.6532
 20
199.073
 11
89.2271
 21
198.237
  0
LINE
  8
0
 10
89.2271
 20
198.237
 11
88.5634
 21
197.573
  0
LINE
  8
0
 10
88.5634
 20
197.573
 11
87.7271
 21
197.147
  0
LINE
  8
0
 10
87.7271
 20
197.147
 11
86.8
 21
197
  0
LINE
  8
0
 10
86.8
 20
197
 11
85.8729
 21
197.147
  0
LINE
  8
0
 10
90.8197
 20
146.979
 11
85.2443
 21
149.82
  0
LINE
  8
0
 10
85.2443
 20
149.82
 11
80.8197
 21
154.244
  0
LINE
  8
0
 10
80.8197
 20
154.244
 11
77.9789
 21
159.82
  0
LINE
  8
0
 10
77.9789
 20
159.82
 11
77
 21
166
  0
LINE
  8
0
 10
77
 20
166
 11
77.9789
 21
172.18
  0
LINE
  8
0
 10
77.9789
 20
172.18
 11
80.8197
 21
177.756
  0
LINE
  8
0
 10
80.8197
 20
177.756
 11
85.2443
 21
182.18
  0
LINE
  8
0
 10
85.2443
 20
182.18
 11
90.8197
 21
185.021
  0
LINE
  8
0
 10
90.8197
 20
185.021
 11
97
 21
186
  0
LINE
  8
0
 10
97
 20
186
 11
103.18
 21
185.021
  0
LINE
  8
0
 10
103.18
 20
185.021
 11
108.756
 21
182.18
  0
LINE
  8
0
 10
108.756
 20
182.18
 11
113.18
 21
177.756
  0
LINE
  8
0
 10
113.18
 20
177.756
 11
116.021
 21
172.18
  0
LINE
  8
0
 10
116.021
 20
172.18
 11
117
 21
166
  0
LINE
  8
0
 10
117
 20
166
 11
116.021
 21
159.82
  0
LINE
  8
0
 10
116.021
 20
159.82
 11
113.18
 21
154.244
  0
LINE
  8
0
 10
113.18
 20
154.244
 11
108.756
 21
149.82
  0
LINE
  8
0
 10
108.756
 20
149.82
 11
103.18
 21
146.979
  0
LINE
  8
0
 10
103.18
 20
146.979
 11
97
 21
146
  0
LINE
  8
0
 10
97
 20
146
 11
90.8197
 21
146.979
  0
LINE
  8
0
 10
80.3665
 20
180.05
 11
79.795
 21
180.342
  0
LINE
  8
0
 10
79.795
 20
180.342
 11
79.3415
 21
180.795
  0
LINE
  8
0
 10
79.3415
 20
180.795
 11
79.0503
 21
181.367
  0
LINE
  8
0
 10
79.0503
 20
181.367
 11
78.95
 21
182
  0
LINE
  8
0
 10
78.95
 20
182
 11
79.0503
 21
182.633
  0
LINE
  8
0
 10
79.0503
 20
182.633
 11
79.3415
 21
183.205
  0
LINE
  8
0
 10
79.3415
 20
183.205
 11
79.795
 21
183.658
  0
LINE
  8
0
 10
79.795
 20
183.658
 11
80.3665
 21
183.95
  0
LINE
  8
0
 10
80.3665
 20
183.95
 11
81
 21
184.05
  0
LINE
  8
0
 10
81
 20
184.05
 11
81.6335
 21
183.95
  0
LINE
  8
0
 10
81.6335
 20
183.95
 11
82.205
 21
183.658
  0
LINE
  8
0
 10
82.205
 20
183.658
 11
82.6585
 21
183.205
  0
LINE
  8
0
 10
82.6585
 20
183.205
 11
82.9497
 21
182.633
  0
LINE
  8
0
 10
82.9497
 20
182.633
 11
83.05
 21
182
  0
LINE
  8
0
 10
83.05
 20
182
 11
82.9497
 21
181.367
  0
LINE
  8
0
 10
82.9497
 20
181.367
 11
82.6585
 21
180.795
  0
LINE
  8
0
 10
82.6585
 20
180.795
 11
82.205
 21
180.342
  0
LINE
  8
0
 10
82.205
 20
180.342
 11
81.6335
 21
180.05
  0
LINE
  8
0
 10
81.6335
 20
180.05
 11
81
 21
179.95
  0
LINE
  8
0
 10
81
 20
179.95
 11
80.3665
 21
180.05
  0
LINE
  8
0
 10
112.367
 20
180.05
 11
111.795
 21
180.342
  0
LINE
  8
0
 10
111.795
 20
180.342
 11
111.342
 21
180.795
  0
LINE
  8
0
 10
111.342
 20
180.795
 11
111.05
 21
181.367
  0
LINE
  8
0
 10
111.05
 20
181.367
 11
110.95
 21
182
  0
LINE
  8
0
 10
110.95
 20
182
 11
111.05
 21
182.633
  0
LINE
  8
0
 10
111.05
 20
182.633
 11
111.342
 21
183.205
  0
LINE
  8
0
 10
111.342
 20
183.205
 11
111.795
 21
183.658
  0
LINE
  8
0
 10
111.795
 20
183.658
 11
112.367
 21
183.95
  0
LINE
  8
0
 10
112.367
 20
183.95
 11
113
 21
184.05
  0
LINE
  8
0
 10
113
 20
184.05
 11
113.633
 21
183.95
  0
LINE
  8
0
 10
113.633
 20
183.95
 11
114.205
 21
183.658
  0
LINE
  8
0
 10
114.205
 20
183.658
 11
114.658
 21
183.205
  0
LINE
  8
0
 10
114.658
 20
183.205
 11
114.95
 21
182.633
  0
LINE
  8
0
 10
114.95
 20
182.633
 11
115.05
 21
182
  0
LINE
  8
0
 10
115.05
 20
182
 11
114.95
 21
181.367
  0
LINE
  8
0
 10
114.95
 20
181.367
 11
114.658
 21
180.795
  0
LINE
  8
0
 10
114.658
 20
180.795
 11
114.205
 21
180.342
  0
LINE
  8
0
 10
114.205
 20
180.342
 11
113.633
 21
180.05
  0
LINE
  8
0
 10
113.633
 20
180.05
 11
113
 21
179.95
  0
LINE
  8
0
 10
113
 20
179.95
 11
112.367
 21
180.05
  0
LINE
  8
0
 10
112.367
 20
148.05
 11
111.795
 21
148.342
  0
LINE
  8
0
 10
111.795
 20
148.342
 11
111.342
 21
148.795
  0
LINE
  8
0
 10
111.342
 20
148.795
 11
111.05
 21
149.367
  0
LINE
  8
0
 10
111.05
 20
149.367
 11
110.95
 21
150
  0
LINE
  8
0
 10
110.95
 20
150
 11
111.05
 21
150.633
  0
LINE
  8
0
 10
111.05
 20
150.633
 11
111.342
 21
151.205
  0
LINE
  8
0
 10
111.342
 20
151.205
 11
111.795
 21
151.658
  0
LINE
  8
0
 10
111.795
 20
151.658
 11
112.367
 21
151.95
  0
LINE
  8
0
 10
112.367
 20
151.95
 11
113
 21
152.05
  0
LINE
  8
0
 10
113
 20
152.05
 11
113.633
 21
151.95
  0
LINE
  8
0
 10
113.633
 20
151.95
 11
114.205
 21
151.658
  0
LINE
  8
0
 10
114.205
 20
151.658
 11
114.658
 21
151.205
  0
LINE
  8
0
 10
114.658
 20
151.205
 11
114.95
 21
150.633
  0
LINE
  8
0
 10
114.95
 20
150.633
 11
115.05
 21
150
  0
LINE
  8
0
 10
115.05
 20
150
 11
114.95
 21
149.367
  0
LINE
  8
0
 10
114.95
 20
149.367
 11
114.658
 21
148.795
  0
LINE
  8
0
 10
114.658
 20
148.795
 11
114.205
 21
148.342
  0
LINE
  8
0
 10
114.205
 20
148.342
 11
113.633
 21
148.05
  0
LINE
  8
0
 10
113.633
 20
148.05
 11
113
 21
147.95
  0
LINE
  8
0
 10
113
 20
147.95
 11
112.367
 21
148.05
  0
LINE
  8
0
 10
80.3665
 20
148.05
 11
79.795
 21
148.342
  0
LINE
  8
0
 10
79.795
 20
148.342
 11
79.3415
 21
148.795
  0
LINE
  8
0
 10
79.3415
 20
148.795
 11
79.0503
 21
149.367
  0
LINE
  8
0
 10
79.0503
 20
149.367
 11
78.95
 21
150
  0
LINE
  8
0
 10
78.95
 20
150
 11
79.0503
 21
150.633
  0
LINE
  8
0
 10
79.0503
 20
150.633
 11
79.3415
 21
151.205
  0
LINE
  8
0
 10
79.3415
 20
151.205
 11
79.795
 21
151.658
  0
LINE
  8
0
 10
79.795
 20
151.658
 11
80.3665
 21
151.95
  0
LINE
  8
0
 10
80.3665
 20
151.95
 11
81
 21
152.05
  0
LINE
  8
0
 10
81
 20
152.05
 11
81.6335
 21
151.95
  0
LINE
  8
0
 10
81.6335
 20
151.95
 11
82.205
 21
151.658
  0
LINE
  8
0
 10
82.205
 20
151.658
 11
82.6585
 21
151.205
  0
LINE
  8
0
 10
82.6585
 20
151.205
 11
82.9497
 21
150.633
  0
LINE
  8
0
 10
82.9497
 20
150.633
 11
83.05
 21
150
  0
LINE
  8
0
 10
83.05
 20
150
 11
82.9497
 21
149.367
  0
LINE
  8
0
 10
82.9497
 20
149.367
 11
82.6585
 21
148.795
  0
LINE
  8
0
 10
82.6585
 20
148.795
 11
82.205
 21
148.342
  0
LINE
  8
0
 10
82.205
 20
148.342
 11
81.6335
 21
148.05
  0
LINE
  8
0
 10
81.6335
 20
148.05
 11
81
 21
147.95
  0
LINE
  8
0
 10
81
 20
147.95
 11
80.3665
 21
148.05
  0
LINE
  8
0
 10
84.1304
 20
44.2461
 11
82.4439
 21
45.1054
  0
LINE
  8
0
 10
82.4439
 20
45.1054
 11
81.1054
 21
46.4439
  0
LINE
  8
0
 10
81.1054
 20
46.4439
 11
80.2461
 21
48.1304
  0
LINE
  8
0
 10
80.2461
 20
48.1304
 11
79.95
 21
50
  0
LINE
  8
0
 10
79.95
 20
50
 11
80.2461
 21
51.8696
  0
LINE
  8
0
 10
80.2461
 20
51.8696
 11
81.1054
 21
53.5561
  0
LINE
  8
0
 10
81.1054
 20
53.5561
 11
82.4439
 21
54.8945
  0
LINE
  8
0
 10
82.4439
 20
54.8945
 11
84.1304
 21
55.7539
  0
LINE
  8
0
 10
84.1304
 20
55.7539
 11
86
 21
56.05
  0
LINE
  8
0
 10
86
 20
56.05
 11
87.8696
 21
55.7539
  0
LINE
  8
0
 10
87.8696
 20
55.7539
 11
89.5561
 21
54.8945
  0
LINE
  8
0
 10
89.5561
 20
54.8945
 11
90.8945
 21
53.5561
  0
LINE
  8
0
 10
90.8945
 20
53.5561
 11
91.7539
 21
51.8696
  0
LINE
  8
0
 10
91.7539
 20
51.8696
 11
92.05
 21
50
  0
LINE
  8
0
 10
92.05
 20
50
 11
91.7539
 21
48.1304
  0
LINE
  8
0
 10
91.7539
 20
48.1304
 11
90.8945
 21
46.4439
  0
LINE
  8
0
 10
90.8945
 20
46.4439
 11
89.5561
 21
45.1054
  0
LINE
  8
0
 10
89.5561
 20
45.1054
 11
87.8696
 21
44.2461
  0
LINE
  8
0
 10
87.8696
 20
44.2461
 11
86
 21
43.95
  0
LINE
  8
0
 10
86
 20
43.95
 11
84.1304
 21
44.2461
  0
LINE
  8
0
 10
4.09999
 20
20
 11
8.09999
 21
20
  0
LINE
  8
0
 10
8.09999
 20
20
 11
8.09999
 21
0
  0
LINE
  8
0
 10
8.09999
 20
0
 11
48.9
 21
0
  0
LINE
  8
0
 10
48.9
 20
0
 11
48.9
 21
20
  0
LINE
  8
0
 10
48.9
 20
20
 11
52.9
 21
20
  0
LINE
  8
0
 10
52.9
 20
20
 11
52.9
 21
0
  0
LINE
  8
0
 10
52.9
 20
0
 11
58
 21
0
  0
LINE
  8
0
 10
58
 20
0
 11
58
 21
300
  0
LINE
  8
0
 10
58
 20
300
 11
52.9
 21
300
  0
LINE
  8
0
 10
52.9
 20
300
 11
52.9
 21
280
  0
LINE
  8
0
 10
52.9
 20
280
 11
48.9
 21
280
  0
LINE
  8
0
 10
48.9
 20
280
 11
48.9
 21
300
  0
LINE
  8
0
 10
48.9
 20
300
 11
8.09999
 21
300
  0
LINE
  8
0
 10
8.09999
 20
300
 11
8.09999
 21
280
  0
LINE
  8
0
 10
8.09999
 20
280
 11
4.09999
 21
280
  0
LINE
  8
0
 10
4.09999
 20
280
 11
4.09999
 21
300
  0
LINE
  8
0
 10
4.09999
 20
300
 11
0
 21
300
  0
LINE
  8
0
 10
0
 20
300
 11
0
 21
0
  0
LINE
  8
0
 10
0
 20
0
 11
4.09999
 21
0
  0
LINE
  8
0
 10
4.09999
 20
0
 11
4.09999
 21
20
  0
LINE
  8
0
 10
28.521
 20
258.526
 11
28.0889
 21
258.746
  0
LINE
  8
0
 10
28.0889
 20
258.746
 11
27.746
 21
259.089
  0
LINE
  8
0
 10
27.746
 20
259.089
 11
27.5258
 21
259.521
  0
LINE
  8
0
 10
27.5258
 20
259.521
 11
27.45
 21
260
  0
LINE
  8
0
 10
27.45
 20
260
 11
27.5258
 21
260.479
  0
LINE
  8
0
 10
27.5258
 20
260.479
 11
27.746
 21
260.911
  0
LINE
  8
0
 10
27.746
 20
260.911
 11
28.0889
 21
261.254
  0
LINE
  8
0
 10
28.0889
 20
261.254
 11
28.521
 21
261.474
  0
LINE
  8
0
 10
28.521
 20
261.474
 11
29
 21
261.55
  0
LINE
  8
0
 10
29
 20
261.55
 11
29.479
 21
261.474
  0
LINE
  8
0
 10
29.479
 20
261.474
 11
29.9111
 21
261.254
  0
LINE
  8
0
 10
29.9111
 20
261.254
 11
30.254
 21
260.911
  0
LINE
  8
0
 10
30.254
 20
260.911
 11
30.4741
 21
260.479
  0
LINE
  8
0
 10
30.4741
 20
260.479
 11
30.55
 21
260
  0
LINE
  8
0
 10
30.55
 20
260
 11
30.4741
 21
259.521
  0
LINE
  8
0
 10
30.4741
 20
259.521
 11
30.254
 21
259.089
  0
LINE
  8
0
 10
30.254
 20
259.089
 11
29.9111
 21
258.746
  0
LINE
  8
0
 10
29.9111
 20
258.746
 11
29.479
 21
258.526
  0
LINE
  8
0
 10
29.479
 20
258.526
 11
29
 21
258.45
  0
LINE
  8
0
 10
29
 20
258.45
 11
28.521
 21
258.526
  0
LINE
  8
0
 10
24
 20
237
 11
24
 21
253
  0
LINE
  8
0
 10
24
 20
253
 11
34
 21
253
  0
LINE
  8
0
 10
34
 20
253
 11
34
 21
237
  0
LINE
  8
0
 10
34
 20
237
 11
24
 21
237
  0
LINE
  8
0
 10
28.521
 20
228.526
 11
28.0889
 21
228.746
  0
LINE
  8
0
 10
28.0889
 20
228.746
 11
27.746
 21
229.089
  0
LINE
  8
0
 10
27.746
 20
229.089
 11
27.5258
 21
229.521
  0
LINE
  8
0
 10
27.5258
 20
229.521
 11
27.45
 21
230
  0
LINE
  8
0
 10
27.45
 20
230
 11
27.5258
 21
230.479
  0
LINE
  8
0
 10
27.5258
 20
230.479
 11
27.746
 21
230.911
  0
LINE
  8
0
 10
27.746
 20
230.911
 11
28.0889
 21
231.254
  0
LINE
  8
0
 10
28.0889
 20
231.254
 11
28.521
 21
231.474
  0
LINE
  8
0
 10
28.521
 20
231.474
 11
29
 21
231.55
  0
LINE
  8
0
 10
29
 20
231.55
 11
29.479
 21
231.474
  0
LINE
  8
0
 10
29.479
 20
231.474
 11
29.9111
 21
231.254
  0
LINE
  8
0
 10
29.9111
 20
231.254
 11
30.254
 21
230.911
  0
LINE
  8
0
 10
30.254
 20
230.911
 11
30.4741
 21
230.479
  0
LINE
  8
0
 10
30.4741
 20
230.479
 11
30.55
 21
230
  0
LINE
  8
0
 10
30.55
 20
230
 11
30.4741
 21
229.521
  0
LINE
  8
0
 10
30.4741
 20
229.521
 11
30.254
 21
229.089
  0
LINE
  8
0
 10
30.254
 20
229.089
 11
29.9111
 21
228.746
  0
LINE
  8
0
 10
29.9111
 20
228.746
 11
29.479
 21
228.526
  0
LINE
  8
0
 10
29.479
 20
228.526
 11
29
 21
228.45
  0
LINE
  8
0
 10
29
 20
228.45
 11
28.521
 21
228.526
  0
LINE
  8
0
 10
28.521
 20
208.526
 11
28.0889
 21
208.746
  0
LINE
  8
0
 10
28.0889
 20
208.746
 11
27.746
 21
209.089
  0
LINE
  8
0
 10
27.746
 20
209.089
 11
27.5258
 21
209.521
  0
LINE
  8
0
 10
27.5258
 20
209.521
 11
27.45
 21
210
  0
LINE
  8
0
 10
27.45
 20
210
 11
27.5258
 21
210.479
  0
LINE
  8
0
 10
27.5258
 20
210.479
 11
27.746
 21
210.911
  0
LINE
  8
0
 10
27.746
 20
210.911
 11
28.0889
 21
211.254
  0
LINE
  8
0
 10
28.0889
 20
211.254
 11
28.521
 21
211.474
  0
LINE
  8
0
 10
28.521
 20
211.474
 11
29
 21
211.55
  0
LINE
  8
0
 10
29
 20
211.55
 11
29.479
 21
211.474
  0
LINE
  8
0
 10
29.479
 20
211.474
 11
29.9111
 21
211.254
  0
LINE
  8
0
 10
29.9111
 20
211.254
 11
30.254
 21
210.911
  0
LINE
  8
0
 10
30.254
 20
210.911
 11
30.4741
 21
210.479
  0
LINE
  8
0
 10
30.4741
 20
210.479
 11
30.55
 21
210
  0
LINE
  8
0
 10
30.55
 20
210
 11
30.4741
 21
209.521
  0
LINE
  8
0
 10
30.4741
 20
209.521
 11
30.254
 21
209.089
  0
LINE
  8
0
 10
30.254
 20
209.089
 11
29.9111
 21
208.746
  0
LINE
  8
0
 10
29.9111
 20
208.746
 11
29.479
 21
208.526
  0
LINE
  8
0
 10
29.479
 20
208.526
 11
29
 21
208.45
  0
LINE
  8
0
 10
29
 20
208.45
 11
28.521
 21
208.526
  0
LINE
  8
0
 10
24
 20
187
 11
24
 21
203
  0
LINE
  8
0
 10
24
 20
203
 11
34
 21
203
  0
LINE
  8
0
 10
34
 20
203
 11
34
 21
187
  0
LINE
  8
0
 10
34
 20
187
 11
24
 21
187
  0
LINE
  8
0
 10
28.521
 20
178.526
 11
28.0889
 21
178.746
  0
LINE
  8
0
 10
28.0889
 20
178.746
 11
27.746
 21
179.089
  0
LINE
  8
0
 10
27.746
 20
179.089
 11
27.5258
 21
179.521
  0
LINE
  8
0
 10
27.5258
 20
179.521
 11
27.45
 21
180
  0
LINE
  8
0
 10
27.45
 20
180
 11
27.5258
 21
180.479
  0
LINE
  8
0
 10
27.5258
 20
180.479
 11
27.746
 21
180.911
  0
LINE
  8
0
 10
27.746
 20
180.911
 11
28.0889
 21
181.254
  0
LINE
  8
0
 10
28.0889
 20
181.254
 11
28.521
 21
181.474
  0
LINE
  8
0
 10
28.521
 20
181.474
 11
29
 21
181.55
  0
LINE
  8
0
 10
29
 20
181.55
 11
29.479
 21
181.474
  0
LINE
  8
0
 10
29.479
 20
181.474
 11
29.9111
 21
181.254
  0
LINE
  8
0
 10
29.9111
 20
181.254
 11
30.254
 21
180.911
  0
LINE
  8
0
 10
30.254
 20
180.911
 11
30.4741
 21
180.479
  0
LINE
  8
0
 10
30.4741
 20
180.479
 11
30.55
 21
180
  0
LINE
  8
0
 10
30.55
 20
180
 11
30.4741
 21
179.521
  0
LINE
  8
0
 10
30.4741
 20
179.521
 11
30.254
 21
179.089
  0
LINE
  8
0
 10
30.254
 20
179.089
 11
29.9111
 21
178.746
  0
LINE
  8
0
 10
29.9111
 20
178.746
 11
29.479
 21
178.526
  0
LINE
  8
0
 10
29.479
 20
178.526
 11
29
 21
178.45
  0
LINE
  8
0
 10
29
 20
178.45
 11
28.521
 21
178.526
  0
ENDSEC
  0
SECTION
  2
OBJECTS
  0
DICTIONARY
  0
ENDSEC
  0
EOF
