  0
SECTION
  2
BLOCKS
  0
ENDSEC
  0
SECTION
  2
ENTITIES
  0
LINE
  8
0
 10
200
 20
300
 11
0
 21
300
  0
LINE
  8
0
 10
0
 20
300
 11
0
 21
0
  0
LINE
  8
0
 10
0
 20
0
 11
200
 21
0
  0
LINE
  8
0
 10
200
 20
0
 11
200
 21
300
  0
LINE
  8
0
 10
193.521
 20
292.526
 11
193.089
 21
292.746
  0
LINE
  8
0
 10
193.089
 20
292.746
 11
192.746
 21
293.089
  0
LINE
  8
0
 10
192.746
 20
293.089
 11
192.526
 21
293.521
  0
LINE
  8
0
 10
192.526
 20
293.521
 11
192.45
 21
294
  0
LINE
  8
0
 10
192.45
 20
294
 11
192.526
 21
294.479
  0
LINE
  8
0
 10
192.526
 20
294.479
 11
192.746
 21
294.911
  0
LINE
  8
0
 10
192.746
 20
294.911
 11
193.089
 21
295.254
  0
LINE
  8
0
 10
193.089
 20
295.254
 11
193.521
 21
295.474
  0
LINE
  8
0
 10
193.521
 20
295.474
 11
194
 21
295.55
  0
LINE
  8
0
 10
194
 20
295.55
 11
194.479
 21
295.474
  0
LINE
  8
0
 10
194.479
 20
295.474
 11
194.911
 21
295.254
  0
LINE
  8
0
 10
194.911
 20
295.254
 11
195.254
 21
294.911
  0
LINE
  8
0
 10
195.254
 20
294.911
 11
195.474
 21
294.479
  0
LINE
  8
0
 10
195.474
 20
294.479
 11
195.55
 21
294
  0
LINE
  8
0
 10
195.55
 20
294
 11
195.474
 21
293.521
  0
LINE
  8
0
 10
195.474
 20
293.521
 11
195.254
 21
293.089
  0
LINE
  8
0
 10
195.254
 20
293.089
 11
194.911
 21
292.746
  0
LINE
  8
0
 10
194.911
 20
292.746
 11
194.479
 21
292.526
  0
LINE
  8
0
 10
194.479
 20
292.526
 11
194
 21
292.45
  0
LINE
  8
0
 10
194
 20
292.45
 11
193.521
 21
292.526
  0
LINE
  8
0
 10
5.52101
 20
292.526
 11
5.08893
 21
292.746
  0
LINE
  8
0
 10
5.08893
 20
292.746
 11
4.74602
 21
293.089
  0
LINE
  8
0
 10
4.74602
 20
293.089
 11
4.52585
 21
293.521
  0
LINE
  8
0
 10
4.52585
 20
293.521
 11
4.45
 21
294
  0
LINE
  8
0
 10
4.45
 20
294
 11
4.52585
 21
294.479
  0
LINE
  8
0
 10
4.52585
 20
294.479
 11
4.74602
 21
294.911
  0
LINE
  8
0
 10
4.74602
 20
294.911
 11
5.08893
 21
295.254
  0
LINE
  8
0
 10
5.08893
 20
295.254
 11
5.52101
 21
295.474
  0
LINE
  8
0
 10
5.52101
 20
295.474
 11
6
 21
295.55
  0
LINE
  8
0
 10
6
 20
295.55
 11
6.47897
 21
295.474
  0
LINE
  8
0
 10
6.47897
 20
295.474
 11
6.91106
 21
295.254
  0
LINE
  8
0
 10
6.91106
 20
295.254
 11
7.25397
 21
294.911
  0
LINE
  8
0
 10
7.25397
 20
294.911
 11
7.47414
 21
294.479
  0
LINE
  8
0
 10
7.47414
 20
294.479
 11
7.54999
 21
294
  0
LINE
  8
0
 10
7.54999
 20
294
 11
7.47414
 21
293.521
  0
LINE
  8
0
 10
7.47414
 20
293.521
 11
7.25397
 21
293.089
  0
LINE
  8
0
 10
7.25397
 20
293.089
 11
6.91106
 21
292.746
  0
LINE
  8
0
 10
6.91106
 20
292.746
 11
6.47897
 21
292.526
  0
LINE
  8
0
 10
6.47897
 20
292.526
 11
6
 21
292.45
  0
LINE
  8
0
 10
6
 20
292.45
 11
5.52101
 21
292.526
  0
LINE
  8
0
 10
111.752
 20
242.778
 11
107.895
 21
245.479
  0
LINE
  8
0
 10
107.895
 20
245.479
 11
105.061
 21
249.24
  0
LINE
  8
0
 10
105.061
 20
249.24
 11
103.528
 21
253.692
  0
LINE
  8
0
 10
103.528
 20
253.692
 11
103.446
 21
258.4
  0
LINE
  8
0
 10
103.446
 20
258.4
 11
104.823
 21
262.903
  0
LINE
  8
0
 10
104.823
 20
262.903
 11
107.523
 21
266.76
  0
LINE
  8
0
 10
107.523
 20
266.76
 11
111.284
 21
269.594
  0
LINE
  8
0
 10
111.284
 20
269.594
 11
115.736
 21
271.127
  0
LINE
  8
0
 10
115.736
 20
271.127
 11
120.444
 21
271.209
  0
LINE
  8
0
 10
120.444
 20
271.209
 11
124.947
 21
269.832
  0
LINE
  8
0
 10
124.947
 20
269.832
 11
128.804
 21
267.131
  0
LINE
  8
0
 10
128.804
 20
267.131
 11
131.638
 21
263.371
  0
LINE
  8
0
 10
131.638
 20
263.371
 11
133.171
 21
258.919
  0
LINE
  8
0
 10
133.171
 20
258.919
 11
133.253
 21
254.211
  0
LINE
  8
0
 10
133.253
 20
254.211
 11
131.876
 21
249.708
  0
LINE
  8
0
 10
131.876
 20
249.708
 11
129.176
 21
245.851
  0
LINE
  8
0
 10
129.176
 20
245.851
 11
125.415
 21
243.017
  0
LINE
  8
0
 10
125.415
 20
243.017
 11
120.963
 21
241.484
  0
LINE
  8
0
 10
120.963
 20
241.484
 11
116.255
 21
241.402
  0
LINE
  8
0
 10
116.255
 20
241.402
 11
111.752
 21
242.778
  0
LINE
  8
0
 10
76.299
 20
236.527
 11
72.4418
 21
239.228
  0
LINE
  8
0
 10
72.4418
 20
239.228
 11
69.6081
 21
242.988
  0
LINE
  8
0
 10
69.6081
 20
242.988
 11
68.0751
 21
247.441
  0
LINE
  8
0
 10
68.0751
 20
247.441
 11
67.9929
 21
252.149
  0
LINE
  8
0
 10
67.9929
 20
252.149
 11
69.3696
 21
256.651
  0
LINE
  8
0
 10
69.3696
 20
256.651
 11
72.0704
 21
260.509
  0
LINE
  8
0
 10
72.0704
 20
260.509
 11
75.8309
 21
263.342
  0
LINE
  8
0
 10
75.8309
 20
263.342
 11
80.2831
 21
264.875
  0
LINE
  8
0
 10
80.2831
 20
264.875
 11
84.991
 21
264.957
  0
LINE
  8
0
 10
84.991
 20
264.957
 11
89.4939
 21
263.581
  0
LINE
  8
0
 10
89.4939
 20
263.581
 11
93.3511
 21
260.88
  0
LINE
  8
0
 10
93.3511
 20
260.88
 11
96.1848
 21
257.12
  0
LINE
  8
0
 10
96.1848
 20
257.12
 11
97.7178
 21
252.667
  0
LINE
  8
0
 10
97.7178
 20
252.667
 11
97.8
 21
247.959
  0
LINE
  8
0
 10
97.8
 20
247.959
 11
96.4233
 21
243.456
  0
LINE
  8
0
 10
96.4233
 20
243.456
 11
93.7225
 21
239.599
  0
LINE
  8
0
 10
93.7225
 20
239.599
 11
89.962
 21
236.766
  0
LINE
  8
0
 10
89.962
 20
236.766
 11
85.5099
 21
235.233
  0
LINE
  8
0
 10
85.5099
 20
235.233
 11
80.8019
 21
235.15
  0
LINE
  8
0
 10
80.8019
 20
235.15
 11
76.299
 21
236.527
  0
LINE
  8
0
 10
100.277
 20
204.2
 11
96.4197
 21
206.9
  0
LINE
  8
0
 10
96.4197
 20
206.9
 11
93.586
 21
210.661
  0
LINE
  8
0
 10
93.586
 20
210.661
 11
92.053
 21
215.113
  0
LINE
  8
0
 10
92.053
 20
215.113
 11
91.9708
 21
219.821
  0
LINE
  8
0
 10
91.9708
 20
219.821
 11
93.3475
 21
224.324
  0
LINE
  8
0
 10
93.3475
 20
224.324
 11
96.0483
 21
228.181
  0
LINE
  8
0
 10
96.0483
 20
228.181
 11
99.8088
 21
231.015
  0
LINE
  8
0
 10
99.8088
 20
231.015
 11
104.261
 21
232.548
  0
LINE
  8
0
 10
104.261
 20
232.548
 11
108.969
 21
232.63
  0
LINE
  8
0
 10
108.969
 20
232.63
 11
113.472
 21
231.253
  0
LINE
  8
0
 10
113.472
 20
231.253
 11
117.329
 21
228.553
  0
LINE
  8
0
 10
117.329
 20
228.553
 11
120.163
 21
224.792
  0
LINE
  8
0
 10
120.163
 20
224.792
 11
121.696
 21
220.34
  0
LINE
  8
0
 10
121.696
 20
220.34
 11
121.778
 21
215.632
  0
LINE
  8
0
 10
121.778
 20
215.632
 11
120.401
 21
211.129
  0
LINE
  8
0
 10
120.401
 20
211.129
 11
117.7
 21
207.272
  0
LINE
  8
0
 10
117.7
 20
207.272
 11
113.94
 21
204.438
  0
LINE
  8
0
 10
113.94
 20
204.438
 11
109.488
 21
202.905
  0
LINE
  8
0
 10
109.488
 20
202.905
 11
104.78
 21
202.823
  0
LINE
  8
0
 10
104.78
 20
202.823
 11
100.277
 21
204.2
  0
LINE
  8
0
 10
64.8238
 20
197.948
 11
60.9666
 21
200.649
  0
LINE
  8
0
 10
60.9666
 20
200.649
 11
58.1329
 21
204.41
  0
LINE
  8
0
 10
58.1329
 20
204.41
 11
56.5999
 21
208.862
  0
LINE
  8
0
 10
56.5999
 20
208.862
 11
56.5177
 21
213.57
  0
LINE
  8
0
 10
56.5177
 20
213.57
 11
57.8944
 21
218.073
  0
LINE
  8
0
 10
57.8944
 20
218.073
 11
60.5952
 21
221.93
  0
LINE
  8
0
 10
60.5952
 20
221.93
 11
64.3557
 21
224.764
  0
LINE
  8
0
 10
64.3557
 20
224.764
 11
68.8078
 21
226.297
  0
LINE
  8
0
 10
68.8078
 20
226.297
 11
73.5158
 21
226.379
  0
LINE
  8
0
 10
73.5158
 20
226.379
 11
78.0187
 21
225.002
  0
LINE
  8
0
 10
78.0187
 20
225.002
 11
81.8759
 21
222.301
  0
LINE
  8
0
 10
81.8759
 20
222.301
 11
84.7096
 21
218.541
  0
LINE
  8
0
 10
84.7096
 20
218.541
 11
86.2426
 21
214.089
  0
LINE
  8
0
 10
86.2426
 20
214.089
 11
86.3248
 21
209.381
  0
LINE
  8
0
 10
86.3248
 20
209.381
 11
84.9481
 21
204.878
  0
LINE
  8
0
 10
84.9481
 20
204.878
 11
82.2473
 21
201.021
  0
LINE
  8
0
 10
82.2473
 20
201.021
 11
78.4868
 21
198.187
  0
LINE
  8
0
 10
78.4868
 20
198.187
 11
74.0347
 21
196.654
  0
LINE
  8
0
 10
74.0347
 20
196.654
 11
69.3267
 21
196.572
  0
LINE
  8
0
 10
69.3267
 20
196.572
 11
64.8238
 21
197.948
  0
LINE
  8
0
 10
96.6801
 20
167.01
 11
92.823
 21
169.711
  0
LINE
  8
0
 10
92.823
 20
169.711
 11
89.9892
 21
173.471
  0
LINE
  8
0
 10
89.9892
 20
173.471
 11
88.4562
 21
177.924
  0
LINE
  8
0
 10
88.4562
 20
177.924
 11
88.3741
 21
182.632
  0
LINE
  8
0
 10
88.3741
 20
182.632
 11
89.7507
 21
187.134
  0
LINE
  8
0
 10
89.7507
 20
187.134
 11
92.4515
 21
190.992
  0
LINE
  8
0
 10
92.4515
 20
190.992
 11
96.212
 21
193.825
  0
LINE
  8
0
 10
96.212
 20
193.825
 11
100.664
 21
195.358
  0
LINE
  8
0
 10
100.664
 20
195.358
 11
105.372
 21
195.441
  0
LINE
  8
0
 10
105.372
 20
195.441
 11
109.875
 21
194.064
  0
LINE
  8
0
 10
109.875
 20
194.064
 11
113.732
 21
191.363
  0
LINE
  8
0
 10
113.732
 20
191.363
 11
116.566
 21
187.603
  0
LINE
  8
0
 10
116.566
 20
187.603
 11
118.099
 21
183.15
  0
LINE
  8
0
 10
118.099
 20
183.15
 11
118.181
 21
178.442
  0
LINE
  8
0
 10
118.181
 20
178.442
 11
116.804
 21
173.939
  0
LINE
  8
0
 10
116.804
 20
173.939
 11
114.104
 21
170.082
  0
LINE
  8
0
 10
114.104
 20
170.082
 11
110.343
 21
167.249
  0
LINE
  8
0
 10
110.343
 20
167.249
 11
105.891
 21
165.716
  0
LINE
  8
0
 10
105.891
 20
165.716
 11
101.183
 21
165.633
  0
LINE
  8
0
 10
101.183
 20
165.633
 11
96.6801
 21
167.01
  0
LINE
  8
0
 10
61.227
 20
160.759
 11
57.3699
 21
163.46
  0
LINE
  8
0
 10
57.3699
 20
163.46
 11
54.5361
 21
167.22
  0
LINE
  8
0
 10
54.5361
 20
167.22
 11
53.0031
 21
171.672
  0
LINE
  8
0
 10
53.0031
 20
171.672
 11
52.921
 21
176.38
  0
LINE
  8
0
 10
52.921
 20
176.38
 11
54.2977
 21
180.883
  0
LINE
  8
0
 10
54.2977
 20
180.883
 11
56.9984
 21
184.74
  0
LINE
  8
0
 10
56.9984
 20
184.74
 11
60.759
 21
187.574
  0
LINE
  8
0
 10
60.759
 20
187.574
 11
65.2111
 21
189.107
  0
LINE
  8
0
 10
65.2111
 20
189.107
 11
69.9191
 21
189.189
  0
LINE
  8
0
 10
69.9191
 20
189.189
 11
74.422
 21
187.812
  0
LINE
  8
0
 10
74.422
 20
187.812
 11
78.2791
 21
185.112
  0
LINE
  8
0
 10
78.2791
 20
185.112
 11
81.1129
 21
181.351
  0
LINE
  8
0
 10
81.1129
 20
181.351
 11
82.6459
 21
176.899
  0
LINE
  8
0
 10
82.6459
 20
176.899
 11
82.728
 21
172.191
  0
LINE
  8
0
 10
82.728
 20
172.191
 11
81.3514
 21
167.688
  0
LINE
  8
0
 10
81.3514
 20
167.688
 11
78.6506
 21
163.831
  0
LINE
  8
0
 10
78.6506
 20
163.831
 11
74.8901
 21
160.997
  0
LINE
  8
0
 10
74.8901
 20
160.997
 11
70.4379
 21
159.464
  0
LINE
  8
0
 10
70.4379
 20
159.464
 11
65.7299
 21
159.382
  0
LINE
  8
0
 10
65.7299
 20
159.382
 11
61.227
 21
160.759
  0
LINE
  8
0
 10
130.506
 20
136.419
 11
126.649
 21
139.12
  0
LINE
  8
0
 10
126.649
 20
139.12
 11
123.815
 21
142.881
  0
LINE
  8
0
 10
123.815
 20
142.881
 11
122.282
 21
147.333
  0
LINE
  8
0
 10
122.282
 20
147.333
 11
122.2
 21
152.041
  0
LINE
  8
0
 10
122.2
 20
152.041
 11
123.577
 21
156.544
  0
LINE
  8
0
 10
123.577
 20
156.544
 11
126.277
 21
160.401
  0
LINE
  8
0
 10
126.277
 20
160.401
 11
130.038
 21
163.234
  0
LINE
  8
0
 10
130.038
 20
163.234
 11
134.49
 21
164.767
  0
LINE
  8
0
 10
134.49
 20
164.767
 11
139.198
 21
164.85
  0
LINE
  8
0
 10
139.198
 20
164.85
 11
143.701
 21
163.473
  0
LINE
  8
0
 10
143.701
 20
163.473
 11
147.558
 21
160.772
  0
LINE
  8
0
 10
147.558
 20
160.772
 11
150.392
 21
157.012
  0
LINE
  8
0
 10
150.392
 20
157.012
 11
151.925
 21
152.559
  0
LINE
  8
0
 10
151.925
 20
152.559
 11
152.007
 21
147.851
  0
LINE
  8
0
 10
152.007
 20
147.851
 11
150.63
 21
143.349
  0
LINE
  8
0
 10
150.63
 20
143.349
 11
147.93
 21
139.491
  0
LINE
  8
0
 10
147.93
 20
139.491
 11
144.169
 21
136.658
  0
LINE
  8
0
 10
144.169
 20
136.658
 11
139.717
 21
135.125
  0
LINE
  8
0
 10
139.717
 20
135.125
 11
135.009
 21
135.043
  0
LINE
  8
0
 10
135.009
 20
135.043
 11
130.506
 21
136.419
  0
LINE
  8
0
 10
95.053
 20
130.168
 11
91.1958
 21
132.869
  0
LINE
  8
0
 10
91.1958
 20
132.869
 11
88.3621
 21
136.629
  0
LINE
  8
0
 10
88.3621
 20
136.629
 11
86.8291
 21
141.081
  0
LINE
  8
0
 10
86.8291
 20
141.081
 11
86.7469
 21
145.789
  0
LINE
  8
0
 10
86.7469
 20
145.789
 11
88.1236
 21
150.292
  0
LINE
  8
0
 10
88.1236
 20
150.292
 11
90.8244
 21
154.149
  0
LINE
  8
0
 10
90.8244
 20
154.149
 11
94.5849
 21
156.983
  0
LINE
  8
0
 10
94.5849
 20
156.983
 11
99.037
 21
158.516
  0
LINE
  8
0
 10
99.037
 20
158.516
 11
103.745
 21
158.598
  0
LINE
  8
0
 10
103.745
 20
158.598
 11
108.248
 21
157.222
  0
LINE
  8
0
 10
108.248
 20
157.222
 11
112.105
 21
154.521
  0
LINE
  8
0
 10
112.105
 20
154.521
 11
114.939
 21
150.76
  0
LINE
  8
0
 10
114.939
 20
150.76
 11
116.472
 21
146.308
  0
LINE
  8
0
 10
116.472
 20
146.308
 11
116.554
 21
141.6
  0
LINE
  8
0
 10
116.554
 20
141.6
 11
115.177
 21
137.097
  0
LINE
  8
0
 10
115.177
 20
137.097
 11
112.477
 21
133.24
  0
LINE
  8
0
 10
112.477
 20
133.24
 11
108.716
 21
130.406
  0
LINE
  8
0
 10
108.716
 20
130.406
 11
104.264
 21
128.873
  0
LINE
  8
0
 10
104.264
 20
128.873
 11
99.5559
 21
128.791
  0
LINE
  8
0
 10
99.5559
 20
128.791
 11
95.053
 21
130.168
  0
LINE
  8
0
 10
26.2763
 20
114.54
 11
22.9172
 21
116.251
  0
LINE
  8
0
 10
22.9172
 20
116.251
 11
20.2513
 21
118.917
  0
LINE
  8
0
 10
20.2513
 20
118.917
 11
18.5398
 21
122.276
  0
LINE
  8
0
 10
18.5398
 20
122.276
 11
17.95
 21
126
  0
LINE
  8
0
 10
17.95
 20
126
 11
18.5398
 21
129.724
  0
LINE
  8
0
 10
18.5398
 20
129.724
 11
20.2513
 21
133.083
  0
LINE
  8
0
 10
20.2513
 20
133.083
 11
22.9172
 21
135.749
  0
LINE
  8
0
 10
22.9172
 20
135.749
 11
26.2763
 21
137.46
  0
LINE
  8
0
 10
26.2763
 20
137.46
 11
30
 21
138.05
  0
LINE
  8
0
 10
30
 20
138.05
 11
33.7236
 21
137.46
  0
LINE
  8
0
 10
33.7236
 20
137.46
 11
37.0828
 21
135.749
  0
LINE
  8
0
 10
37.0828
 20
135.749
 11
39.7487
 21
133.083
  0
LINE
  8
0
 10
39.7487
 20
133.083
 11
41.4602
 21
129.724
  0
LINE
  8
0
 10
41.4602
 20
129.724
 11
42.05
 21
126
  0
LINE
  8
0
 10
42.05
 20
126
 11
41.4602
 21
122.276
  0
LINE
  8
0
 10
41.4602
 20
122.276
 11
39.7487
 21
118.917
  0
LINE
  8
0
 10
39.7487
 20
118.917
 11
37.0828
 21
116.251
  0
LINE
  8
0
 10
37.0828
 20
116.251
 11
33.7236
 21
114.54
  0
LINE
  8
0
 10
33.7236
 20
114.54
 11
30
 21
113.95
  0
LINE
  8
0
 10
30
 20
113.95
 11
26.2763
 21
114.54
  0
LINE
  8
0
 10
26.2763
 20
78.5398
 11
22.9172
 21
80.2513
  0
LINE
  8
0
 10
22.9172
 20
80.2513
 11
20.2513
 21
82.9172
  0
LINE
  8
0
 10
20.2513
 20
82.9172
 11
18.5398
 21
86.2763
  0
LINE
  8
0
 10
18.5398
 20
86.2763
 11
17.95
 21
90
  0
LINE
  8
0
 10
17.95
 20
90
 11
18.5398
 21
93.7236
  0
LINE
  8
0
 10
18.5398
 20
93.7236
 11
20.2513
 21
97.0828
  0
LINE
  8
0
 10
20.2513
 20
97.0828
 11
22.9172
 21
99.7487
  0
LINE
  8
0
 10
22.9172
 20
99.7487
 11
26.2763
 21
101.46
  0
LINE
  8
0
 10
26.2763
 20
101.46
 11
30
 21
102.05
  0
LINE
  8
0
 10
30
 20
102.05
 11
33.7236
 21
101.46
  0
LINE
  8
0
 10
33.7236
 20
101.46
 11
37.0828
 21
99.7487
  0
LINE
  8
0
 10
37.0828
 20
99.7487
 11
39.7487
 21
97.0828
  0
LINE
  8
0
 10
39.7487
 20
97.0828
 11
41.4602
 21
93.7236
  0
LINE
  8
0
 10
41.4602
 20
93.7236
 11
42.05
 21
90
  0
LINE
  8
0
 10
42.05
 20
90
 11
41.4602
 21
86.2763
  0
LINE
  8
0
 10
41.4602
 20
86.2763
 11
39.7487
 21
82.9172
  0
LINE
  8
0
 10
39.7487
 20
82.9172
 11
37.0828
 21
80.2513
  0
LINE
  8
0
 10
37.0828
 20
80.2513
 11
33.7236
 21
78.5398
  0
LINE
  8
0
 10
33.7236
 20
78.5398
 11
30
 21
77.95
  0
LINE
  8
0
 10
30
 20
77.95
 11
26.2763
 21
78.5398
  0
LINE
  8
0
 10
142.521
 20
68.5259
 11
142.089
 21
68.746
  0
LINE
  8
0
 10
142.089
 20
68.746
 11
141.746
 21
69.0889
  0
LINE
  8
0
 10
141.746
 20
69.0889
 11
141.526
 21
69.521
  0
LINE
  8
0
 10
141.526
 20
69.521
 11
141.45
 21
70
  0
LINE
  8
0
 10
141.45
 20
70
 11
141.526
 21
70.479
  0
LINE
  8
0
 10
141.526
 20
70.479
 11
141.746
 21
70.9111
  0
LINE
  8
0
 10
141.746
 20
70.9111
 11
142.089
 21
71.254
  0
LINE
  8
0
 10
142.089
 20
71.254
 11
142.521
 21
71.4741
  0
LINE
  8
0
 10
142.521
 20
71.4741
 11
143
 21
71.55
  0
LINE
  8
0
 10
143
 20
71.55
 11
143.479
 21
71.4741
  0
LINE
  8
0
 10
143.479
 20
71.4741
 11
143.911
 21
71.254
  0
LINE
  8
0
 10
143.911
 20
71.254
 11
144.254
 21
70.9111
  0
LINE
  8
0
 10
144.254
 20
70.9111
 11
144.474
 21
70.479
  0
LINE
  8
0
 10
144.474
 20
70.479
 11
144.55
 21
70
  0
LINE
  8
0
 10
144.55
 20
70
 11
144.474
 21
69.521
  0
LINE
  8
0
 10
144.474
 20
69.521
 11
144.254
 21
69.0889
  0
LINE
  8
0
 10
144.254
 20
69.0889
 11
143.911
 21
68.746
  0
LINE
  8
0
 10
143.911
 20
68.746
 11
143.479
 21
68.5259
  0
LINE
  8
0
 10
143.479
 20
68.5259
 11
143
 21
68.45
  0
LINE
  8
0
 10
143
 20
68.45
 11
142.521
 21
68.5259
  0
LINE
  8
0
 10
56.521
 20
68.5259
 11
56.0889
 21
68.746
  0
LINE
  8
0
 10
56.0889
 20
68.746
 11
55.746
 21
69.0889
  0
LINE
  8
0
 10
55.746
 20
69.0889
 11
55.5259
 21
69.521
  0
LINE
  8
0
 10
55.5259
 20
69.521
 11
55.45
 21
70
  0
LINE
  8
0
 10
55.45
 20
70
 11
55.5259
 21
70.479
  0
LINE
  8
0
 10
55.5259
 20
70.479
 11
55.746
 21
70.9111
  0
LINE
  8
0
 10
55.746
 20
70.9111
 11
56.0889
 21
71.254
  0
LINE
  8
0
 10
56.0889
 20
71.254
 11
56.521
 21
71.4741
  0
LINE
  8
0
 10
56.521
 20
71.4741
 11
57
 21
71.55
  0
LINE
  8
0
 10
57
 20
71.55
 11
57.479
 21
71.4741
  0
LINE
  8
0
 10
57.479
 20
71.4741
 11
57.9111
 21
71.254
  0
LINE
  8
0
 10
57.9111
 20
71.254
 11
58.254
 21
70.9111
  0
LINE
  8
0
 10
58.254
 20
70.9111
 11
58.4741
 21
70.479
  0
LINE
  8
0
 10
58.4741
 20
70.479
 11
58.55
 21
70
  0
LINE
  8
0
 10
58.55
 20
70
 11
58.4741
 21
69.521
  0
LINE
  8
0
 10
58.4741
 20
69.521
 11
58.254
 21
69.0889
  0
LINE
  8
0
 10
58.254
 20
69.0889
 11
57.9111
 21
68.746
  0
LINE
  8
0
 10
57.9111
 20
68.746
 11
57.479
 21
68.5259
  0
LINE
  8
0
 10
57.479
 20
68.5259
 11
57
 21
68.45
  0
LINE
  8
0
 10
57
 20
68.45
 11
56.521
 21
68.5259
  0
LINE
  8
0
 10
96.2918
 20
38.5873
 11
92.9466
 21
40.2918
  0
LINE
  8
0
 10
92.9466
 20
40.2918
 11
90.2918
 21
42.9466
  0
LINE
  8
0
 10
90.2918
 20
42.9466
 11
88.5873
 21
46.2918
  0
LINE
  8
0
 10
88.5873
 20
46.2918
 11
88
 21
50
  0
LINE
  8
0
 10
88
 20
50
 11
88.5873
 21
53.7082
  0
LINE
  8
0
 10
88.5873
 20
53.7082
 11
90.2918
 21
57.0534
  0
LINE
  8
0
 10
90.2918
 20
57.0534
 11
92.9466
 21
59.7082
  0
LINE
  8
0
 10
92.9466
 20
59.7082
 11
96.2918
 21
61.4127
  0
LINE
  8
0
 10
96.2918
 20
61.4127
 11
100
 21
62
  0
LINE
  8
0
 10
100
 20
62
 11
103.708
 21
61.4127
  0
LINE
  8
0
 10
103.708
 20
61.4127
 11
107.053
 21
59.7082
  0
LINE
  8
0
 10
107.053
 20
59.7082
 11
109.708
 21
57.0534
  0
LINE
  8
0
 10
109.708
 20
57.0534
 11
111.413
 21
53.7082
  0
LINE
  8
0
 10
111.413
 20
53.7082
 11
112
 21
50
  0
LINE
  8
0
 10
112
 20
50
 11
111.413
 21
46.2918
  0
LINE
  8
0
 10
111.413
 20
46.2918
 11
109.708
 21
42.9466
  0
LINE
  8
0
 10
109.708
 20
42.9466
 11
107.053
 21
40.2918
  0
LINE
  8
0
 10
107.053
 20
40.2918
 11
103.708
 21
38.5873
  0
LINE
  8
0
 10
103.708
 20
38.5873
 11
100
 21
38
  0
LINE
  8
0
 10
100
 20
38
 11
96.2918
 21
38.5873
  0
LINE
  8
0
 10
19.0308
 20
26.0677
 11
17.3143
 21
26.9685
  0
LINE
  8
0
 10
17.3143
 20
26.9685
 11
16.2132
 21
28.5638
  0
LINE
  8
0
 10
16.2132
 20
28.5638
 11
15.9795
 21
30.4882
  0
LINE
  8
0
 10
15.9795
 20
30.4882
 11
16.6669
 21
32.3007
  0
LINE
  8
0
 10
16.6669
 20
32.3007
 11
18.1179
 21
33.5861
  0
LINE
  8
0
 10
18.1179
 20
33.5861
 11
20
 21
34.05
  0
LINE
  8
0
 10
20
 20
34.05
 11
21.8821
 21
33.5861
  0
LINE
  8
0
 10
21.8821
 20
33.5861
 11
23.3331
 21
32.3007
  0
LINE
  8
0
 10
23.3331
 20
32.3007
 11
24.0205
 21
30.4882
  0
LINE
  8
0
 10
24.0205
 20
30.4882
 11
23.7868
 21
28.5638
  0
LINE
  8
0
 10
23.7868
 20
28.5638
 11
22.6856
 21
26.9685
  0
LINE
  8
0
 10
22.6856
 20
26.9685
 11
20.9692
 21
26.0677
  0
LINE
  8
0
 10
20.9692
 20
26.0677
 11
19.0308
 21
26.0677
  0
LINE
  8
0
 10
142.521
 20
28.5259
 11
142.089
 21
28.746
  0
LINE
  8
0
 10
142.089
 20
28.746
 11
141.746
 21
29.0889
  0
LINE
  8
0
 10
141.746
 20
29.0889
 11
141.526
 21
29.521
  0
LINE
  8
0
 10
141.526
 20
29.521
 11
141.45
 21
30
  0
LINE
  8
0
 10
141.45
 20
30
 11
141.526
 21
30.479
  0
LINE
  8
0
 10
141.526
 20
30.479
 11
141.746
 21
30.9111
  0
LINE
  8
0
 10
141.746
 20
30.9111
 11
142.089
 21
31.254
  0
LINE
  8
0
 10
142.089
 20
31.254
 11
142.521
 21
31.4741
  0
LINE
  8
0
 10
142.521
 20
31.4741
 11
143
 21
31.55
  0
LINE
  8
0
 10
143
 20
31.55
 11
143.479
 21
31.4741
  0
LINE
  8
0
 10
143.479
 20
31.4741
 11
143.911
 21
31.254
  0
LINE
  8
0
 10
143.911
 20
31.254
 11
144.254
 21
30.9111
  0
LINE
  8
0
 10
144.254
 20
30.9111
 11
144.474
 21
30.479
  0
LINE
  8
0
 10
144.474
 20
30.479
 11
144.55
 21
30
  0
LINE
  8
0
 10
144.55
 20
30
 11
144.474
 21
29.521
  0
LINE
  8
0
 10
144.474
 20
29.521
 11
144.254
 21
29.0889
  0
LINE
  8
0
 10
144.254
 20
29.0889
 11
143.911
 21
28.746
  0
LINE
  8
0
 10
143.911
 20
28.746
 11
143.479
 21
28.5259
  0
LINE
  8
0
 10
143.479
 20
28.5259
 11
143
 21
28.45
  0
LINE
  8
0
 10
143
 20
28.45
 11
142.521
 21
28.5259
  0
LINE
  8
0
 10
56.521
 20
28.5259
 11
56.0889
 21
28.746
  0
LINE
  8
0
 10
56.0889
 20
28.746
 11
55.746
 21
29.0889
  0
LINE
  8
0
 10
55.746
 20
29.0889
 11
55.5259
 21
29.521
  0
LINE
  8
0
 10
55.5259
 20
29.521
 11
55.45
 21
30
  0
LINE
  8
0
 10
55.45
 20
30
 11
55.5259
 21
30.479
  0
LINE
  8
0
 10
55.5259
 20
30.479
 11
55.746
 21
30.9111
  0
LINE
  8
0
 10
55.746
 20
30.9111
 11
56.0889
 21
31.254
  0
LINE
  8
0
 10
56.0889
 20
31.254
 11
56.521
 21
31.4741
  0
LINE
  8
0
 10
56.521
 20
31.4741
 11
57
 21
31.55
  0
LINE
  8
0
 10
57
 20
31.55
 11
57.479
 21
31.4741
  0
LINE
  8
0
 10
57.479
 20
31.4741
 11
57.9111
 21
31.254
  0
LINE
  8
0
 10
57.9111
 20
31.254
 11
58.254
 21
30.9111
  0
LINE
  8
0
 10
58.254
 20
30.9111
 11
58.4741
 21
30.479
  0
LINE
  8
0
 10
58.4741
 20
30.479
 11
58.55
 21
30
  0
LINE
  8
0
 10
58.55
 20
30
 11
58.4741
 21
29.521
  0
LINE
  8
0
 10
58.4741
 20
29.521
 11
58.254
 21
29.0889
  0
LINE
  8
0
 10
58.254
 20
29.0889
 11
57.9111
 21
28.746
  0
LINE
  8
0
 10
57.9111
 20
28.746
 11
57.479
 21
28.5259
  0
LINE
  8
0
 10
57.479
 20
28.5259
 11
57
 21
28.45
  0
LINE
  8
0
 10
57
 20
28.45
 11
56.521
 21
28.5259
  0
LINE
  8
0
 10
5.52101
 20
4.52585
 11
5.08893
 21
4.74602
  0
LINE
  8
0
 10
5.08893
 20
4.74602
 11
4.74602
 21
5.08893
  0
LINE
  8
0
 10
4.74602
 20
5.08893
 11
4.52585
 21
5.52101
  0
LINE
  8
0
 10
4.52585
 20
5.52101
 11
4.45
 21
6
  0
LINE
  8
0
 10
4.45
 20
6
 11
4.52585
 21
6.47897
  0
LINE
  8
0
 10
4.52585
 20
6.47897
 11
4.74602
 21
6.91106
  0
LINE
  8
0
 10
4.74602
 20
6.91106
 11
5.08893
 21
7.25397
  0
LINE
  8
0
 10
5.08893
 20
7.25397
 11
5.52101
 21
7.47414
  0
LINE
  8
0
 10
5.52101
 20
7.47414
 11
6
 21
7.54999
  0
LINE
  8
0
 10
6
 20
7.54999
 11
6.47897
 21
7.47414
  0
LINE
  8
0
 10
6.47897
 20
7.47414
 11
6.91106
 21
7.25397
  0
LINE
  8
0
 10
6.91106
 20
7.25397
 11
7.25397
 21
6.91106
  0
LINE
  8
0
 10
7.25397
 20
6.91106
 11
7.47414
 21
6.47897
  0
LINE
  8
0
 10
7.47414
 20
6.47897
 11
7.54999
 21
6
  0
LINE
  8
0
 10
7.54999
 20
6
 11
7.47414
 21
5.52101
  0
LINE
  8
0
 10
7.47414
 20
5.52101
 11
7.25397
 21
5.08893
  0
LINE
  8
0
 10
7.25397
 20
5.08893
 11
6.91106
 21
4.74602
  0
LINE
  8
0
 10
6.91106
 20
4.74602
 11
6.47897
 21
4.52585
  0
LINE
  8
0
 10
6.47897
 20
4.52585
 11
6
 21
4.45
  0
LINE
  8
0
 10
6
 20
4.45
 11
5.52101
 21
4.52585
  0
LINE
  8
0
 10
193.521
 20
4.52585
 11
193.089
 21
4.74602
  0
LINE
  8
0
 10
193.089
 20
4.74602
 11
192.746
 21
5.08893
  0
LINE
  8
0
 10
192.746
 20
5.08893
 11
192.526
 21
5.52101
  0
LINE
  8
0
 10
192.526
 20
5.52101
 11
192.45
 21
6
  0
LINE
  8
0
 10
192.45
 20
6
 11
192.526
 21
6.47897
  0
LINE
  8
0
 10
192.526
 20
6.47897
 11
192.746
 21
6.91106
  0
LINE
  8
0
 10
192.746
 20
6.91106
 11
193.089
 21
7.25397
  0
LINE
  8
0
 10
193.089
 20
7.25397
 11
193.521
 21
7.47414
  0
LINE
  8
0
 10
193.521
 20
7.47414
 11
194
 21
7.54999
  0
LINE
  8
0
 10
194
 20
7.54999
 11
194.479
 21
7.47414
  0
LINE
  8
0
 10
194.479
 20
7.47414
 11
194.911
 21
7.25397
  0
LINE
  8
0
 10
194.911
 20
7.25397
 11
195.254
 21
6.91106
  0
LINE
  8
0
 10
195.254
 20
6.91106
 11
195.474
 21
6.47897
  0
LINE
  8
0
 10
195.474
 20
6.47897
 11
195.55
 21
6
  0
LINE
  8
0
 10
195.55
 20
6
 11
195.474
 21
5.52101
  0
LINE
  8
0
 10
195.474
 20
5.52101
 11
195.254
 21
5.08893
  0
LINE
  8
0
 10
195.254
 20
5.08893
 11
194.911
 21
4.74602
  0
LINE
  8
0
 10
194.911
 20
4.74602
 11
194.479
 21
4.52585
  0
LINE
  8
0
 10
194.479
 20
4.52585
 11
194
 21
4.45
  0
LINE
  8
0
 10
194
 20
4.45
 11
193.521
 21
4.52585
  0
ENDSEC
  0
SECTION
  2
OBJECTS
  0
DICTIONARY
  0
ENDSEC
  0
EOF
